<svg width="279" height="205" viewBox="0 0 279 205" fill="none" xmlns="http://www.w3.org/2000/svg">
<path opacity="0.47" d="M18.0689 147.659C15.5295 133.997 17.444 118.101 24.5712 105.918C31.9711 93.2975 43.2942 84.1046 48.5119 69.839C51.4877 61.6823 52.6533 52.8725 56.512 45.0841C74.749 8.27834 149.547 9.23592 153.783 55.5538C154.07 58.731 153.951 61.9966 155.003 65.0069C155.675 66.8851 156.774 68.5856 158.214 69.9776C159.654 71.3695 161.398 72.4158 163.31 73.0359C169.47 75.0002 176.538 73.2765 182.946 74.4011C188.744 75.437 194.355 77.3186 199.596 79.9846C210.045 85.3408 218.883 93.3307 225.218 103.148C237.816 122.58 238.912 147.644 224.593 166.497C216.122 177.668 203.231 184.705 190.167 189.98C165.175 200.056 138.125 204.849 111.139 204.997C89.3158 205.119 66.8134 202.001 48.1796 190.79C40.3665 186.117 33.6431 179.856 28.4528 172.422C23.2626 164.987 19.7234 156.547 18.0689 147.659Z" fill="#8378F3"/>
<path d="M79.1787 184.377C35.1875 193.248 24.5598 146.648 54.639 92.7954C122.948 -9.3577 230.83 20.977 247.283 41.1767C263.735 61.3763 250.514 85.606 187.116 96.2135C123.718 106.821 134.168 173.288 79.1787 184.377Z" stroke="white" stroke-width="1.5"/>
<path d="M35.5291 47L52.5874 81.4112L47.4945 81.6049L61.9499 108.946H54.355L66.1993 133.24H3.05176e-05L14.5765 108.946L7.59091 108.643L21.562 81.3144L16.4005 81.0117L35.5291 47Z" fill="#F5F5F5"/>
<path d="M32.6441 86.9278C32.5473 86.9278 32.6845 107.707 32.9468 133.337C33.2091 158.967 33.6288 182.627 33.6329 182.53C33.6611 177.05 33.5642 158.967 33.2979 133.337C33.0315 107.707 32.745 86.9278 32.6441 86.9278Z" fill="#E0E0E0"/>
<path d="M24.5324 95.7616C24.4558 95.8222 26.1466 98.1588 28.3299 100.98C30.5131 103.8 32.3332 106.036 32.3977 105.976C32.4623 105.915 30.7835 103.583 28.6003 100.762C26.417 97.9408 24.6091 95.7011 24.5324 95.7616Z" fill="#E0E0E0"/>
<path d="M32.8015 105.245C32.862 105.322 34.5449 104.115 36.5546 102.545C38.5643 100.976 40.1502 99.6438 40.0938 99.5631C40.0373 99.4824 38.3504 100.697 36.3366 102.267C34.3229 103.837 32.745 105.169 32.8015 105.245Z" fill="#E0E0E0"/>
<path d="M33.2613 122.126C33.7108 121.841 34.1312 121.513 34.5164 121.145C35.267 120.512 36.3001 119.64 37.4583 118.692C38.6165 117.743 39.6859 116.912 40.4567 116.307C40.8935 116.003 41.299 115.657 41.6674 115.274C41.1817 115.494 40.7249 115.773 40.3074 116.105C39.5003 116.662 38.4026 117.469 37.2363 118.417C36.07 119.366 35.0571 120.278 34.3469 120.96C33.9383 121.302 33.5736 121.694 33.2613 122.126Z" fill="#E0E0E0"/>
<path d="M24.5201 111.69C24.4475 111.755 26.3079 114.2 28.6848 117.154C31.0618 120.108 33.0473 122.453 33.1239 122.4C33.2006 122.348 31.3362 119.894 28.9592 116.94C26.5823 113.986 24.5968 111.629 24.5201 111.69Z" fill="#E0E0E0"/>
<path d="M229.289 47L244.83 78.3522L240.189 78.5298L253.357 103.441H246.444L257.231 125.572H196.919L210.196 103.441L203.836 103.163L216.56 78.2635L211.859 77.985L229.289 47Z" fill="#F5F5F5"/>
<path d="M226.661 83.3685C226.573 83.3685 226.694 102.295 226.932 125.641C227.17 148.987 227.44 175.456 227.529 175.452C227.618 175.448 227.497 148.991 227.255 125.637C227.012 102.283 226.75 83.3685 226.661 83.3685Z" fill="#E0E0E0"/>
<path d="M219.268 91.4275C219.199 91.4799 220.749 93.6107 222.731 96.1773C224.712 98.7439 226.363 100.79 226.443 100.733C226.524 100.677 224.966 98.5543 222.985 95.9836C221.003 93.413 219.341 91.3669 219.268 91.4275Z" fill="#E0E0E0"/>
<path d="M226.806 100.068C226.863 100.136 228.392 99.0345 230.225 97.6059C232.057 96.1773 233.501 94.9626 233.453 94.89C233.405 94.8173 231.867 95.9231 230.031 97.3517C228.195 98.7803 226.754 99.999 226.806 100.068Z" fill="#E0E0E0"/>
<path d="M227.219 115.447C227.631 115.189 228.015 114.889 228.365 114.551C229.047 113.978 229.979 113.179 231.048 112.32C232.118 111.46 233.066 110.705 233.776 110.144C234.176 109.869 234.546 109.554 234.882 109.204C234.438 109.403 234.021 109.657 233.639 109.959C232.901 110.467 231.904 111.206 230.842 112.069C229.781 112.933 228.861 113.76 228.211 114.382C227.839 114.696 227.506 115.054 227.219 115.447Z" fill="#E0E0E0"/>
<path d="M219.244 105.939C219.175 105.996 220.858 108.223 223.033 110.915C225.208 113.607 227.008 115.758 227.069 115.689C227.129 115.621 225.455 113.409 223.279 110.713C221.104 108.018 219.329 105.895 219.244 105.939Z" fill="#E0E0E0"/>
<path d="M256.048 88.9496L268.018 113.098L264.442 113.236L274.588 132.421H269.261L277.57 149.471H233.784L241.343 132.421L236.444 132.211L246.246 113.03L242.622 112.816L256.048 88.9496Z" fill="#EBEBEB"/>
<path d="M254.022 116.96C253.954 116.96 254.051 131.541 254.232 149.519C254.414 167.498 254.636 182.082 254.692 182.082C254.749 182.082 254.668 167.506 254.482 149.519C254.297 131.533 254.091 116.96 254.022 116.96Z" fill="#E0E0E0"/>
<path d="M248.328 123.171C249.152 124.436 250.043 125.657 250.996 126.827C251.886 128.048 252.841 129.22 253.857 130.338C253.91 130.294 252.719 128.656 251.194 126.678C249.668 124.701 248.385 123.127 248.328 123.171Z" fill="#E0E0E0"/>
<path d="M254.135 129.826C254.18 129.878 255.346 129.019 256.771 127.929C257.649 127.295 258.478 126.596 259.253 125.839C259.208 125.782 258.042 126.646 256.617 127.731C255.193 128.817 254.095 129.769 254.135 129.826Z" fill="#E0E0E0"/>
<path d="M254.455 141.67C254.77 141.47 255.065 141.239 255.334 140.98C255.863 140.536 256.589 139.923 257.401 139.261C258.212 138.599 258.962 138.01 259.503 137.586C259.811 137.374 260.096 137.13 260.355 136.86C260.013 137.015 259.692 137.212 259.398 137.445C258.829 137.849 258.062 138.401 257.243 139.059C256.424 139.717 255.718 140.363 255.225 140.843C254.935 141.085 254.676 141.363 254.455 141.67Z" fill="#E0E0E0"/>
<path d="M248.324 134.346C248.268 134.39 249.575 136.105 251.242 138.179C252.909 140.254 254.305 141.9 254.357 141.856C253.448 140.531 252.473 139.253 251.436 138.026C249.769 135.952 248.377 134.305 248.324 134.346Z" fill="#E0E0E0"/>
<path d="M196.706 69.5749H143.436C143.436 69.5749 148.15 60.9994 161.867 62.2464C174.966 63.457 175.632 58.0292 182.291 57.3633C188.949 56.6975 194.482 61.8025 196.706 69.5749Z" fill="#EBEBEB"/>
<path d="M149.251 84.2401H120.195C120.195 84.2401 122.766 79.5669 130.244 80.2449C137.387 80.8946 137.75 77.9446 141.382 77.5814C145.014 77.2182 148.041 80.0028 149.251 84.2401Z" fill="#F5F5F5"/>
<path d="M119.009 57.0365H89.9528C89.9528 57.0365 92.5275 52.3593 100.001 53.0292C107.144 53.6789 107.507 50.7289 111.139 50.3657C114.771 50.0025 117.798 52.7991 119.009 57.0365Z" fill="#FAFAFA"/>
<path d="M1.95718 182.373C1.95718 182.433 63.8505 182.478 140.179 182.478C216.508 182.478 278.413 182.433 278.413 182.373C278.413 182.312 216.536 182.268 140.179 182.268C63.8223 182.268 1.95718 182.316 1.95718 182.373Z" fill="#263238"/>
<path d="M19.952 142.586C18.0405 144.645 16.9397 147.326 16.8537 150.134C16.7676 152.941 17.702 155.685 19.4839 157.857C21.1061 159.801 23.1482 161.352 25.4565 162.393L45.2872 171.327L59.2947 173.495L242.614 172.332L254.103 170.085C256.787 169.559 259.2 168.108 260.923 165.985C262.646 163.861 263.569 161.2 263.53 158.466L263.413 150.484C263.403 149.884 263.202 149.302 262.839 148.824C262.476 148.346 261.971 147.996 261.395 147.824L260.588 147.574C260.588 147.574 259.91 139.749 255.189 137.978C237.981 130.564 226.593 128.183 197.791 126.981L173.469 112.453C173.469 112.453 163.65 106.177 154.502 105.354C145.353 104.531 124.638 104.523 115.151 105.068C104.009 105.709 89.8721 110.778 81.9866 114.688C75.8122 117.751 60.9492 125.318 60.9492 125.318L52.5431 126.726C51.276 126.787 28.0594 128.203 25.3919 128.611C24.4215 128.769 23.5135 129.191 22.7679 129.832C22.0224 130.473 21.4683 131.307 21.1667 132.243C20.5008 134.447 19.956 142.538 19.956 142.538" fill="#7467F0"/>
<path d="M90.9134 115.1C94.8763 113.119 105.506 110.387 111.45 109.273C117.395 108.159 129.477 108.006 134.304 108.127C139.13 108.248 152.544 108.482 159.615 110.487C163.247 111.521 169.094 114.547 172.529 117.082C173.739 117.961 178.921 122.033 180.079 122.957L189.078 131.359L78.5041 127.869C78.5041 127.869 77.8664 124.015 79.856 121.795C81.8455 119.575 90.9134 115.1 90.9134 115.1Z" fill="#263238"/>
<path d="M254.946 147.102L260.539 147.021C260.322 145.512 259.583 141.501 257.19 139.253L249.785 139.362C249.477 139.366 249.176 139.452 248.913 139.61C248.649 139.769 248.432 139.994 248.284 140.263C248.136 140.533 248.062 140.837 248.07 141.144C248.078 141.452 248.167 141.751 248.328 142.013L249.676 144.204C250.228 145.103 251.004 145.842 251.928 146.35C252.852 146.858 253.892 147.117 254.946 147.102Z" fill="#FAFAFA"/>
<path d="M254.269 146.763C253.687 144.301 252.953 141.065 250.875 139.346H249.785C249.478 139.35 249.177 139.436 248.913 139.594C248.65 139.752 248.433 139.978 248.285 140.247C248.137 140.517 248.063 140.821 248.07 141.128C248.078 141.435 248.167 141.735 248.328 141.997L249.676 144.188C250.175 145.001 250.858 145.685 251.671 146.183C252.484 146.682 253.403 146.982 254.353 147.058L254.269 146.763Z" fill="#E0E0E0"/>
<g opacity="0.7">
<path opacity="0.7" d="M199.994 172.671C199.401 169.794 199.273 166.84 199.615 163.922C201.06 151.505 209.191 142.57 221.476 142.393C232.166 142.239 240.996 148.918 242.799 161.287C243.327 164.979 243.202 168.736 242.428 172.385L199.994 172.671Z" fill="black"/>
</g>
<g opacity="0.7">
<path opacity="0.7" d="M45.3112 171.38C45.3112 170.924 45.3637 170.456 45.3717 169.972C45.5897 154.301 56.1023 143.446 68.6044 143.264C74.0976 143.191 79.3956 145.3 83.3358 149.128C87.276 152.956 89.5366 158.191 89.6216 163.684C89.6741 167.171 89.8396 170.452 89.4279 173.345L59.3186 173.547L45.3112 171.38Z" fill="black"/>
</g>
<path d="M86.9425 163.72C86.994 167.29 85.9857 170.795 84.0453 173.792C82.1048 176.789 79.3193 179.143 76.0409 180.556C72.7626 181.97 69.1386 182.38 65.6274 181.734C62.1161 181.088 58.8753 179.415 56.3146 176.928C53.754 174.44 51.9886 171.249 51.2417 167.757C50.4948 164.266 50.7999 160.632 52.1184 157.314C53.437 153.996 55.7098 151.144 58.6493 149.118C61.5889 147.092 65.0633 145.983 68.6331 145.932C73.42 145.863 78.0383 147.698 81.4719 151.034C84.9056 154.37 86.8734 158.934 86.9425 163.72Z" fill="#263238"/>
<path d="M86.9425 163.676V163.72C86.9766 166.091 86.5436 168.445 85.668 170.648C84.7924 172.851 83.4915 174.86 81.8395 176.561C80.1875 178.261 78.2167 179.619 76.0397 180.558C73.8627 181.497 71.5222 181.998 69.1517 182.032C66.7812 182.066 64.4272 181.633 62.224 180.757C60.0209 179.882 58.0118 178.581 56.3114 176.929C54.6111 175.277 53.2527 173.306 52.314 171.129C51.3753 168.952 50.8745 166.612 50.8404 164.241C50.8404 164.241 50.8404 164.213 50.8404 164.197L86.9425 163.676Z" fill="#263238"/>
<path d="M81.5671 163.801C81.5995 166.307 80.8883 168.767 79.5234 170.869C78.1585 172.97 76.2012 174.621 73.8987 175.61C71.5962 176.6 69.052 176.885 66.5875 176.43C64.1231 175.974 61.849 174.798 60.0528 173.05C58.2566 171.302 57.0187 169.061 56.4958 166.61C55.9728 164.159 56.1882 161.608 57.1146 159.279C58.0411 156.951 59.6371 154.949 61.7009 153.527C63.7648 152.105 66.2038 151.327 68.7097 151.291C70.3757 151.267 72.0301 151.572 73.5782 152.188C75.1264 152.803 76.5379 153.719 77.732 154.88C78.9262 156.042 79.8795 157.428 80.5376 158.959C81.1956 160.49 81.5455 162.135 81.5671 163.801Z" fill="#FAFAFA"/>
<path d="M68.7175 151.307C70.3834 151.284 72.0375 151.589 73.5854 152.205C75.1333 152.821 76.5446 153.736 77.7387 154.898C78.9327 156.06 79.8861 157.445 80.5443 158.976C81.2025 160.506 81.5527 162.151 81.5748 163.817L56.2275 164.181C56.2013 162.515 56.5038 160.86 57.1175 159.312C57.7312 157.763 58.6441 156.35 59.8041 155.155C60.9641 153.959 62.3484 153.004 63.8779 152.344C65.4073 151.684 67.0519 151.331 68.7175 151.307Z" fill="#E0E0E0"/>
<path d="M76.6114 163.87C76.6336 165.397 76.2025 166.896 75.3726 168.178C74.5428 169.459 73.3514 170.466 71.9493 171.071C70.5471 171.676 68.9972 171.851 67.4954 171.575C65.9936 171.298 64.6075 170.583 63.5123 169.519C62.4172 168.455 61.6622 167.09 61.3429 165.596C61.0235 164.103 61.1542 162.549 61.7183 161.13C62.2824 159.711 63.2546 158.491 64.5121 157.625C65.7695 156.758 67.2555 156.284 68.7824 156.263C70.8292 156.234 72.8038 157.019 74.272 158.445C75.7401 159.872 76.5816 161.823 76.6114 163.87Z" fill="#263238"/>
<path d="M220.315 182.491C210.353 182.044 202.641 173.606 203.088 163.645C203.535 153.683 211.973 145.97 221.934 146.418C231.896 146.865 239.609 155.303 239.161 165.264C238.714 175.226 230.276 182.939 220.315 182.491Z" fill="#263238"/>
<path d="M239.159 164.14C239.159 164.14 239.159 164.172 239.159 164.189C239.228 168.976 237.393 173.595 234.056 177.029C230.72 180.463 226.156 182.431 221.368 182.5C216.581 182.569 211.962 180.733 208.528 177.397C205.094 174.061 203.126 169.497 203.057 164.709V164.661L239.159 164.14Z" fill="#263238"/>
<path d="M233.772 164.265C233.808 166.772 233.1 169.234 231.738 171.338C230.375 173.443 228.419 175.096 226.117 176.089C223.814 177.082 221.269 177.37 218.804 176.916C216.338 176.462 214.062 175.287 212.264 173.54C210.466 171.793 209.226 169.552 208.702 167.1C208.178 164.648 208.392 162.096 209.319 159.766C210.245 157.436 211.842 155.433 213.907 154.011C215.971 152.589 218.411 151.811 220.918 151.775C224.279 151.728 227.521 153.017 229.931 155.359C232.341 157.701 233.723 160.905 233.772 164.265Z" fill="#FAFAFA"/>
<path d="M220.931 151.775C224.29 151.731 227.528 153.022 229.936 155.363C232.344 157.705 233.723 160.907 233.772 164.265L208.425 164.632C208.401 162.967 208.706 161.313 209.321 159.765C209.937 158.217 210.852 156.806 212.013 155.612C213.175 154.418 214.56 153.464 216.09 152.806C217.621 152.148 219.266 151.797 220.931 151.775Z" fill="#E0E0E0"/>
<path d="M228.833 164.338C228.857 165.865 228.428 167.365 227.6 168.648C226.772 169.932 225.582 170.94 224.18 171.547C222.778 172.154 221.228 172.331 219.726 172.056C218.223 171.782 216.836 171.068 215.74 170.005C214.643 168.941 213.887 167.577 213.566 166.084C213.245 164.59 213.374 163.036 213.937 161.616C214.501 160.196 215.472 158.975 216.729 158.108C217.986 157.241 219.472 156.766 221 156.743C223.045 156.713 225.019 157.496 226.488 158.92C227.956 160.344 228.8 162.292 228.833 164.338Z" fill="#263238"/>
<g opacity="0.4">
<path opacity="0.4" d="M256.036 160.31C256.064 162.328 257.089 163.942 258.32 163.942C259.551 163.942 260.532 162.268 260.503 160.246C260.475 158.224 259.45 156.614 258.215 156.614C256.98 156.614 256.008 158.289 256.036 160.31Z" fill="black"/>
</g>
<path d="M19.952 142.586C20.0664 142.608 20.1828 142.617 20.2991 142.615L21.2999 142.651C22.1676 142.671 23.4226 142.699 24.9683 142.764C26.5139 142.828 28.3621 142.909 30.4041 143.075C32.6158 143.239 34.8128 143.563 36.9781 144.043C38.0895 144.305 39.1713 144.679 40.2065 145.161C41.1583 145.637 42.0509 146.224 42.8659 146.908C44.4802 148.163 45.6908 149.556 46.8087 150.649C47.6587 151.537 48.6064 152.327 49.6336 153.002C49.9171 153.181 50.2124 153.34 50.5174 153.478C50.6196 153.535 50.7279 153.579 50.8402 153.611C50.8402 153.587 50.4084 153.394 49.6901 152.917C48.6899 152.217 47.7661 151.414 46.9338 150.52C45.8482 149.418 44.6375 148.002 43.0112 146.723C42.1862 146.021 41.2797 145.421 40.3114 144.935C39.2608 144.44 38.1611 144.058 37.0305 143.793C34.8513 143.31 32.6391 142.99 30.4122 142.836C28.3622 142.687 26.5139 142.611 24.9642 142.578C23.4146 142.546 22.1393 142.542 21.2878 142.55H20.287C20.1745 142.552 20.0624 142.565 19.952 142.586Z" fill="#263238"/>
<g opacity="0.5">
<path opacity="0.5" d="M45.8761 171.703C45.806 171.652 45.7332 171.605 45.6582 171.562C45.4468 171.422 45.2434 171.271 45.0488 171.11C44.316 170.469 43.7449 169.664 43.3821 168.761C42.8235 167.323 42.6227 165.77 42.797 164.237C43.0066 162.205 43.4121 160.198 44.0077 158.244C44.7047 155.871 45.68 153.588 46.9133 151.444C48.3345 148.985 50.149 146.775 52.2846 144.903C54.6361 142.825 57.4024 141.27 60.4001 140.342C63.6344 139.399 67.0244 139.109 70.372 139.491C73.7229 139.847 77.0021 140.699 80.1017 142.021C82.8873 143.119 85.4074 144.797 87.4948 146.943C89.5821 149.09 91.1889 151.656 92.2084 154.471C93.0844 156.785 93.7147 159.184 94.0889 161.63C94.2665 162.752 94.3997 163.825 94.4925 164.858C94.6008 165.814 94.6413 166.775 94.6136 167.736C94.5571 169.528 93.9719 171.061 93.0558 171.937C92.3877 172.651 91.4828 173.099 90.5094 173.196C90.1706 173.205 89.832 173.174 89.5005 173.103L89.7507 173.176C90.0011 173.231 90.2572 173.255 90.5134 173.248C91.506 173.169 92.4349 172.728 93.1244 172.01C94.0728 171.122 94.6902 169.556 94.7387 167.744C94.7737 166.776 94.74 165.806 94.6378 164.842C94.553 163.821 94.4239 162.744 94.2544 161.614C93.8893 159.152 93.2644 156.736 92.39 154.406C91.8937 153.111 91.2946 151.857 90.5982 150.657C89.8484 149.388 88.9664 148.202 87.967 147.118C85.7764 144.821 83.125 143.012 80.1864 141.811C77.0654 140.474 73.761 139.613 70.3841 139.257C66.9972 138.865 63.5662 139.159 60.2952 140.121C57.264 141.062 54.4685 142.638 52.0949 144.745C49.9451 146.638 48.1209 148.871 46.6953 151.356C44.4583 155.322 43.0754 159.713 42.6356 164.245C42.4833 165.793 42.709 167.355 43.2934 168.797C43.6716 169.709 44.2641 170.516 45.0206 171.15C45.2808 171.37 45.5683 171.556 45.8761 171.703Z" fill="white"/>
</g>
<path d="M242.42 161.283C242.628 161.065 242.824 160.834 243.005 160.593C243.535 159.972 244.121 159.402 244.757 158.89C246.882 157.225 249.371 156.087 252.021 155.569C254.68 155.07 257.39 154.897 260.092 155.052C261.129 155.088 261.968 155.141 262.549 155.169C262.849 155.201 263.152 155.209 263.453 155.193C263.379 155.168 263.302 155.153 263.223 155.149L262.557 155.068C261.98 155.008 261.141 154.931 260.1 154.87C257.385 154.663 254.656 154.812 251.98 155.314C249.286 155.838 246.764 157.022 244.639 158.761C244.006 159.292 243.433 159.89 242.928 160.544C242.784 160.72 242.649 160.903 242.525 161.093C242.483 161.153 242.448 161.216 242.42 161.283Z" fill="#263238"/>
<path d="M242.533 147.865C242.533 147.937 246.843 147.933 252.158 147.865C257.473 147.796 261.779 147.667 261.779 147.594C261.779 147.522 257.469 147.53 252.154 147.594C246.839 147.659 242.529 147.772 242.533 147.865Z" fill="#263238"/>
<g opacity="0.5">
<path opacity="0.5" d="M193.683 170.807C193.687 170.725 193.687 170.643 193.683 170.561C193.683 170.387 193.683 170.157 193.683 169.838C193.683 169.52 193.683 169.124 193.731 168.66C193.78 168.196 193.788 167.659 193.848 167.046C194.163 163.645 194.899 160.297 196.04 157.078C196.819 154.851 197.779 152.692 198.909 150.621C200.173 148.237 201.716 146.011 203.506 143.991C205.497 141.764 207.966 140.017 210.729 138.882C213.697 137.664 216.868 137.015 220.076 136.969C221.696 136.954 223.316 137.07 224.918 137.316C226.472 137.581 228.003 137.966 229.499 138.466C230.938 138.961 232.335 139.573 233.675 140.294L234.168 140.556L234.644 140.843L235.592 141.408L236.484 142.025L236.928 142.332L237.332 142.667C239.472 144.314 241.336 146.292 242.852 148.527C244.178 150.472 245.252 152.578 246.048 154.794C246.702 156.626 247.171 158.518 247.449 160.444C247.542 161.295 247.646 162.086 247.663 162.821C247.679 163.555 247.699 164.225 247.695 164.838C247.691 165.452 247.63 165.976 247.61 166.453C247.59 166.929 247.525 167.308 247.485 167.623C247.445 167.938 247.42 168.168 247.396 168.341C247.372 168.515 247.396 168.587 247.396 168.587C247.396 168.587 247.396 168.507 247.445 168.345C247.493 168.184 247.509 167.942 247.558 167.631C247.606 167.32 247.679 166.925 247.707 166.461C247.735 165.996 247.82 165.46 247.816 164.846C247.812 164.233 247.856 163.563 247.816 162.829C247.776 162.094 247.707 161.291 247.618 160.435C247.357 158.499 246.897 156.595 246.246 154.753C245.457 152.517 244.385 150.391 243.058 148.426C241.534 146.167 239.66 144.165 237.505 142.497L237.081 142.162L236.633 141.852L235.733 141.222L234.785 140.645L234.309 140.355L233.813 140.092C232.463 139.36 231.055 138.74 229.603 138.24C228.094 137.733 226.548 137.343 224.979 137.074C223.359 136.824 221.722 136.707 220.084 136.723C216.847 136.773 213.649 137.433 210.657 138.668C207.86 139.815 205.359 141.58 203.34 143.829C201.551 145.879 200.011 148.133 198.752 150.544C197.624 152.624 196.671 154.793 195.903 157.029C194.772 160.266 194.059 163.633 193.78 167.05C193.67 168.299 193.637 169.554 193.683 170.807Z" fill="white"/>
</g>
<path d="M52.5231 126.965C52.5132 127.052 52.5132 127.14 52.5231 127.227C52.5473 127.429 52.5796 127.675 52.6199 127.978C52.7087 128.627 52.8419 129.568 52.9267 130.734C53.0494 132.096 52.9869 133.468 52.741 134.814C52.4235 136.455 51.6339 137.969 50.469 139.168C49.2879 140.351 47.8757 141.279 46.3204 141.892C45.0536 142.39 43.7431 142.768 42.406 143.022C41.2558 143.252 40.3155 143.393 39.6699 143.498L38.9233 143.623C38.8352 143.634 38.7486 143.654 38.665 143.684C38.7532 143.699 38.8432 143.699 38.9313 143.684L39.682 143.607C40.3357 143.531 41.2962 143.418 42.4382 143.204C43.8021 142.971 45.1392 142.602 46.4294 142.102C48.0244 141.489 49.4723 140.547 50.6788 139.338C51.8672 138.102 52.667 136.544 52.9791 134.858C53.2167 133.492 53.2628 132.1 53.1163 130.722C53.0033 129.547 52.8419 128.607 52.7128 127.961C52.6523 127.639 52.5998 127.388 52.5634 127.219C52.5613 127.133 52.5477 127.047 52.5231 126.965Z" fill="#263238"/>
<path d="M144.239 136.844C144.166 136.826 144.091 136.819 144.017 136.823C143.802 136.813 143.588 136.824 143.375 136.856C143.2 136.877 143.031 136.935 142.88 137.027C142.729 137.119 142.599 137.242 142.5 137.388C142.364 137.584 142.283 137.811 142.265 138.048C142.246 138.285 142.291 138.523 142.395 138.736C142.528 138.988 142.713 139.208 142.938 139.382C143.163 139.557 143.422 139.682 143.698 139.749C144.314 139.882 144.948 139.913 145.575 139.842L149.82 139.6C150.209 139.595 150.594 139.522 150.958 139.386C151.141 139.315 151.308 139.206 151.446 139.067C151.585 138.928 151.694 138.762 151.765 138.579C151.819 138.391 151.828 138.194 151.791 138.002C151.753 137.811 151.671 137.631 151.551 137.477C151.338 137.185 151.039 136.966 150.696 136.852C150.084 136.689 149.451 136.625 148.819 136.662C148.238 136.662 147.693 136.662 147.205 136.702L144.868 136.803C144.581 136.797 144.294 136.812 144.009 136.848C144.081 136.869 144.156 136.878 144.231 136.876C144.376 136.876 144.59 136.896 144.868 136.9C145.421 136.9 146.22 136.9 147.209 136.9C147.701 136.9 148.242 136.9 148.823 136.9C149.429 136.874 150.035 136.942 150.619 137.102C150.915 137.2 151.172 137.389 151.354 137.643C151.45 137.765 151.517 137.909 151.547 138.062C151.577 138.215 151.57 138.373 151.527 138.522C151.467 138.674 151.375 138.811 151.258 138.925C151.142 139.039 151.002 139.128 150.849 139.184C150.511 139.307 150.155 139.371 149.796 139.374L145.554 139.636C144.951 139.711 144.34 139.69 143.742 139.576C143.49 139.521 143.251 139.414 143.042 139.261C142.834 139.108 142.66 138.913 142.532 138.688C142.437 138.502 142.394 138.294 142.405 138.086C142.416 137.878 142.482 137.676 142.596 137.501C142.681 137.363 142.794 137.243 142.929 137.152C143.063 137.06 143.215 136.997 143.375 136.969C143.928 136.856 144.243 136.872 144.239 136.844Z" fill="#263238"/>
<path d="M87.1479 136.371C87.0743 136.36 86.9995 136.36 86.9259 136.371C86.7115 136.361 86.4966 136.372 86.2843 136.404C86.109 136.426 85.9403 136.484 85.7894 136.576C85.6384 136.668 85.5086 136.791 85.4086 136.936C85.2731 137.132 85.1921 137.359 85.1736 137.596C85.1552 137.833 85.2001 138.071 85.3036 138.284C85.4372 138.536 85.6224 138.756 85.8471 138.93C86.0717 139.105 86.3307 139.23 86.6071 139.297C87.226 139.431 87.8627 139.462 88.4917 139.39L92.7371 139.148C93.1255 139.142 93.5102 139.071 93.8752 138.938C94.0583 138.867 94.2247 138.758 94.3636 138.619C94.5026 138.48 94.6111 138.314 94.6823 138.131C94.7388 137.944 94.7492 137.746 94.7126 137.554C94.6761 137.363 94.5937 137.182 94.4724 137.029C94.2581 136.738 93.9595 136.52 93.6169 136.404C93.0051 136.243 92.3719 136.179 91.7404 136.214C91.1592 136.214 90.6144 136.234 90.1261 136.254L87.7855 136.355C87.4997 136.354 87.2141 136.369 86.93 136.4C87.002 136.421 87.0769 136.43 87.1519 136.428C87.2972 136.428 87.5111 136.448 87.7896 136.456C88.3424 136.456 89.1415 136.456 90.1302 136.456C90.6225 136.456 91.1633 136.456 91.7444 136.456C92.3499 136.43 92.9557 136.498 93.5402 136.658C93.8373 136.756 94.0949 136.947 94.2747 137.203C94.3714 137.324 94.4377 137.467 94.4679 137.62C94.4981 137.772 94.4913 137.929 94.4482 138.079C94.3878 138.23 94.2962 138.367 94.1795 138.481C94.0627 138.595 93.9233 138.684 93.7702 138.74C93.4322 138.863 93.0763 138.928 92.717 138.934L88.4756 139.192C87.8722 139.269 87.2605 139.248 86.6636 139.132C86.4113 139.077 86.1732 138.97 85.9647 138.818C85.7562 138.666 85.5818 138.472 85.453 138.248C85.3601 138.061 85.3172 137.853 85.3285 137.644C85.3399 137.436 85.405 137.234 85.5175 137.058C85.6038 136.923 85.7172 136.808 85.8507 136.719C85.9841 136.631 86.1346 136.572 86.2924 136.545C86.8372 136.384 87.1519 136.4 87.1479 136.371Z" fill="#263238"/>
<path d="M78.5443 127.869C78.5443 127.869 78.5443 127.945 78.6008 128.095C78.6573 128.244 78.7017 128.474 78.7824 128.768L79.5048 131.375C80.1465 133.664 81.0827 137.025 82.2772 141.263V141.287H82.3014C84.3286 142.235 86.2007 143.484 87.8544 144.991C88.7901 145.837 89.6552 146.757 90.4412 147.744C91.2767 148.804 92.0321 149.925 92.7011 151.097C94.1385 153.677 95.2243 156.438 95.9295 159.306C96.7421 162.459 97.1623 165.702 97.1805 168.959V169.055H97.2734H137.758L189.978 169.035H190.055V168.963C191.399 158.276 192.206 149.479 192.718 143.325C192.969 140.258 193.122 137.861 193.251 136.23C193.304 135.423 193.344 134.794 193.372 134.37C193.4 133.946 193.417 133.74 193.417 133.74C193.417 133.74 193.392 133.954 193.36 134.374C193.328 134.794 193.275 135.419 193.215 136.23C193.082 137.844 192.884 140.266 192.634 143.321C192.105 149.451 191.253 158.252 189.926 168.963L190.006 168.89H137.786H97.3016L97.3944 168.987C97.3709 165.719 96.9453 162.466 96.1273 159.301C95.4068 156.42 94.3048 153.647 92.8504 151.057C92.1761 149.878 91.4139 148.752 90.5703 147.687C89.7775 146.698 88.9056 145.775 87.9633 144.927C86.2949 143.417 84.4078 142.168 82.366 141.222L82.3983 141.259L79.5734 131.388C79.2465 130.254 78.9963 129.37 78.8228 128.785C78.738 128.494 78.6735 128.272 78.625 128.119C78.5766 127.965 78.5443 127.869 78.5443 127.869Z" fill="#263238"/>
<path d="M136.741 129.915C136.737 129.948 136.737 129.982 136.741 130.015C136.741 130.092 136.761 130.189 136.773 130.31C136.806 130.584 136.854 130.964 136.915 131.44C136.975 131.916 137.056 132.534 137.128 133.232C137.201 133.93 137.302 134.725 137.375 135.609C137.447 136.493 137.54 137.453 137.601 138.49C137.661 139.527 137.722 140.641 137.778 141.807C137.855 144.144 137.875 146.719 137.778 149.414C137.681 152.11 137.488 154.681 137.249 157.005C137.12 158.167 137.003 159.273 136.846 160.302C136.689 161.331 136.563 162.292 136.422 163.168C136.281 164.043 136.136 164.826 136.019 165.52C135.902 166.214 135.785 166.808 135.684 167.292C135.583 167.776 135.522 168.139 135.47 168.41L135.417 168.704C135.412 168.738 135.412 168.772 135.417 168.805C135.434 168.775 135.444 168.742 135.45 168.708C135.471 168.633 135.495 168.536 135.522 168.418C135.583 168.147 135.668 167.776 135.777 167.308C135.885 166.84 136.019 166.235 136.148 165.54C136.277 164.846 136.446 164.067 136.584 163.192C136.721 162.316 136.894 161.36 137.032 160.327C137.169 159.293 137.314 158.192 137.435 157.025C137.681 154.697 137.883 152.126 137.98 149.422C138.077 146.719 138.036 144.144 137.952 141.799C137.891 140.629 137.843 139.519 137.754 138.478C137.665 137.437 137.593 136.46 137.5 135.593C137.407 134.725 137.31 133.918 137.225 133.22C137.141 132.522 137.052 131.92 136.975 131.432C136.898 130.944 136.838 130.576 136.793 130.306L136.741 130.011C136.746 129.979 136.746 129.947 136.741 129.915Z" fill="#263238"/>
<path d="M192.928 128.764C194.22 129.733 196.157 129.975 197.731 129.648C199.304 129.321 200.555 128.591 201.363 127.191L197.811 127.033L192.928 128.764Z" fill="#263238"/>
<path d="M197.819 127.033C197.819 127.033 194.236 129.216 193.195 128.918C192.154 128.619 175.438 115.415 165.37 110.318C166.355 109.952 167.385 109.719 168.433 109.624C168.433 109.624 173.122 111.997 178.973 115.516C183.413 118.195 187.953 121.004 190.071 122.295L197.819 127.033Z" fill="#455A64"/>
<path d="M186.358 129.834L186.475 129.906L186.826 130.112L188.198 130.891L193.372 133.793C196.6 133.676 200.777 133.591 205.551 133.793C207.936 133.898 210.47 134.067 213.11 134.338C215.749 134.608 218.497 134.983 221.31 135.431C226.237 136.198 230.882 137.171 235.136 137.949C238.905 138.636 242.712 139.093 246.536 139.317C249.801 139.503 252.452 139.455 254.276 139.402C255.192 139.374 255.891 139.338 256.379 139.309L256.928 139.273C256.99 139.276 257.052 139.276 257.113 139.273C257.113 139.273 257.049 139.273 256.924 139.273H256.379C255.899 139.273 255.168 139.313 254.276 139.33C252.448 139.358 249.805 139.382 246.544 139.176C242.741 138.933 238.956 138.466 235.208 137.776C230.963 136.969 226.31 136.008 221.379 135.237C218.554 134.79 215.814 134.43 213.166 134.148C210.519 133.865 207.98 133.716 205.591 133.623C200.813 133.438 196.645 133.547 193.4 133.684H193.436L188.23 130.859L186.842 130.108L186.483 129.919C186.446 129.885 186.403 129.856 186.358 129.834Z" fill="#263238"/>
<path d="M182.552 130.25C157.177 129.116 105.99 128.171 80.6142 127.021C80.6142 127.021 79.7789 124.233 82.1679 122.489C83.0356 121.856 88.306 117.868 94.4602 115.524C102.008 112.707 109.884 110.866 117.899 110.048C122.419 109.68 130.687 109.345 130.687 109.345C130.687 109.345 145.825 109.951 150.058 110.33C155.382 110.772 160.579 112.187 165.393 114.503C170.66 117.142 179.865 124.862 179.865 124.862L186.322 130.262L182.552 130.25Z" fill="#455A64"/>
<path d="M135.853 108.615L140.752 129.555L131.87 129.273L130.102 108.615H135.853Z" fill="#263238"/>
<path d="M97.459 113.684L98.3226 127.873H97.0878L96.2524 114.128L97.459 113.684Z" fill="#263238"/>
<path d="M181.592 125.447C181.189 125.968 178.949 131.036 178.949 131.036L187.52 130.476L181.592 125.447Z" fill="#263238"/>
<path d="M173.553 130.532L180.099 130.714C180.958 130.714 181.636 129.172 181.608 127.296C181.584 125.617 181.003 124.2 180.236 123.954L174.033 121.989L173.553 130.532Z" fill="#7467F0"/>
<path d="M133.073 108.377C133.017 108.377 133.711 113.155 134.619 119.035C135.527 124.915 136.318 129.672 136.374 129.66C136.431 129.648 135.741 124.882 134.828 119.002C133.916 113.123 133.134 108.365 133.073 108.377Z" fill="#455A64"/>
<path d="M181.338 125.136C181.558 125.902 181.896 126.629 182.339 127.291C182.722 127.99 183.214 128.624 183.796 129.168C183.844 129.128 183.19 128.296 182.516 127.183C181.842 126.069 181.394 125.112 181.338 125.136Z" fill="#455A64"/>
<path d="M145.119 112.424C145.145 112.484 145.177 112.541 145.216 112.594L145.518 113.066C145.805 113.502 146.192 114.083 146.66 114.785C147.633 116.234 148.969 118.236 150.426 120.463C151.882 122.691 153.178 124.717 154.114 126.186L155.232 127.921C155.353 128.111 155.458 128.264 155.543 128.389C155.575 128.446 155.614 128.499 155.66 128.547C155.66 128.547 155.639 128.482 155.579 128.369L155.3 127.881C155.054 127.457 154.695 126.852 154.243 126.109C153.335 124.616 152.056 122.574 150.611 120.346C149.166 118.119 147.786 116.129 146.798 114.696C146.297 113.986 145.886 113.409 145.587 113.018C145.45 112.84 145.341 112.691 145.248 112.566C145.155 112.441 145.127 112.42 145.119 112.424Z" fill="#EBEBEB"/>
<path d="M148.844 115.58C149.451 116.611 150.118 117.605 150.841 118.559C151.505 119.554 152.229 120.508 153.008 121.416C152.4 120.385 151.733 119.391 151.011 118.437C150.346 117.443 149.622 116.489 148.844 115.58Z" fill="#EBEBEB"/>
<path d="M20.0286 141.468C20.0286 141.468 22.1352 141.602 23.7252 140.92C24.3284 140.665 24.8742 140.292 25.3302 139.823C25.7861 139.353 26.1427 138.796 26.3789 138.186C26.615 137.575 26.7258 136.924 26.7046 136.269C26.6834 135.615 26.5307 134.972 26.2555 134.378L26.2313 134.329C25.8669 133.573 25.3007 132.931 24.5951 132.475C23.8895 132.02 23.0718 131.768 22.2321 131.747H21.3523C21.0263 132.402 20.8316 133.115 20.7793 133.845C20.5412 135.758 20.182 138.692 20.0286 141.468Z" fill="#F5F5F5"/>
<path d="M113.246 113.102C113.197 113.135 115.135 116.27 117.572 120.108C120.01 123.946 122.011 127.029 122.076 126.997C122.14 126.965 120.191 123.833 117.75 119.995C115.308 116.157 113.294 113.07 113.246 113.102Z" fill="#EBEBEB"/>
<path d="M113.916 117.061C114.336 117.903 114.819 118.713 115.36 119.483C115.84 120.295 116.379 121.071 116.975 121.803C116.552 120.962 116.067 120.152 115.526 119.382C115.047 118.569 114.509 117.794 113.916 117.061Z" fill="#EBEBEB"/>
<path d="M175.051 123.203C176.645 123.958 178.349 124.455 180.099 124.676C180.099 124.616 178.969 124.346 177.581 123.938C176.193 123.53 175.071 123.147 175.051 123.203Z" fill="#EBEBEB"/>
<path d="M139.921 132.07C139.921 132.13 150.571 132.175 163.703 132.175C176.834 132.175 187.488 132.13 187.488 132.07C187.488 132.009 176.842 131.965 163.703 131.965C150.563 131.965 139.921 132.013 139.921 132.07Z" fill="#EBEBEB"/>
<path d="M143.416 136.299C144.565 136.405 145.718 136.44 146.871 136.404C148.025 136.44 149.18 136.405 150.329 136.299C149.18 136.195 148.025 136.16 146.871 136.194C145.718 136.16 144.565 136.195 143.416 136.299Z" fill="#EBEBEB"/>
<path d="M220.745 141.093C220.834 141.102 220.923 141.102 221.012 141.093C221.185 141.093 221.439 141.093 221.766 141.093C222.689 141.094 223.611 141.15 224.527 141.263C227.558 141.623 230.475 142.633 233.081 144.224C235.686 145.815 237.918 147.948 239.624 150.48C240.143 151.242 240.614 152.036 241.036 152.857C241.193 153.147 241.294 153.377 241.375 153.531C241.408 153.613 241.451 153.69 241.504 153.761C241.48 153.676 241.449 153.594 241.411 153.515C241.343 153.357 241.254 153.111 241.109 152.82C240.714 151.982 240.259 151.173 239.749 150.399C238.061 147.821 235.822 145.65 233.192 144.045C230.561 142.439 227.607 141.439 224.543 141.117C223.62 141.014 222.69 140.979 221.762 141.012C221.435 141.012 221.181 141.049 221.008 141.061C220.919 141.061 220.831 141.072 220.745 141.093Z" fill="#EBEBEB"/>
<path d="M99.1053 130.952C99.1053 131.008 106.155 131.057 114.844 131.057C123.533 131.057 130.583 131.008 130.583 130.952C130.583 130.895 123.537 130.847 114.844 130.847C106.151 130.847 99.1053 130.891 99.1053 130.952Z" fill="#EBEBEB"/>
<path d="M85.2955 135.681C85.6742 135.714 86.0549 135.714 86.4336 135.681C87.1358 135.681 88.1043 135.645 89.1737 135.637C90.2431 135.629 91.2117 135.637 91.9139 135.637C92.2931 135.664 92.6739 135.657 93.0519 135.617C92.6791 135.536 92.2992 135.493 91.9179 135.488C91.2157 135.443 90.2472 135.407 89.1737 135.411C88.1003 135.415 87.1277 135.463 86.4255 135.52C86.0443 135.534 85.6655 135.588 85.2955 135.681Z" fill="#EBEBEB"/>
<path d="M9.5959 159.164C9.07244 159.426 8.60715 159.791 8.22787 160.237C7.84859 160.683 7.56311 161.201 7.38846 161.759C7.04867 162.881 6.96862 164.065 7.1544 165.222C7.45303 167.461 8.76861 169.701 10.177 171.469C12.0334 169.786 12.4168 166.9 12.5176 165.415C12.675 163.087 11.5491 158.773 9.5959 159.156" fill="#8378F3" fill-opacity="0.2"/>
<path d="M8.05034 175.222C8.16727 174.578 8.11163 173.915 7.88906 173.3C7.66648 172.684 7.28493 172.139 6.7832 171.719C6.27802 171.311 5.697 171.006 5.07365 170.823C4.4503 170.64 3.79694 170.583 3.15119 170.654C2.84891 170.654 2.55051 170.722 2.27714 170.851C2.00376 170.98 1.76208 171.167 1.56924 171.4C1.42391 171.644 1.34719 171.923 1.34719 172.207C1.34719 172.491 1.42391 172.77 1.56924 173.014C1.86389 173.498 2.28167 173.895 2.77991 174.164C4.43448 175.161 6.22225 175.823 8.06246 175.23" fill="#8378F3" fill-opacity="0.2"/>
<path d="M10.6045 182.058C10.5947 181.903 10.5704 181.749 10.5319 181.598C10.4633 181.275 10.3785 180.855 10.2776 180.355C10.0411 178.972 9.58184 177.636 8.91763 176.4C8.22714 175.166 7.22174 174.137 6.00395 173.418C5.63394 173.207 5.2396 173.041 4.82961 172.926C4.71859 172.891 4.60532 172.864 4.49061 172.845C4.41394 172.845 4.37359 172.845 4.37359 172.845C4.92024 173.019 5.44762 173.249 5.94747 173.531C7.12367 174.264 8.0954 175.283 8.77236 176.493C9.42398 177.717 9.89174 179.031 10.1606 180.391C10.2857 180.912 10.3866 181.336 10.4633 181.622C10.4988 181.771 10.546 181.917 10.6045 182.058Z" fill="#263238"/>
<path d="M10.1654 162.534C10.1569 162.601 10.1569 162.669 10.1654 162.736C10.1654 162.885 10.1654 163.075 10.1412 163.313C10.1412 163.817 10.1089 164.544 10.0968 165.444C10.0726 167.243 10.0726 169.729 10.1371 172.474C10.2017 175.218 10.3147 177.7 10.4196 179.499C10.4761 180.395 10.5246 181.114 10.5649 181.622C10.5649 181.86 10.6012 182.05 10.6174 182.199C10.6174 182.268 10.6269 182.335 10.6456 182.401C10.65 182.334 10.65 182.266 10.6456 182.199C10.6456 182.05 10.6456 181.856 10.6456 181.618C10.6214 181.098 10.5931 180.375 10.5528 179.491C10.4761 177.696 10.3793 175.214 10.3147 172.47C10.2501 169.725 10.234 167.223 10.23 165.444C10.23 164.56 10.23 163.829 10.23 163.313C10.23 163.075 10.23 162.885 10.23 162.736C10.214 162.667 10.1924 162.599 10.1654 162.534Z" fill="#263238"/>
<path d="M11.3435 176.517C11.5449 175.151 12.0691 173.853 12.8727 172.73C13.6763 171.607 14.7361 170.692 15.9642 170.06C16.5897 169.746 17.4089 169.536 17.9376 169.992C18.4662 170.448 18.3653 171.299 18.1232 171.957C17.5943 173.323 16.6727 174.501 15.4747 175.344C14.2767 176.186 12.856 176.655 11.3919 176.691" fill="#8378F3" fill-opacity="0.2"/>
<path d="M15.6981 172.215C15.5581 172.263 15.423 172.324 15.2946 172.397C15.1412 172.473 14.9917 172.556 14.8467 172.647C14.6812 172.756 14.4754 172.865 14.2776 173.018C14.0515 173.177 13.8346 173.348 13.6279 173.531C13.385 173.733 13.1546 173.95 12.9378 174.181C11.925 175.233 11.1876 176.52 10.7909 177.926C10.7074 178.23 10.64 178.538 10.5891 178.85C10.5399 179.117 10.5076 179.386 10.4923 179.657C10.4722 179.882 10.4654 180.109 10.4721 180.335C10.4705 180.506 10.4786 180.677 10.4963 180.847C10.4994 180.994 10.5184 181.14 10.5528 181.283C10.5891 181.283 10.5125 180.658 10.6053 179.669C10.6293 179.398 10.6684 179.129 10.7223 178.862C10.7776 178.556 10.849 178.253 10.9362 177.954C11.1441 177.27 11.4256 176.611 11.7756 175.989C12.137 175.373 12.5631 174.798 13.0468 174.273C13.2578 174.043 13.4815 173.825 13.7167 173.62C13.9178 173.437 14.1279 173.265 14.3462 173.103C15.1493 172.518 15.7143 172.248 15.6981 172.215Z" fill="#263238"/>
</svg>
