<svg width="73" height="72" viewBox="0 0 73 72" fill="none" xmlns="http://www.w3.org/2000/svg">
<path d="M39.8916 32.599C39.449 32.2972 39.1055 31.8715 38.9039 31.3752C38.7024 30.8789 38.6519 30.3341 38.7588 29.8093C38.8656 29.2844 39.1251 28.8027 39.5046 28.4247C39.8841 28.0467 40.3667 27.7892 40.892 27.6844C41.4173 27.5796 41.9618 27.6322 42.4573 27.8357C42.9528 28.0392 43.3772 28.3844 43.6773 28.8281C43.9773 29.2719 44.1397 29.7943 44.144 30.3299C44.1483 30.8655 43.9944 31.3905 43.7015 31.839C43.5037 32.1419 43.2475 32.4023 42.9478 32.605C42.6481 32.8077 42.311 32.9485 41.9562 33.0193C41.6014 33.0901 41.236 33.0893 40.8815 33.0172C40.527 32.945 40.1904 32.8028 39.8916 32.599Z" fill="#FCFCFC"/>
<path d="M6.05182 8.39899C5.29603 7.89866 4.70571 7.18532 4.35556 6.34929C4.00541 5.51327 3.91119 4.59215 4.08484 3.70255C4.25849 2.81294 4.69221 1.99487 5.33105 1.35189C5.9699 0.708919 6.78515 0.269958 7.67361 0.0905838C8.56208 -0.0887907 9.48379 -0.000510663 10.3221 0.344246C11.1603 0.689003 11.8774 1.27473 12.3826 2.02728C12.8878 2.77983 13.1584 3.66535 13.16 4.57174C13.1616 5.47813 12.8943 6.36463 12.3918 7.11899C12.0599 7.61969 11.6325 8.05003 11.1341 8.3854C10.6357 8.72077 10.076 8.95459 9.48718 9.07347C8.89833 9.19236 8.29184 9.19398 7.70236 9.07825C7.11288 8.96251 6.55201 8.73169 6.05182 8.39899Z" fill="#EDF1F6"/>
<g opacity="0.31">
<path opacity="0.31" d="M72.7014 8.11895C72.4651 9.46512 71.835 10.711 70.8907 11.699C69.9464 12.6871 68.7302 13.3729 67.3961 13.6697C66.062 13.9665 64.6698 13.8611 63.3956 13.3667C62.1214 12.8722 61.0225 12.011 60.2378 10.892C59.4531 9.773 59.0178 8.4464 58.9871 7.08C58.9564 5.71361 59.3315 4.36878 60.0652 3.21562C60.7988 2.06245 61.8579 1.15274 63.1086 0.601531C64.3592 0.0503237 65.7453 -0.117616 67.0914 0.118945C68.8961 0.436094 70.5009 1.45705 71.5529 2.95728C72.605 4.45752 73.0181 6.31418 72.7014 8.11895Z" fill="#FCFCFC"/>
<path opacity="0.31" d="M12.3564 66.952C12.0278 68.1516 11.3509 69.2268 10.4113 70.0418C9.47162 70.8567 8.31146 71.3748 7.07745 71.5305C5.84344 71.6862 4.59095 71.4726 3.47833 70.9166C2.36571 70.3606 1.44291 69.4873 0.826566 68.4069C0.210222 67.3266 -0.0719738 66.0877 0.0156219 64.847C0.103218 63.6063 0.55667 62.4194 1.31869 61.4364C2.08071 60.4534 3.11708 59.7183 4.29678 59.3242C5.47648 58.93 6.74654 58.8945 7.94644 59.222C9.55525 59.6639 10.9231 60.726 11.7498 62.1752C12.5766 63.6243 12.7947 65.3422 12.3564 66.952Z" fill="#FCFCFC"/>
</g>
</svg>
