<svg width="376" height="369" viewBox="0 0 376 369" fill="none" xmlns="http://www.w3.org/2000/svg">
<rect width="376" height="369" rx="24" fill="#7467F0"/>
<path d="M207.276 268.7C213.676 268.7 219.276 265.55 222.276 260.6L215.376 256.6C213.876 259.3 210.826 260.9 207.276 260.9C201.076 260.9 197.076 256.75 197.076 250.5C197.076 244.25 201.076 240.1 207.276 240.1C210.826 240.1 213.826 241.7 215.376 244.4L222.276 240.4C219.226 235.45 213.626 232.3 207.276 232.3C196.726 232.3 189.076 240.2 189.076 250.5C189.076 260.8 196.726 268.7 207.276 268.7ZM240.914 242.3C237.614 242.3 235.114 243.5 233.764 245.35V233H226.264V268H233.764V254.35C233.764 250.8 235.664 249.2 238.414 249.2C240.814 249.2 242.764 250.65 242.764 253.75V268H250.264V252.65C250.264 245.9 245.964 242.3 240.914 242.3ZM262.114 258.5H279.864C280.064 257.55 280.164 256.55 280.164 255.5C280.164 247.95 274.764 242.3 267.464 242.3C259.564 242.3 254.164 248.05 254.164 255.5C254.164 262.95 259.464 268.7 268.014 268.7C272.764 268.7 276.464 266.95 278.914 263.55L272.914 260.1C271.914 261.2 270.164 262 268.114 262C265.364 262 263.064 261.1 262.114 258.5ZM261.964 252.9C262.664 250.35 264.564 248.95 267.414 248.95C269.664 248.95 271.914 250 272.714 252.9H261.964ZM296.174 268.7C301.074 268.7 305.324 266.15 307.474 262.25L300.924 258.5C300.124 260.25 298.274 261.3 296.074 261.3C292.824 261.3 290.424 258.95 290.424 255.5C290.424 252.05 292.824 249.7 296.074 249.7C298.274 249.7 300.074 250.75 300.924 252.5L307.474 248.7C305.324 244.85 301.024 242.3 296.174 242.3C288.574 242.3 282.924 248.05 282.924 255.5C282.924 262.95 288.574 268.7 296.174 268.7ZM334.492 268L325.142 255.5L334.242 243H325.492L317.992 253.95V233H310.492V268H317.992V256.95L325.992 268H334.492ZM63.2539 314L58.5539 329.3L53.0039 314H44.7539L54.7039 337.85C53.6039 340.9 51.9539 342 48.4539 342V349C55.4539 349.35 59.9039 346.2 62.7039 338.25L71.2539 314H63.2539ZM85.041 339.7C92.391 339.7 98.291 333.95 98.291 326.5C98.291 319.05 92.391 313.3 85.041 313.3C77.691 313.3 71.791 319.05 71.791 326.5C71.791 333.95 77.691 339.7 85.041 339.7ZM85.041 332.4C81.791 332.4 79.291 330.05 79.291 326.5C79.291 322.95 81.791 320.6 85.041 320.6C88.291 320.6 90.791 322.95 90.791 326.5C90.791 330.05 88.291 332.4 85.041 332.4ZM118.683 314V327.65C118.683 331.2 116.783 332.8 114.033 332.8C111.633 332.8 109.683 331.35 109.683 328.25V314H102.183V329.35C102.183 336.1 106.483 339.7 111.533 339.7C114.833 339.7 117.333 338.5 118.683 336.65V339H126.183V314H118.683ZM139.184 318.45V314H131.684V339H139.184V327.7C139.184 322.75 143.584 321.5 146.684 322V313.5C143.534 313.5 140.184 315.1 139.184 318.45ZM170.189 318.45V314H162.689V339H170.189V327.7C170.189 322.75 174.589 321.5 177.689 322V313.5C174.539 313.5 171.189 315.1 170.189 318.45ZM187.163 329.5H204.913C205.113 328.55 205.213 327.55 205.213 326.5C205.213 318.95 199.813 313.3 192.513 313.3C184.613 313.3 179.213 319.05 179.213 326.5C179.213 333.95 184.513 339.7 193.063 339.7C197.813 339.7 201.513 337.95 203.963 334.55L197.963 331.1C196.963 332.2 195.213 333 193.163 333C190.413 333 188.113 332.1 187.163 329.5ZM187.013 323.9C187.713 321.35 189.613 319.95 192.463 319.95C194.713 319.95 196.963 321 197.763 323.9H187.013ZM221.223 339.7C226.123 339.7 230.373 337.15 232.523 333.25L225.973 329.5C225.173 331.25 223.323 332.3 221.123 332.3C217.873 332.3 215.473 329.95 215.473 326.5C215.473 323.05 217.873 320.7 221.123 320.7C223.323 320.7 225.123 321.75 225.973 323.5L232.523 319.7C230.373 315.85 226.073 313.3 221.223 313.3C213.623 313.3 207.973 319.05 207.973 326.5C207.973 333.95 213.623 339.7 221.223 339.7ZM241.753 329.5H259.503C259.703 328.55 259.803 327.55 259.803 326.5C259.803 318.95 254.403 313.3 247.103 313.3C239.203 313.3 233.803 319.05 233.803 326.5C233.803 333.95 239.103 339.7 247.653 339.7C252.403 339.7 256.103 337.95 258.553 334.55L252.553 331.1C251.553 332.2 249.803 333 247.753 333C245.003 333 242.703 332.1 241.753 329.5ZM241.603 323.9C242.303 321.35 244.203 319.95 247.053 319.95C249.303 319.95 251.553 321 252.353 323.9H241.603ZM267.807 311.8C270.257 311.8 272.307 309.75 272.307 307.3C272.307 304.85 270.257 302.8 267.807 302.8C265.357 302.8 263.307 304.85 263.307 307.3C263.307 309.75 265.357 311.8 267.807 311.8ZM264.057 339H271.557V314H264.057V339ZM291.995 313.3C288.645 313.3 286.195 314.45 284.545 316.35V314H277.045V349H284.545V336.65C286.195 338.55 288.645 339.7 291.995 339.7C298.545 339.7 303.945 333.95 303.945 326.5C303.945 319.05 298.545 313.3 291.995 313.3ZM290.495 332.6C287.045 332.6 284.545 330.25 284.545 326.5C284.545 322.75 287.045 320.4 290.495 320.4C293.945 320.4 296.445 322.75 296.445 326.5C296.445 330.25 293.945 332.6 290.495 332.6ZM322.359 321.2V314H317.209V307L309.709 309.25V314H305.709V321.2H309.709V330.05C309.709 337.05 312.559 340 322.359 339V332.2C319.059 332.4 317.209 332.2 317.209 330.05V321.2H322.359ZM333.461 321.3C333.461 320.4 334.261 319.9 335.561 319.9C337.211 319.9 338.211 320.8 338.911 322.1L345.311 318.65C343.211 315.1 339.611 313.3 335.561 313.3C330.361 313.3 325.761 316.05 325.761 321.5C325.761 330.15 338.061 328.7 338.061 331.45C338.061 332.45 337.161 333 335.361 333C333.161 333 331.761 331.95 331.111 330.05L324.611 333.75C326.561 337.8 330.361 339.7 335.361 339.7C340.761 339.7 345.761 337.25 345.761 331.5C345.761 322.25 333.461 324.15 333.461 321.3Z" fill="#FCFCFC"/>
<path opacity="0.5" d="M135.826 231.29L288.04 135.595L226.032 96.693L129.523 163.918L85.7324 218.492L135.826 231.29Z" fill="#0F054C"/>
<path opacity="0.5" d="M214.063 86.9793C215.733 82.2074 204.473 73.9241 188.913 68.4781C173.353 63.032 159.385 62.4855 157.715 67.2574C156.044 72.0292 167.304 80.3125 182.865 85.7586C198.425 91.2046 212.393 91.7511 214.063 86.9793Z" fill="#0F054C"/>
<path d="M197.111 49.8925L196.918 44.9816L195.775 42.1075L195.051 44.4837L197.111 49.8925Z" fill="#DD821F"/>
<path d="M145.569 50.8316L145.41 46.0112C145.41 46.0112 149.484 50.0735 149.495 50.1753C149.506 50.2772 145.569 50.8316 145.569 50.8316Z" fill="#FFD85A"/>
<path d="M171.695 65.123C185.919 64.7835 197.212 57.5416 196.918 44.9815C196.623 32.4214 184.833 22.5092 170.598 22.8486C156.363 23.1881 145.082 33.6548 145.41 46.2036C145.738 58.7524 157.461 65.4398 171.695 65.123Z" fill="#FFD85A"/>
<path d="M171.92 74.1545C186.156 73.8698 197.493 63.4511 197.241 50.8837C196.99 38.3163 185.246 28.3592 171.01 28.644C156.774 28.9287 145.437 39.3474 145.689 51.9148C145.94 64.4821 157.684 74.4392 171.92 74.1545Z" fill="#FFD85A"/>
<path d="M189.325 34.1188C191.666 36.0467 193.57 38.4499 194.913 41.1692C196.255 43.8885 197.004 46.8619 197.11 49.8925C197.461 62.4526 186.146 72.908 171.888 73.2588C165.279 73.4782 158.811 71.3089 153.67 67.1485L189.325 34.1188Z" fill="#DD821F"/>
<path d="M171.865 72.2452C185.46 71.9201 196.248 61.9274 195.961 49.9259C195.674 37.9243 184.42 28.4587 170.826 28.7839C157.231 29.109 146.443 39.1017 146.73 51.1032C147.017 63.1048 158.27 72.5703 171.865 72.2452Z" fill="#F9BF30"/>
<path d="M171.763 67.9579C182.678 67.6969 191.339 59.6756 191.108 50.0419C190.878 40.4082 181.843 32.8101 170.929 33.0712C160.014 33.3322 151.353 41.3535 151.584 50.9872C151.814 60.6209 160.849 68.2189 171.763 67.9579Z" fill="#F2B42A"/>
<path d="M151.576 50.9787C151.576 50.5827 151.576 50.1866 151.576 49.7906C152.493 58.8429 161.217 65.8358 171.684 65.6322C182.15 65.4285 190.524 58.0056 190.999 48.908C190.999 49.304 191.067 49.6888 191.078 50.0961C191.316 59.7255 182.648 67.7481 171.74 68.0084C160.832 68.2686 151.814 60.6194 151.576 50.9787Z" fill="#FFD85A"/>
<path d="M167.554 51.9745L171.605 48.2291C175.508 49.1117 182.784 50.7637 188.578 52.1329C187.779 54.3618 186.511 56.3932 184.86 58.0897C183.208 59.7861 181.212 61.1081 179.005 61.966L167.554 51.9745Z" fill="#FFD85A"/>
<path d="M173.925 63.3012C173.291 63.3804 172.635 63.4257 171.967 63.4483C167.483 63.5988 163.092 62.151 159.577 59.3634L166.196 53.2305L173.925 63.3012Z" fill="#FFD85A"/>
<path d="M175.962 44.2008L183.589 37.1513C186.157 39.4144 188.454 41.8585 189.065 45.174L175.962 44.2008Z" fill="#FFD85A"/>
<path d="M171.956 35.1485C161.048 35.4087 152.381 43.4314 152.618 53.0721C152.658 54.977 153.042 56.8591 153.75 58.628C152.355 56.313 151.576 53.6798 151.487 50.9787C151.26 41.3493 159.917 33.3267 170.836 33.0665C179.538 32.8515 187.04 37.6492 189.846 44.4837C186.576 38.7807 179.741 34.9674 171.956 35.1485Z" fill="#DD821F"/>
<path d="M196.918 44.9816C197.089 46.6395 197.013 48.3135 196.692 49.949C196.126 48.1159 194.893 42.594 194.893 42.594L192.935 38.215L191.294 36.8684L188.533 34.8882L188.307 28.5742C190.875 30.494 192.981 32.9637 194.471 35.8026C195.961 38.6415 196.797 41.7777 196.918 44.9816Z" fill="#DD821F"/>
<path d="M147.05 44.3366L146.937 43.0466C146.939 43.0041 146.932 42.9617 146.916 42.9219C146.901 42.8822 146.878 42.8459 146.849 42.8153C146.819 42.7846 146.784 42.7603 146.744 42.7436C146.705 42.727 146.663 42.7185 146.62 42.7185H146.541C146.499 42.7199 146.457 42.7299 146.418 42.7479C146.379 42.7659 146.345 42.7915 146.316 42.8232C146.288 42.8549 146.266 42.892 146.252 42.9324C146.238 42.9727 146.233 43.0154 146.236 43.058L146.338 44.3592C146.34 44.4454 146.376 44.5272 146.437 44.5881C146.498 44.6491 146.58 44.6845 146.666 44.6874H146.768C146.851 44.6761 146.926 44.6334 146.979 44.5682C147.031 44.503 147.057 44.4201 147.05 44.3366Z" fill="#DD821F"/>
<path d="M149.314 39.4144L149.178 37.0834C149.178 36.9844 149.139 36.8894 149.069 36.8194C148.999 36.7494 148.904 36.71 148.805 36.71H148.59C148.541 36.7129 148.493 36.7254 148.448 36.7469C148.404 36.7684 148.365 36.7984 148.332 36.8352C148.3 36.872 148.275 36.9149 148.259 36.9613C148.243 37.0078 148.236 37.057 148.239 37.1061L148.363 39.437C148.366 39.5352 148.407 39.6285 148.476 39.6979C148.545 39.7673 148.639 39.8076 148.737 39.8104H148.963C149.012 39.8076 149.06 39.795 149.104 39.7735C149.149 39.7521 149.188 39.7221 149.221 39.6853C149.253 39.6485 149.278 39.6056 149.294 39.5591C149.31 39.5126 149.317 39.4635 149.314 39.4144Z" fill="#DD821F"/>
<path d="M152.448 35.0466L152.324 32.7835C152.324 32.6725 152.28 32.566 152.201 32.4875C152.123 32.409 152.016 32.3649 151.905 32.3649H151.509C151.454 32.3678 151.4 32.3815 151.35 32.4052C151.301 32.429 151.256 32.4623 151.219 32.5033C151.183 32.5443 151.154 32.5922 151.136 32.6441C151.118 32.6961 151.11 32.7512 151.113 32.8062L151.249 35.0692C151.246 35.1241 151.254 35.179 151.273 35.2305C151.292 35.2819 151.322 35.3289 151.36 35.3682C151.399 35.4076 151.445 35.4386 151.496 35.4592C151.547 35.4798 151.601 35.4896 151.656 35.4879H152.052C152.108 35.4866 152.162 35.4739 152.213 35.4506C152.263 35.4274 152.308 35.3941 152.345 35.3528C152.382 35.3114 152.411 35.263 152.428 35.2103C152.446 35.1577 152.453 35.102 152.448 35.0466Z" fill="#DD821F"/>
<path d="M157.144 31.5615L157.008 28.8231C157.008 28.7121 156.964 28.6056 156.885 28.5271C156.807 28.4486 156.7 28.4045 156.589 28.4045H156.193C156.081 28.4132 155.977 28.4654 155.903 28.55C155.829 28.6346 155.791 28.7449 155.797 28.8571L155.944 31.5841C155.944 31.6943 155.986 31.8004 156.062 31.8804C156.138 31.9604 156.241 32.0083 156.352 32.0141H156.725C156.783 32.0143 156.84 32.0024 156.893 31.9793C156.947 31.9562 156.994 31.9223 157.034 31.8797C157.073 31.8372 157.103 31.7869 157.122 31.7321C157.141 31.6774 157.148 31.6192 157.144 31.5615Z" fill="#DD821F"/>
<path d="M161.874 29.2305L161.727 26.0735C161.724 25.9634 161.679 25.8585 161.601 25.7806C161.523 25.7027 161.418 25.6577 161.308 25.6548H160.912C160.857 25.6562 160.802 25.6689 160.751 25.6921C160.701 25.7154 160.656 25.7487 160.619 25.79C160.582 25.8313 160.553 25.8798 160.536 25.9325C160.518 25.9851 160.511 26.0408 160.516 26.0961L160.663 29.2418C160.663 29.3539 160.707 29.4616 160.785 29.5419C160.863 29.6223 160.97 29.6689 161.082 29.6718H161.478C161.533 29.6689 161.587 29.6552 161.636 29.6314C161.686 29.6077 161.731 29.5744 161.767 29.5334C161.804 29.4924 161.833 29.4445 161.851 29.3925C161.869 29.3406 161.877 29.2855 161.874 29.2305Z" fill="#DD821F"/>
<path d="M166.626 27.8614L166.468 24.8402C166.468 24.7299 166.426 24.6239 166.35 24.5439C166.274 24.4638 166.17 24.416 166.06 24.4102H165.664C165.609 24.4131 165.555 24.4268 165.506 24.4506C165.456 24.4743 165.411 24.5076 165.375 24.5486C165.338 24.5896 165.31 24.6375 165.291 24.6895C165.273 24.7414 165.265 24.7965 165.268 24.8515L165.415 27.884C165.415 27.9951 165.459 28.1015 165.538 28.1801C165.616 28.2586 165.723 28.3027 165.834 28.3027H166.23C166.285 28.2998 166.339 28.2861 166.389 28.2623C166.438 28.2386 166.483 28.2052 166.52 28.1642C166.556 28.1232 166.585 28.0754 166.603 28.0234C166.621 27.9714 166.629 27.9164 166.626 27.8614Z" fill="#DD821F"/>
<path d="M171.435 27.3861L171.288 24.3083C171.288 24.1973 171.244 24.0908 171.165 24.0123C171.087 23.9338 170.98 23.8896 170.869 23.8896H170.473C170.418 23.8925 170.364 23.9063 170.315 23.93C170.265 23.9538 170.221 23.9871 170.184 24.0281C170.147 24.0691 170.119 24.117 170.1 24.1689C170.082 24.2209 170.074 24.2759 170.077 24.3309L170.236 27.4087C170.236 27.5178 170.278 27.6227 170.354 27.7009C170.43 27.7791 170.534 27.8245 170.643 27.8274H171.039C171.095 27.8261 171.149 27.8134 171.2 27.7901C171.25 27.7669 171.295 27.7336 171.332 27.6923C171.369 27.6509 171.398 27.6024 171.415 27.5498C171.433 27.4972 171.44 27.4414 171.435 27.3861Z" fill="#DD821F"/>
<path d="M176.176 27.488L176.029 24.6025C176.029 24.5476 176.018 24.4931 175.997 24.4423C175.976 24.3915 175.945 24.3454 175.906 24.3065C175.868 24.2676 175.821 24.2368 175.771 24.2157C175.72 24.1947 175.665 24.1839 175.61 24.1839H175.214C175.16 24.1867 175.106 24.2005 175.057 24.2244C175.008 24.2483 174.964 24.2818 174.928 24.323C174.893 24.3642 174.865 24.4121 174.848 24.464C174.831 24.5159 174.825 24.5707 174.83 24.6252L174.965 27.5106C174.968 27.6207 175.013 27.7256 175.091 27.8035C175.169 27.8814 175.274 27.9264 175.384 27.9293H175.78C175.836 27.9279 175.89 27.9152 175.941 27.892C175.991 27.8687 176.036 27.8354 176.073 27.7941C176.11 27.7528 176.139 27.7043 176.156 27.6517C176.174 27.599 176.181 27.5433 176.176 27.488Z" fill="#DD821F"/>
<path d="M180.985 28.529L180.838 25.7454C180.84 25.69 180.83 25.6349 180.81 25.5834C180.789 25.5319 180.758 25.4851 180.719 25.4459C180.68 25.4067 180.633 25.3759 180.582 25.3554C180.53 25.335 180.475 25.3252 180.42 25.3268H180.024C179.913 25.3382 179.81 25.3912 179.737 25.4752C179.663 25.5591 179.624 25.6678 179.628 25.7794L179.775 28.563C179.775 28.6179 179.786 28.6724 179.807 28.7232C179.828 28.774 179.858 28.8201 179.897 28.859C179.936 28.8979 179.982 28.9287 180.033 28.9498C180.084 28.9708 180.138 28.9816 180.193 28.9816H180.589C180.702 28.9729 180.806 28.9207 180.88 28.8361C180.954 28.7515 180.992 28.6413 180.985 28.529Z" fill="#DD821F"/>
<path d="M185.818 30.8826L185.671 27.8614C185.672 27.806 185.662 27.7509 185.642 27.6994C185.621 27.6478 185.591 27.6011 185.551 27.5619C185.512 27.5227 185.465 27.4919 185.414 27.4714C185.362 27.4509 185.307 27.4412 185.252 27.4427H184.867C184.812 27.4441 184.757 27.4568 184.707 27.48C184.656 27.5032 184.611 27.5366 184.574 27.5779C184.537 27.6192 184.509 27.6677 184.491 27.7203C184.473 27.773 184.467 27.8287 184.471 27.884L184.618 30.9052C184.618 31.0163 184.662 31.1228 184.741 31.2013C184.819 31.2798 184.926 31.3239 185.037 31.3239H185.422C185.477 31.3226 185.532 31.3099 185.582 31.2866C185.633 31.2634 185.678 31.2301 185.715 31.1888C185.752 31.1474 185.78 31.0989 185.798 31.0463C185.816 30.9937 185.822 30.9379 185.818 30.8826Z" fill="#DD821F"/>
<path opacity="0.8" d="M119.022 254C118.734 254.005 118.449 253.935 118.196 253.796L7.45262 190.249C7.31844 190.184 7.20503 190.082 7.1251 189.957C7.04516 189.831 7.00184 189.685 7 189.536C7.00729 189.362 7.06166 189.193 7.15732 189.048C7.25297 188.902 7.38632 188.785 7.54314 188.71L25.6478 178.232C25.9225 178.072 26.2324 177.982 26.5502 177.97C26.8679 177.958 27.1837 178.025 27.4696 178.164L138.213 241.711C138.347 241.778 138.461 241.879 138.543 242.004C138.624 242.13 138.671 242.275 138.677 242.424C138.668 242.599 138.611 242.768 138.514 242.913C138.416 243.059 138.281 243.175 138.123 243.25L120.018 253.739C119.714 253.909 119.371 253.999 119.022 254ZM26.5983 178.809C26.3924 178.803 26.189 178.854 26.0099 178.956L7.90523 189.434C7.84864 189.461 7.80138 189.504 7.76945 189.558L118.559 253.072C118.714 253.148 118.884 253.187 119.056 253.187C119.229 253.187 119.399 253.148 119.554 253.072L137.659 242.582C137.713 242.557 137.76 242.518 137.795 242.469L27.0056 178.888C26.8793 178.826 26.7387 178.799 26.5983 178.809Z" fill="url(#paint0_linear)"/>
<path d="M7.41896 172.223V182.407C7.41836 182.486 7.44047 182.563 7.48263 182.629C7.52479 182.695 7.58519 182.748 7.65658 182.781L118.4 246.328C118.625 246.428 118.87 246.474 119.116 246.462C119.361 246.45 119.601 246.381 119.815 246.26L137.919 235.782C138.001 235.741 138.073 235.683 138.131 235.613C138.19 235.543 138.233 235.462 138.259 235.375V225.089L129.512 230.09L27.2549 171.42C27.0377 171.309 26.7973 171.251 26.5533 171.251C26.3093 171.251 26.0689 171.309 25.8517 171.42L19.6509 175.018L7.41896 172.223Z" fill="url(#paint1_linear)"/>
<path d="M27.2209 161.179L137.965 224.727C138.327 224.942 138.282 225.304 137.863 225.541L119.758 236.031C119.546 236.151 119.308 236.219 119.064 236.228C118.82 236.238 118.577 236.19 118.355 236.087L7.65657 172.54C7.29448 172.336 7.33974 171.974 7.75841 171.725L25.8065 161.247C26.0205 161.126 26.26 161.057 26.5056 161.045C26.7513 161.033 26.9963 161.079 27.2209 161.179Z" fill="url(#paint2_linear)"/>
<path opacity="0.6" d="M31.2266 176.489L118.253 225.519C118.925 221.97 119.918 218.49 121.218 215.12L34.3496 165.332C32.9433 168.939 31.8972 172.676 31.2266 176.489Z" fill="#24126A"/>
<path d="M23.3734 167.052L127.815 227.024C128.064 227.171 128.03 227.42 127.747 227.578L123.221 230.215C123.07 230.285 122.906 230.322 122.74 230.322C122.573 230.322 122.409 230.285 122.259 230.215L17.8289 170.243C17.5799 170.107 17.6026 169.858 17.8968 169.689L22.4229 167.052C22.5719 166.983 22.734 166.948 22.8982 166.948C23.0623 166.948 23.2245 166.983 23.3734 167.052Z" fill="#24126A"/>
<path d="M17.8175 170.288L19.9335 171.51L22.3889 170.085C22.5394 170.014 22.7036 169.977 22.8698 169.977C23.036 169.977 23.2002 170.014 23.3507 170.085L125.653 228.789L127.747 227.578C128.029 227.42 128.063 227.171 127.814 227.024L23.3733 167.052C23.2229 166.981 23.0587 166.945 22.8924 166.945C22.7262 166.945 22.562 166.981 22.4115 167.052L17.8854 169.689C17.5459 169.904 17.5459 170.153 17.8175 170.288Z" fill="#453C9E"/>
<path opacity="0.96" d="M286.638 63.8557L199.724 14C199.724 29.57 188.884 48.5233 175.43 56.3422L55.7355 125.887C39.8939 135.086 27.1302 157.366 27.1754 175.674L114.055 225.53C114.055 207.233 126.796 184.942 142.615 175.742L262.343 106.175C275.797 98.3563 286.672 79.3917 286.638 63.833V63.8557Z" fill="url(#paint3_linear)"/>
<path opacity="0.8" d="M27.1753 175.663L114.055 225.519C114.055 224.715 114.055 223.901 114.134 223.086L27.2658 173.298C27.1979 174.068 27.1753 174.86 27.1753 175.663Z" fill="#453C9E"/>
<g opacity="0.32">
<path opacity="0.32" d="M152.98 138.277L172.669 149.57L170.768 150.667L151.09 139.386L152.98 138.277Z" fill="#453C9E"/>
<path opacity="0.32" d="M142.898 132.495L149.982 136.557L148.092 137.655L140.997 133.592L142.898 132.495Z" fill="#453C9E"/>
<path opacity="0.32" d="M135.079 128.003L139.888 130.764L137.998 131.861L133.178 129.1L135.079 128.003Z" fill="#453C9E"/>
<path opacity="0.32" d="M166.264 140.914L176.991 147.058L175.101 148.155L164.374 142.011L166.264 140.914Z" fill="#453C9E"/>
<path opacity="0.32" d="M150.117 131.646L163.254 139.182L161.364 140.28L148.227 132.744L150.117 131.646Z" fill="#453C9E"/>
<path opacity="0.32" d="M142.298 127.154L147.119 129.915L145.218 131.024L140.409 128.252L142.298 127.154Z" fill="#453C9E"/>
<path opacity="0.32" d="M134.853 122.888L139.673 125.649L137.783 126.747L132.963 123.986L134.853 122.888Z" fill="#453C9E"/>
<path opacity="0.32" d="M173.551 140.099L181.313 144.546L179.423 145.643L171.661 141.196L173.551 140.099Z" fill="#453C9E"/>
<path opacity="0.32" d="M167.893 136.851L170.552 138.368L168.651 139.477L166.003 137.949L167.893 136.851Z" fill="#453C9E"/>
<path opacity="0.32" d="M160.075 132.359L164.895 135.131L162.994 136.229L158.185 133.468L160.075 132.359Z" fill="#453C9E"/>
<path opacity="0.32" d="M157.008 125.604L185.636 142.034L183.746 143.131L155.107 126.701L157.008 125.604Z" fill="#453C9E"/>
<path opacity="0.32" d="M146.915 119.822L153.998 123.884L152.108 124.981L145.014 120.919L146.915 119.822Z" fill="#453C9E"/>
<path opacity="0.32" d="M182.207 135.075L189.958 139.522L188.069 140.619L180.306 136.172L182.207 135.075Z" fill="#453C9E"/>
<path opacity="0.32" d="M164.001 124.631L179.198 133.344L177.308 134.452L162.1 125.728L164.001 124.631Z" fill="#453C9E"/>
<path opacity="0.32" d="M156.182 120.138L160.991 122.899L159.101 123.997L154.281 121.236L156.182 120.138Z" fill="#453C9E"/>
<path opacity="0.32" d="M178.417 127.901L194.281 137.01L192.391 138.107L176.516 129.01L178.417 127.901Z" fill="#453C9E"/>
<path opacity="0.32" d="M163.933 119.595L175.407 126.181L173.517 127.278L162.032 120.693L163.933 119.595Z" fill="#453C9E"/>
<path opacity="0.32" d="M153.161 113.417L160.924 117.864L159.034 118.973L151.271 114.515L153.161 113.417Z" fill="#453C9E"/>
<path opacity="0.32" d="M193.251 131.42L198.615 134.498L196.714 135.595L191.361 132.529L193.251 131.42Z" fill="#453C9E"/>
<path opacity="0.32" d="M183.158 125.638L190.241 129.7L188.352 130.798L181.268 126.735L183.158 125.638Z" fill="#453C9E"/>
<path opacity="0.32" d="M168.742 117.355L180.148 123.906L178.259 125.004L166.841 118.452L168.742 117.355Z" fill="#453C9E"/>
<path opacity="0.32" d="M186.519 122.56L202.937 131.986L201.048 133.083L184.618 123.669L186.519 122.56Z" fill="#453C9E"/>
<path opacity="0.32" d="M168.12 112.014L183.509 120.84L181.619 121.938L166.23 113.112L168.12 112.014Z" fill="#453C9E"/>
<path opacity="0.32" d="M160.301 107.522L165.11 110.283L163.22 111.38L158.411 108.619L160.301 107.522Z" fill="#453C9E"/>
<path opacity="0.32" d="M152.799 103.211L157.608 105.983L155.718 107.081L150.898 104.32L152.799 103.211Z" fill="#453C9E"/>
<path opacity="0.32" d="M197.416 123.827L207.26 129.474L205.37 130.571L195.526 124.925L197.416 123.827Z" fill="#453C9E"/>
<path opacity="0.32" d="M113.07 115.375L99.4238 107.544L97.5342 108.653L111.181 116.472L113.07 115.375Z" fill="#453C9E"/>
<path opacity="0.32" d="M114.473 111.188L103.746 105.032L101.856 106.141L112.583 112.286L114.473 111.188Z" fill="#453C9E"/>
<path opacity="0.32" d="M115.831 106.979L108.08 102.52L106.179 103.629L113.942 108.076L115.831 106.979Z" fill="#453C9E"/>
<path opacity="0.32" d="M123.684 106.492L112.402 100.008L110.501 101.117L121.794 107.59L123.684 106.492Z" fill="#453C9E"/>
<path opacity="0.32" d="M124.487 101.955L116.725 97.4964L114.835 98.6053L122.586 103.052L124.487 101.955Z" fill="#453C9E"/>
<path opacity="0.32" d="M130.892 100.631L121.047 94.9843L119.158 96.0933L128.991 101.728L130.892 100.631Z" fill="#453C9E"/>
<path opacity="0.32" d="M130.734 95.5501L125.37 92.4723L123.48 93.5812L128.844 96.6477L130.734 95.5501Z" fill="#453C9E"/>
<path opacity="0.32" d="M140.091 95.9235L129.704 89.9603L127.803 91.0692L138.19 97.0211L140.091 95.9235Z" fill="#453C9E"/>
<path opacity="0.32" d="M143.86 93.0947L134.026 87.4483L132.125 88.5572L141.97 94.1923L143.86 93.0947Z" fill="#453C9E"/>
<path opacity="0.32" d="M190.23 119.708L194.417 122.107L192.527 123.205L188.34 120.806L190.23 119.708Z" fill="#453C9E"/>
<path opacity="0.32" d="M177.806 112.568L187.22 117.977L185.33 119.075L175.916 113.677L177.806 112.568Z" fill="#453C9E"/>
<path opacity="0.32" d="M189.574 93.2983L205.461 102.419L203.571 103.516L187.673 94.3959L189.574 93.2983Z" fill="#453C9E"/>
<path opacity="0.32" d="M178.689 87.0522L184.946 90.6505L183.056 91.7481L176.788 88.1498L178.689 87.0522Z" fill="#453C9E"/>
</g>
<path opacity="0.3" d="M170.258 146.275C172.409 140.129 157.909 129.461 137.872 122.448C117.835 115.435 99.848 114.733 97.6968 120.879C95.5456 127.025 110.045 137.693 130.082 144.706C150.119 151.719 168.106 152.421 170.258 146.275Z" fill="#0F054C"/>
<path d="M148.431 98.5147L148.182 92.2007L146.711 88.5006L145.771 91.5557L148.431 98.5147Z" fill="#DD821F"/>
<path d="M82.0434 99.7255L81.7944 93.5247C81.7944 93.5247 87.0335 98.7524 87.0335 98.8882C87.0335 99.024 82.0434 99.7255 82.0434 99.7255Z" fill="#FFD85A"/>
<path d="M115.707 118.124C134.027 117.683 148.522 108.37 148.171 92.2007C147.821 76.031 132.624 63.2672 114.304 63.7085C95.9846 64.1498 81.4896 77.6152 81.8291 93.7849C82.1685 109.955 97.3878 118.622 115.707 118.124Z" fill="#FFD85A"/>
<path d="M115.963 128.608C134.28 128.17 148.816 114.703 148.429 98.5278C148.043 82.3529 132.88 69.5957 114.562 70.0338C96.244 70.4719 81.7081 83.9394 82.095 100.114C82.4818 116.289 97.6449 129.046 115.963 128.608Z" fill="#FFD85A"/>
<path d="M138.406 78.2149C141.416 80.6974 143.865 83.7906 145.592 87.29C147.318 90.7893 148.282 94.6152 148.42 98.5147C148.805 114.696 134.276 128.161 115.956 128.591C107.443 128.881 99.1118 126.093 92.4878 120.738L138.406 78.2149Z" fill="#DD821F"/>
<path d="M115.931 127.296C133.43 126.878 147.317 114.013 146.947 98.5632C146.578 83.1131 132.092 70.9275 114.593 71.346C97.0933 71.7645 83.2068 84.6286 83.5763 100.079C83.9458 115.529 98.4313 127.715 115.931 127.296Z" fill="#F9BF30"/>
<path d="M115.799 121.776C129.85 121.44 141 111.114 140.703 98.7126C140.407 86.3112 128.776 76.5304 114.725 76.8664C100.675 77.2024 89.5246 87.5281 89.8212 99.9295C90.1178 112.331 101.749 122.112 115.799 121.776Z" fill="#F2B42A"/>
<path d="M89.8057 99.9179C89.8057 99.4087 89.8057 98.8995 89.8057 98.3903C90.9372 110.056 102.253 119.041 115.684 118.758C129.115 118.475 139.944 108.936 140.578 97.2588C140.631 97.7566 140.665 98.2658 140.68 98.7863C140.974 111.233 129.828 121.519 115.786 121.847C101.743 122.175 90.1112 112.331 89.8057 99.9179Z" fill="#FFD85A"/>
<path d="M110.333 101.208L115.56 96.3761C120.584 97.5077 129.942 99.6463 137.422 101.4C136.4 104.272 134.774 106.891 132.655 109.081C130.535 111.271 127.97 112.981 125.133 114.096L110.333 101.208Z" fill="#FFD85A"/>
<path d="M118.582 115.782C117.745 115.888 116.902 115.949 116.058 115.963C110.301 116.14 104.666 114.276 100.149 110.701L108.669 102.781L118.582 115.782Z" fill="#FFD85A"/>
<path d="M121.184 91.1936L131.017 82.1413C134.321 85.0268 137.275 88.2064 138.078 92.461L121.184 91.1936Z" fill="#FFD85A"/>
<path d="M116.046 79.5388C101.993 79.8783 90.8469 90.2092 91.1524 102.611C91.2107 105.067 91.7209 107.491 92.6574 109.762C90.8873 106.776 89.9096 103.388 89.8172 99.9178C89.523 87.4709 100.68 77.1852 114.711 76.857C125.913 76.5855 135.577 82.7524 139.186 91.5671C134.864 84.2121 126.072 79.3012 116.046 79.5388Z" fill="#DD821F"/>
<path d="M148.171 92.2008C148.391 94.3342 148.296 96.4883 147.888 98.594C147.153 96.229 145.569 89.123 145.569 89.123L143.045 83.4653L140.941 81.734L137.376 79.1428L137.082 71.007C140.395 73.4883 143.11 76.6797 145.029 80.347C146.948 84.0142 148.021 88.0645 148.171 92.2008Z" fill="#DD821F"/>
<path d="M83.9672 91.3634L83.8314 89.7C83.833 89.6446 83.8232 89.5895 83.8027 89.538C83.7823 89.4865 83.7515 89.4397 83.7123 89.4005C83.6731 89.3613 83.6263 89.3305 83.5748 89.31C83.5233 89.2896 83.4682 89.2798 83.4128 89.2814H83.2883C83.2333 89.2842 83.1794 89.298 83.1297 89.3217C83.08 89.3455 83.0355 89.3788 82.9987 89.4198C82.9619 89.4608 82.9336 89.5087 82.9153 89.5606C82.897 89.6126 82.8892 89.6677 82.8922 89.7227L83.0393 91.386C83.0378 91.441 83.0472 91.4957 83.0668 91.5471C83.0865 91.5985 83.1161 91.6455 83.1539 91.6854C83.1918 91.7254 83.2371 91.7574 83.2873 91.7798C83.3376 91.8022 83.3917 91.8145 83.4467 91.816H83.5712C83.6272 91.8132 83.6821 91.7991 83.7326 91.7746C83.7831 91.7501 83.8281 91.7158 83.865 91.6736C83.902 91.6313 83.9301 91.5821 83.9476 91.5288C83.9652 91.4756 83.9718 91.4193 83.9672 91.3634Z" fill="#DD821F"/>
<path d="M86.8871 84.9815L86.7174 81.9829C86.7174 81.8569 86.6673 81.736 86.5782 81.6469C86.489 81.5577 86.3682 81.5077 86.2421 81.5077H85.9479C85.8219 81.5191 85.7049 81.5781 85.6209 81.6727C85.5368 81.7673 85.4919 81.8904 85.4953 82.0169L85.6763 85.0154C85.6748 85.0783 85.686 85.1408 85.7094 85.1991C85.7327 85.2575 85.7676 85.3105 85.8121 85.3549C85.8565 85.3994 85.9095 85.4343 85.9679 85.4577C86.0263 85.481 86.0887 85.4922 86.1516 85.4907H86.4345C86.5615 85.4819 86.6801 85.4237 86.7648 85.3285C86.8494 85.2333 86.8933 85.1087 86.8871 84.9815Z" fill="#DD821F"/>
<path d="M90.9266 79.4143L90.7569 76.5063C90.7584 76.4355 90.7457 76.3651 90.7197 76.2993C90.6936 76.2335 90.6547 76.1735 90.6052 76.1229C90.5557 76.0723 90.4965 76.0321 90.4312 76.0047C90.366 75.9773 90.2959 75.9631 90.2251 75.9632H89.7159C89.645 75.966 89.5754 75.983 89.5112 76.0132C89.447 76.0434 89.3895 76.086 89.3421 76.1388C89.2946 76.1915 89.2582 76.2532 89.235 76.3202C89.2117 76.3872 89.2021 76.4581 89.2067 76.5289L89.3764 79.437C89.3749 79.5078 89.3875 79.5781 89.4136 79.644C89.4396 79.7098 89.4786 79.7698 89.5281 79.8204C89.5777 79.871 89.6368 79.9111 89.7021 79.9386C89.7673 79.966 89.8374 79.9801 89.9082 79.9801H90.4174C90.4883 79.9772 90.5579 79.9602 90.6221 79.9301C90.6862 79.8999 90.7438 79.8572 90.7912 79.8045C90.8387 79.7518 90.8751 79.6901 90.8983 79.6231C90.9216 79.5561 90.9312 79.4851 90.9266 79.4143Z" fill="#DD821F"/>
<path d="M96.9797 74.9108L96.7534 71.3917C96.7549 71.3209 96.7422 71.2505 96.7162 71.1847C96.6901 71.1189 96.6512 71.0589 96.6016 71.0083C96.5521 70.9577 96.493 70.9175 96.4277 70.8901C96.3624 70.8627 96.2923 70.8486 96.2215 70.8486H95.7123C95.5703 70.8573 95.4373 70.9215 95.3421 71.0273C95.2468 71.1332 95.197 71.2721 95.2032 71.4143L95.3842 74.9447C95.3871 75.0879 95.4452 75.2244 95.5465 75.3256C95.6477 75.4268 95.7842 75.485 95.9273 75.4879H96.4365C96.5846 75.482 96.7244 75.4182 96.826 75.3103C96.9276 75.2024 96.9827 75.059 96.9797 74.9108Z" fill="#DD821F"/>
<path d="M103.056 71.9575L102.864 67.9065C102.864 67.7644 102.808 67.628 102.709 67.5264C102.609 67.4249 102.474 67.3664 102.332 67.3634H101.823C101.752 67.3663 101.682 67.3833 101.618 67.4134C101.554 67.4436 101.496 67.4863 101.449 67.539C101.402 67.5917 101.365 67.6534 101.342 67.7204C101.319 67.7874 101.309 67.8584 101.314 67.9292L101.506 71.9914C101.509 72.1345 101.567 72.271 101.668 72.3723C101.769 72.4735 101.906 72.5316 102.049 72.5345H102.547C102.618 72.5302 102.688 72.5118 102.752 72.4805C102.817 72.4491 102.874 72.4054 102.921 72.3517C102.969 72.2981 103.005 72.2357 103.028 72.168C103.051 72.1004 103.061 72.0288 103.056 71.9575Z" fill="#DD821F"/>
<path d="M109.201 70.1583L109.008 66.2659C109.008 66.1207 108.952 65.9814 108.85 65.8777C108.748 65.7741 108.61 65.7144 108.465 65.7114H107.956C107.814 65.7202 107.681 65.7844 107.586 65.8902C107.49 65.996 107.441 66.1349 107.447 66.2772L107.639 70.1697C107.639 70.241 107.653 70.3116 107.681 70.3775C107.708 70.4434 107.748 70.5033 107.798 70.5537C107.849 70.6042 107.909 70.6442 107.974 70.6715C108.04 70.6988 108.111 70.7128 108.182 70.7128H108.692C108.832 70.7041 108.963 70.6415 109.058 70.5381C109.153 70.4347 109.204 70.2986 109.201 70.1583Z" fill="#DD821F"/>
<path d="M115.311 69.5473L115.118 65.5869C115.12 65.5161 115.107 65.4457 115.081 65.3799C115.055 65.3141 115.016 65.2541 114.967 65.2035C114.917 65.1529 114.858 65.1127 114.793 65.0853C114.727 65.0579 114.657 65.0437 114.586 65.0438H114.077C114.006 65.0466 113.937 65.0636 113.873 65.0938C113.808 65.124 113.751 65.1667 113.703 65.2194C113.656 65.2721 113.62 65.3338 113.596 65.4008C113.573 65.4678 113.563 65.5388 113.568 65.6095L113.76 69.5699C113.76 69.714 113.818 69.8521 113.919 69.954C114.021 70.0558 114.159 70.1131 114.304 70.1131H114.858C114.991 70.0934 115.112 70.0241 115.196 69.9192C115.279 69.8142 115.321 69.6813 115.311 69.5473Z" fill="#DD821F"/>
<path d="M121.478 69.6718L121.285 65.9716C121.285 65.8284 121.23 65.6907 121.131 65.5874C121.032 65.484 120.897 65.423 120.753 65.4172H120.244C120.173 65.4215 120.103 65.4399 120.039 65.4713C119.974 65.5026 119.917 65.5464 119.87 65.6C119.822 65.6536 119.786 65.716 119.763 65.7837C119.74 65.8514 119.73 65.9229 119.735 65.9943L119.916 69.7057C119.919 69.8489 119.977 69.9853 120.078 70.0866C120.18 70.1878 120.316 70.246 120.459 70.2489H120.968C121.11 70.2346 121.242 70.1673 121.336 70.0602C121.431 69.9532 121.481 69.8145 121.478 69.6718Z" fill="#DD821F"/>
<path d="M127.667 71.0183L127.475 67.4313C127.476 67.3605 127.464 67.2902 127.437 67.2243C127.411 67.1585 127.372 67.0985 127.323 67.0479C127.273 66.9973 127.214 66.9572 127.149 66.9297C127.084 66.9023 127.014 66.8882 126.943 66.8882H126.434C126.363 66.8911 126.293 66.9081 126.229 66.9382C126.165 66.9684 126.107 67.0111 126.06 67.0638C126.012 67.1165 125.976 67.1782 125.953 67.2452C125.929 67.3122 125.92 67.3832 125.924 67.454L126.106 71.0975C126.108 71.2407 126.167 71.3771 126.268 71.4784C126.369 71.5796 126.505 71.6378 126.649 71.6407H127.158C127.233 71.6351 127.306 71.6143 127.373 71.5796C127.439 71.5449 127.498 71.497 127.546 71.4388C127.594 71.3806 127.629 71.3133 127.65 71.241C127.671 71.1687 127.676 71.0929 127.667 71.0183Z" fill="#DD821F"/>
<path d="M133.891 74.0509L133.698 70.1584C133.698 70.0163 133.643 69.8798 133.543 69.7783C133.444 69.6767 133.309 69.6182 133.166 69.6152H132.657C132.586 69.6181 132.517 69.6351 132.453 69.6653C132.388 69.6954 132.331 69.7381 132.284 69.7909C132.236 69.8436 132.2 69.9052 132.176 69.9722C132.153 70.0393 132.144 70.1102 132.148 70.181L132.34 74.0735C132.339 74.1443 132.352 74.2147 132.378 74.2805C132.404 74.3463 132.443 74.4063 132.492 74.4569C132.542 74.5075 132.601 74.5477 132.666 74.5751C132.731 74.6025 132.801 74.6167 132.872 74.6166H133.381C133.452 74.6138 133.522 74.5968 133.586 74.5666C133.65 74.5364 133.708 74.4937 133.755 74.441C133.803 74.3883 133.839 74.3266 133.862 74.2596C133.886 74.1926 133.895 74.1216 133.891 74.0509Z" fill="#DD821F"/>
<path opacity="0.5" d="M280.055 224.709C281.944 219.311 269.216 209.946 251.627 203.789C234.038 197.633 218.247 197.018 216.358 202.415C214.469 207.812 227.197 217.178 244.786 223.334C262.375 229.49 278.166 230.106 280.055 224.709Z" fill="#0F054C"/>
<path opacity="0.8" d="M231.101 221.038C224.99 221.16 218.949 219.719 213.551 216.851C208.787 214.102 206.162 210.413 206.162 206.486C206.162 202.56 208.787 198.86 213.551 196.11C223.226 190.532 238.965 190.532 248.629 196.11C253.404 198.86 256.029 202.549 256.029 206.486C256.029 210.424 253.404 214.102 248.629 216.851C243.239 219.718 237.205 221.16 231.101 221.038ZM231.101 192.749C225.136 192.632 219.24 194.038 213.97 196.834C209.444 199.425 206.999 202.854 206.999 206.486C206.999 210.119 209.478 213.536 213.97 216.127C223.418 221.581 238.784 221.581 248.233 216.127C252.759 213.536 255.203 210.107 255.203 206.486C255.203 202.865 252.725 199.437 248.221 196.834C242.956 194.036 237.063 192.63 231.101 192.749Z" fill="url(#paint4_linear)"/>
<path d="M260.895 182.781L260.669 177.225L259.379 173.977L258.564 176.67L260.895 182.781Z" fill="#DD821F"/>
<path d="M202.632 183.833L202.417 178.39C202.417 178.39 207.022 182.984 207.022 183.097C207.022 183.211 202.632 183.833 202.632 183.833Z" fill="#FFD85A"/>
<path d="M232.165 199.991C248.245 199.607 261.008 191.425 260.669 177.225C260.329 163.024 247.011 151.833 230.932 152.218C214.853 152.602 202.089 164.427 202.428 178.594C202.768 192.761 216.075 200.376 232.165 199.991Z" fill="#FFD85A"/>
<path d="M232.39 209.194C248.471 208.809 261.232 196.986 260.892 182.785C260.553 168.584 247.241 157.384 231.16 157.769C215.079 158.153 202.318 169.977 202.657 184.178C202.997 198.378 216.309 209.579 232.39 209.194Z" fill="#FFD85A"/>
<path d="M252.092 164.947C254.737 167.127 256.889 169.845 258.405 172.919C259.921 175.993 260.766 179.355 260.884 182.781C261.224 196.97 248.437 208.806 232.381 209.179C224.911 209.431 217.601 206.985 211.787 202.288L252.092 164.947Z" fill="#DD821F"/>
<path d="M232.362 208.04C247.725 207.673 259.916 196.38 259.592 182.816C259.267 169.253 246.55 158.555 231.188 158.923C215.825 159.29 203.634 170.583 203.958 184.147C204.283 197.71 217 208.408 232.362 208.04Z" fill="#F9BF30"/>
<path d="M231.786 204.363C244.122 204.116 253.946 195.086 253.728 184.194C253.51 173.301 243.333 164.671 230.997 164.918C218.661 165.164 208.837 174.195 209.055 185.087C209.273 195.98 219.45 204.61 231.786 204.363Z" fill="#F2B42A"/>
<path d="M209.433 184.003C209.433 183.561 209.433 183.109 209.433 182.667C210.463 192.908 220.33 200.772 232.154 200.512C243.979 200.252 253.45 191.878 253.993 181.592C253.993 182.045 254.072 182.486 254.084 182.939C254.344 193.824 244.556 202.899 232.211 203.194C219.866 203.488 209.693 194.899 209.433 184.003Z" fill="#FFD85A"/>
<path d="M227.48 185.134L232.063 180.891C236.476 181.887 244.691 183.765 251.299 185.304C250.398 187.825 248.966 190.122 247.1 192.042C245.233 193.961 242.976 195.456 240.481 196.427L227.48 185.134Z" fill="#FFD85A"/>
<path d="M234.688 197.932C233.937 198.026 233.182 198.079 232.425 198.09C227.36 198.265 222.399 196.632 218.428 193.485L225.907 186.56L234.688 197.932Z" fill="#FFD85A"/>
<path d="M236.975 176.331L245.608 168.331C248.505 170.865 251.108 173.66 251.798 177.383L236.975 176.331Z" fill="#FFD85A"/>
<path d="M232.459 166.147C220.125 166.441 210.338 175.505 210.598 186.401C210.654 188.558 211.103 190.686 211.922 192.682C210.366 190.06 209.509 187.084 209.432 184.037C209.172 173.151 218.96 164.087 231.294 163.793C241.127 163.556 249.613 168.964 252.793 176.693C248.98 170.22 241.263 165.898 232.459 166.147Z" fill="#DD821F"/>
<path d="M260.669 177.225C260.864 179.113 260.78 181.019 260.42 182.882C259.775 180.8 258.383 174.566 258.383 174.566L256.12 169.609L254.275 168.093L251.152 165.83L250.892 158.69C253.796 160.86 256.18 163.649 257.871 166.855C259.562 170.061 260.518 173.603 260.669 177.225Z" fill="#DD821F"/>
<path d="M204.307 176.5L204.183 175.029C204.183 174.933 204.144 174.841 204.077 174.773C204.009 174.706 203.917 174.667 203.821 174.667H203.707C203.61 174.673 203.519 174.717 203.454 174.789C203.388 174.86 203.354 174.955 203.357 175.052L203.481 176.512C203.48 176.56 203.488 176.609 203.505 176.654C203.523 176.699 203.549 176.74 203.583 176.775C203.617 176.81 203.657 176.838 203.702 176.857C203.747 176.876 203.795 176.885 203.843 176.885H203.956C204.053 176.879 204.144 176.836 204.21 176.764C204.275 176.692 204.31 176.598 204.307 176.5Z" fill="#DD821F"/>
<path d="M206.864 170.888L206.717 168.263C206.717 168.151 206.673 168.043 206.595 167.963C206.517 167.882 206.41 167.836 206.298 167.833H206.038C205.928 167.842 205.825 167.892 205.752 167.974C205.678 168.057 205.639 168.164 205.642 168.274L205.8 170.899C205.799 170.954 205.808 171.009 205.828 171.06C205.847 171.112 205.877 171.159 205.915 171.199C205.953 171.239 205.998 171.271 206.048 171.293C206.098 171.316 206.153 171.328 206.208 171.329H206.513C206.617 171.315 206.712 171.261 206.777 171.179C206.842 171.097 206.874 170.993 206.864 170.888Z" fill="#DD821F"/>
<path d="M210.406 166L210.259 163.454C210.26 163.391 210.249 163.329 210.227 163.271C210.204 163.213 210.17 163.16 210.127 163.114C210.084 163.069 210.033 163.033 209.976 163.008C209.919 162.983 209.857 162.969 209.795 162.967H209.342C209.28 162.972 209.219 162.988 209.163 163.016C209.106 163.044 209.057 163.083 209.016 163.13C208.975 163.177 208.943 163.232 208.924 163.292C208.904 163.351 208.896 163.414 208.901 163.476L209.048 166.022C209.048 166.148 209.098 166.269 209.187 166.359C209.276 166.448 209.397 166.498 209.523 166.498H209.964C210.026 166.495 210.087 166.48 210.143 166.453C210.199 166.426 210.249 166.388 210.29 166.342C210.331 166.296 210.363 166.241 210.383 166.183C210.402 166.124 210.41 166.062 210.406 166Z" fill="#DD821F"/>
<path d="M215.725 162.051L215.566 158.962C215.566 158.836 215.516 158.715 215.427 158.626C215.338 158.536 215.217 158.486 215.091 158.486H214.65C214.587 158.488 214.525 158.502 214.467 158.528C214.41 158.554 214.359 158.592 214.316 158.638C214.274 158.685 214.242 158.739 214.221 158.799C214.201 158.858 214.192 158.921 214.197 158.984L214.355 162.073C214.355 162.199 214.406 162.32 214.495 162.409C214.584 162.499 214.705 162.549 214.831 162.549H215.272C215.334 162.546 215.396 162.531 215.452 162.504C215.509 162.477 215.56 162.44 215.602 162.394C215.644 162.347 215.676 162.293 215.697 162.234C215.718 162.176 215.728 162.113 215.725 162.051Z" fill="#DD821F"/>
<path d="M221.064 159.459L220.895 155.895C220.895 155.769 220.845 155.648 220.755 155.559C220.666 155.47 220.545 155.42 220.419 155.42H219.978C219.916 155.423 219.854 155.438 219.798 155.465C219.741 155.491 219.691 155.529 219.649 155.575C219.606 155.621 219.574 155.675 219.553 155.734C219.532 155.793 219.522 155.855 219.525 155.918L219.695 159.482C219.695 159.608 219.745 159.729 219.834 159.818C219.924 159.907 220.044 159.957 220.17 159.957H220.612C220.674 159.954 220.735 159.939 220.792 159.913C220.849 159.886 220.899 159.849 220.941 159.802C220.983 159.756 221.016 159.702 221.037 159.643C221.058 159.584 221.067 159.522 221.064 159.459Z" fill="#DD821F"/>
<path d="M226.429 157.875L226.259 154.481C226.261 154.418 226.25 154.356 226.227 154.298C226.205 154.24 226.171 154.186 226.128 154.141C226.085 154.096 226.033 154.06 225.976 154.035C225.919 154.009 225.858 153.996 225.795 153.994H225.342C225.28 153.998 225.219 154.015 225.163 154.043C225.107 154.071 225.057 154.11 225.016 154.157C224.975 154.204 224.944 154.259 224.924 154.319C224.904 154.378 224.897 154.441 224.901 154.503L225.071 157.898C225.069 157.96 225.08 158.021 225.103 158.079C225.126 158.137 225.16 158.189 225.203 158.233C225.246 158.278 225.298 158.313 225.355 158.337C225.412 158.361 225.473 158.373 225.535 158.373H225.987C226.049 158.37 226.11 158.355 226.166 158.328C226.222 158.302 226.272 158.264 226.313 158.218C226.354 158.171 226.386 158.117 226.406 158.058C226.426 157.999 226.433 157.937 226.429 157.875Z" fill="#DD821F"/>
<path d="M231.825 157.332L231.655 153.858C231.65 153.734 231.598 153.616 231.51 153.528C231.422 153.44 231.304 153.389 231.18 153.383H230.739C230.676 153.386 230.615 153.401 230.559 153.428C230.502 153.454 230.451 153.492 230.409 153.538C230.367 153.584 230.335 153.638 230.314 153.697C230.292 153.756 230.283 153.819 230.286 153.881L230.456 157.355C230.456 157.482 230.506 157.604 230.594 157.695C230.683 157.786 230.804 157.838 230.931 157.841H231.406C231.527 157.825 231.638 157.763 231.715 157.668C231.793 157.574 231.832 157.454 231.825 157.332Z" fill="#DD821F"/>
<path d="M237.234 157.457L237.065 154.198C237.065 154.072 237.014 153.951 236.925 153.862C236.836 153.773 236.715 153.723 236.589 153.723H236.148C236.086 153.725 236.024 153.741 235.968 153.767C235.911 153.794 235.86 153.831 235.818 153.878C235.776 153.924 235.744 153.978 235.723 154.037C235.702 154.096 235.692 154.158 235.695 154.22L235.865 157.468C235.865 157.595 235.915 157.717 236.004 157.808C236.092 157.899 236.213 157.952 236.34 157.955H236.782C236.906 157.943 237.021 157.886 237.105 157.794C237.189 157.701 237.235 157.581 237.234 157.457Z" fill="#DD821F"/>
<path d="M242.723 158.633L242.553 155.488C242.555 155.425 242.544 155.363 242.521 155.305C242.499 155.247 242.465 155.194 242.422 155.148C242.379 155.103 242.327 155.067 242.27 155.042C242.213 155.016 242.152 155.003 242.089 155.001H241.591C241.467 155.01 241.352 155.067 241.269 155.16C241.187 155.253 241.144 155.375 241.15 155.499L241.308 158.656C241.308 158.782 241.359 158.903 241.448 158.992C241.537 159.081 241.658 159.131 241.784 159.131H242.225C242.291 159.135 242.357 159.124 242.419 159.1C242.481 159.076 242.537 159.04 242.584 158.993C242.631 158.946 242.668 158.89 242.692 158.828C242.715 158.766 242.726 158.7 242.723 158.633Z" fill="#DD821F"/>
<path d="M248.131 161.293L247.962 157.898C247.962 157.772 247.912 157.651 247.822 157.562C247.733 157.473 247.612 157.423 247.486 157.423H247.045C246.983 157.426 246.922 157.441 246.866 157.468C246.81 157.494 246.76 157.532 246.719 157.578C246.678 157.625 246.647 157.679 246.627 157.738C246.607 157.797 246.599 157.859 246.604 157.921L246.762 161.315C246.768 161.439 246.82 161.557 246.908 161.645C246.996 161.733 247.113 161.785 247.237 161.79H247.679C247.741 161.788 247.802 161.772 247.859 161.746C247.916 161.719 247.966 161.682 248.008 161.635C248.05 161.589 248.083 161.535 248.104 161.476C248.125 161.417 248.134 161.355 248.131 161.293Z" fill="#DD821F"/>
<defs>
<linearGradient id="paint0_linear" x1="7" y1="215.98" x2="138.632" y2="215.98" gradientUnits="userSpaceOnUse">
<stop stop-color="#E9E9FD"/>
<stop offset="0.13" stop-color="#EAE4FB"/>
<stop offset="0.28" stop-color="#D4F2FD"/>
<stop offset="0.43" stop-color="#ADE9FF"/>
<stop offset="0.59" stop-color="#91DFFC"/>
<stop offset="0.75" stop-color="#6EC8EA"/>
<stop offset="0.91" stop-color="#27B1E5"/>
<stop offset="1" stop-color="#27B1E5"/>
</linearGradient>
<linearGradient id="paint1_linear" x1="143.031" y1="207.475" x2="22.5539" y2="209.8" gradientUnits="userSpaceOnUse">
<stop stop-color="#5761D7"/>
<stop offset="0.04" stop-color="#5C66D9"/>
<stop offset="0.09" stop-color="#6A73DF"/>
<stop offset="0.14" stop-color="#8289E8"/>
<stop offset="0.19" stop-color="#A3A7F5"/>
<stop offset="0.22" stop-color="#BCBEFF"/>
</linearGradient>
<linearGradient id="paint2_linear" x1="107.253" y1="145.135" x2="60.9849" y2="217.051" gradientUnits="userSpaceOnUse">
<stop stop-color="#C0BFF6"/>
<stop offset="0.29" stop-color="#C5C4F7"/>
<stop offset="0.64" stop-color="#D3D2F9"/>
<stop offset="1" stop-color="#E9E9FD"/>
</linearGradient>
<linearGradient id="paint3_linear" x1="217.486" y1="15.5477" x2="91.8113" y2="229.662" gradientUnits="userSpaceOnUse">
<stop stop-color="#C0BFF6"/>
<stop offset="0.12" stop-color="#D0CFF9"/>
<stop offset="0.26" stop-color="#E9E9FD"/>
<stop offset="0.51" stop-color="#C0BFF6"/>
<stop offset="0.62" stop-color="#D0CFF9"/>
<stop offset="0.75" stop-color="#E9E9FD"/>
<stop offset="1" stop-color="#C0BFF6"/>
</linearGradient>
<linearGradient id="paint4_linear" x1="11759.8" y1="3850.71" x2="13958" y2="3850.71" gradientUnits="userSpaceOnUse">
<stop stop-color="#E9E9FD"/>
<stop offset="0.13" stop-color="#EAE4FB"/>
<stop offset="0.28" stop-color="#EBD7F4"/>
<stop offset="0.43" stop-color="#EEC1E8"/>
<stop offset="0.59" stop-color="#F1A2D9"/>
<stop offset="0.75" stop-color="#F67AC4"/>
<stop offset="0.91" stop-color="#FB4AAB"/>
<stop offset="1" stop-color="#FF2C9C"/>
</linearGradient>
</defs>
</svg>
