<svg width="279" height="205" viewBox="0 0 279 205" fill="none" xmlns="http://www.w3.org/2000/svg">
<path opacity="0.47" d="M18.0689 147.659C15.5295 133.997 17.444 118.101 24.5712 105.918C31.9711 93.2975 43.2942 84.1046 48.5119 69.839C51.4877 61.6823 52.6533 52.8725 56.512 45.0841C74.749 8.27834 149.547 9.23592 153.783 55.5538C154.07 58.731 153.951 61.9966 155.003 65.0069C155.675 66.8851 156.774 68.5856 158.214 69.9776C159.654 71.3695 161.398 72.4158 163.31 73.0359C169.47 75.0002 176.538 73.2765 182.946 74.4011C188.744 75.437 194.355 77.3186 199.596 79.9846C210.045 85.3408 218.883 93.3307 225.218 103.148C237.816 122.58 238.912 147.644 224.593 166.497C216.122 177.668 203.231 184.705 190.167 189.98C165.175 200.056 138.125 204.849 111.139 204.997C89.3158 205.119 66.8134 202.001 48.1796 190.79C40.3665 186.117 33.6431 179.856 28.4528 172.422C23.2626 164.987 19.7234 156.547 18.0689 147.659Z" fill="#8378F3"/>
<path d="M79.1787 184.377C35.1875 193.248 24.5598 146.648 54.639 92.7954C122.948 -9.35767 230.83 20.977 247.283 41.1767C263.735 61.3764 250.514 85.606 187.116 96.2136C123.718 106.821 134.168 173.288 79.1787 184.377Z" stroke="white" stroke-width="1.5"/>
<path d="M35.529 47L52.5873 81.4112L47.4944 81.6049L61.9498 108.946H54.3548L66.1992 133.24H-9.15527e-05L14.5763 108.946L7.59079 108.643L21.5619 81.3144L16.4004 81.0117L35.529 47Z" fill="#F5F5F5"/>
<path d="M32.6438 86.9278C32.5469 86.9278 32.6841 107.707 32.9464 133.337C33.2087 158.967 33.6284 182.627 33.6325 182.53C33.6607 177.05 33.5639 158.967 33.2975 133.337C33.0312 107.707 32.7447 86.9278 32.6438 86.9278Z" fill="#E0E0E0"/>
<path d="M24.5323 95.7617C24.4556 95.8222 26.1465 98.1588 28.3298 100.98C30.513 103.8 32.333 106.036 32.3976 105.976C32.4622 105.915 30.7834 103.583 28.6002 100.762C26.4169 97.9409 24.609 95.7011 24.5323 95.7617Z" fill="#E0E0E0"/>
<path d="M32.8015 105.245C32.862 105.322 34.5449 104.115 36.5546 102.545C38.5643 100.976 40.1502 99.6439 40.0938 99.5632C40.0373 99.4824 38.3504 100.697 36.3366 102.267C34.3229 103.837 32.745 105.169 32.8015 105.245Z" fill="#E0E0E0"/>
<path d="M33.2609 122.126C33.7104 121.841 34.1308 121.513 34.516 121.145C35.2666 120.512 36.2997 119.64 37.4579 118.692C38.6161 117.743 39.6855 116.912 40.4563 116.307C40.8931 116.003 41.2986 115.657 41.667 115.274C41.1813 115.494 40.7246 115.773 40.307 116.105C39.4999 116.662 38.4022 117.469 37.236 118.417C36.0697 119.366 35.0568 120.278 34.3465 120.96C33.9379 121.302 33.5733 121.694 33.2609 122.126Z" fill="#E0E0E0"/>
<path d="M24.5199 111.69C24.4472 111.755 26.3076 114.2 28.6846 117.154C31.0615 120.108 33.047 122.453 33.1237 122.4C33.2004 122.348 31.3359 119.894 28.959 116.94C26.5821 113.986 24.5966 111.629 24.5199 111.69Z" fill="#E0E0E0"/>
<path d="M229.288 47L244.829 78.3522L240.188 78.5298L253.356 103.441H246.443L257.23 125.572H196.919L210.196 103.441L203.836 103.163L216.56 78.2635L211.859 77.985L229.288 47Z" fill="#F5F5F5"/>
<path d="M226.661 83.3685C226.573 83.3685 226.694 102.295 226.932 125.641C227.17 148.987 227.44 175.456 227.529 175.452C227.618 175.448 227.497 148.991 227.255 125.637C227.012 102.283 226.75 83.3685 226.661 83.3685Z" fill="#E0E0E0"/>
<path d="M219.268 91.4275C219.199 91.4799 220.749 93.6107 222.73 96.1773C224.712 98.7439 226.362 100.79 226.443 100.733C226.524 100.677 224.966 98.5543 222.984 95.9836C221.003 93.413 219.34 91.3669 219.268 91.4275Z" fill="#E0E0E0"/>
<path d="M226.806 100.068C226.863 100.136 228.392 99.0345 230.224 97.6059C232.057 96.1773 233.501 94.9626 233.453 94.89C233.404 94.8173 231.867 95.9231 230.031 97.3517C228.195 98.7803 226.754 99.999 226.806 100.068Z" fill="#E0E0E0"/>
<path d="M227.218 115.447C227.63 115.189 228.015 114.889 228.364 114.551C229.046 113.978 229.979 113.179 231.048 112.32C232.117 111.46 233.066 110.705 233.776 110.144C234.175 109.869 234.546 109.554 234.882 109.204C234.438 109.403 234.02 109.657 233.639 109.959C232.9 110.467 231.904 111.206 230.842 112.069C229.781 112.933 228.861 113.76 228.211 114.382C227.839 114.696 227.506 115.054 227.218 115.447Z" fill="#E0E0E0"/>
<path d="M219.244 105.939C219.175 105.996 220.858 108.223 223.033 110.915C225.208 113.607 227.008 115.758 227.069 115.689C227.129 115.621 225.454 113.409 223.279 110.713C221.104 108.018 219.329 105.895 219.244 105.939Z" fill="#E0E0E0"/>
<path d="M256.048 88.9496L268.018 113.098L264.442 113.236L274.588 132.421H269.261L277.57 149.471H233.784L241.343 132.421L236.443 132.211L246.246 113.03L242.622 112.816L256.048 88.9496Z" fill="#EBEBEB"/>
<path d="M254.022 116.96C253.954 116.96 254.051 131.541 254.232 149.519C254.414 167.498 254.636 182.082 254.692 182.082C254.749 182.082 254.668 167.506 254.482 149.519C254.297 131.533 254.091 116.96 254.022 116.96Z" fill="#E0E0E0"/>
<path d="M248.328 123.171C249.152 124.436 250.042 125.657 250.996 126.827C251.885 128.048 252.84 129.22 253.857 130.338C253.909 130.294 252.719 128.655 251.193 126.678C249.668 124.701 248.385 123.127 248.328 123.171Z" fill="#E0E0E0"/>
<path d="M254.135 129.826C254.18 129.878 255.346 129.019 256.771 127.929C257.649 127.295 258.478 126.596 259.252 125.839C259.208 125.782 258.042 126.646 256.617 127.731C255.193 128.817 254.095 129.769 254.135 129.826Z" fill="#E0E0E0"/>
<path d="M254.455 141.67C254.77 141.47 255.065 141.239 255.334 140.98C255.863 140.536 256.589 139.923 257.4 139.261C258.212 138.599 258.962 138.01 259.503 137.586C259.811 137.374 260.096 137.13 260.354 136.86C260.013 137.015 259.692 137.212 259.398 137.445C258.829 137.848 258.062 138.401 257.243 139.059C256.424 139.717 255.718 140.363 255.225 140.843C254.935 141.085 254.676 141.363 254.455 141.67Z" fill="#E0E0E0"/>
<path d="M248.324 134.346C248.268 134.39 249.575 136.105 251.242 138.179C252.909 140.254 254.305 141.9 254.357 141.856C253.448 140.531 252.473 139.253 251.436 138.026C249.769 135.952 248.377 134.305 248.324 134.346Z" fill="#E0E0E0"/>
<path d="M196.705 69.5749H143.436C143.436 69.5749 148.149 60.9994 161.866 62.2463C174.966 63.457 175.631 58.0292 182.29 57.3633C188.949 56.6975 194.481 61.8024 196.705 69.5749Z" fill="#EBEBEB"/>
<path d="M149.251 84.2401H120.195C120.195 84.2401 122.766 79.567 130.243 80.2449C137.386 80.8947 137.75 77.9447 141.382 77.5815C145.014 77.2183 148.04 80.0028 149.251 84.2401Z" fill="#F5F5F5"/>
<path d="M119.009 57.0364H89.9528C89.9528 57.0364 92.5275 52.3592 100.001 53.0291C107.144 53.6789 107.507 50.7289 111.139 50.3657C114.771 50.0025 117.798 52.7991 119.009 57.0364Z" fill="#FAFAFA"/>
<path d="M1.95718 182.373C1.95718 182.433 63.8505 182.478 140.179 182.478C216.508 182.478 278.413 182.433 278.413 182.373C278.413 182.312 216.536 182.268 140.179 182.268C63.8223 182.268 1.95718 182.316 1.95718 182.373Z" fill="#263238"/>
<path d="M19.9518 142.586C18.0403 144.645 16.9396 147.326 16.8535 150.134C16.7675 152.941 17.7019 155.685 19.4837 157.857C21.106 159.801 23.1481 161.352 25.4563 162.393L45.2871 171.327L59.2945 173.495L242.614 172.332L254.103 170.085C256.787 169.559 259.2 168.108 260.923 165.985C262.646 163.861 263.569 161.2 263.53 158.466L263.413 150.484C263.403 149.884 263.202 149.302 262.839 148.824C262.476 148.346 261.971 147.996 261.395 147.824L260.588 147.574C260.588 147.574 259.91 139.749 255.189 137.978C237.981 130.564 226.593 128.183 197.791 126.981L173.469 112.453C173.469 112.453 163.65 106.177 154.501 105.354C145.353 104.531 124.638 104.523 115.151 105.068C104.008 105.709 89.8719 110.778 81.9865 114.688C75.8121 117.751 60.9491 125.318 60.9491 125.318L52.543 126.726C51.2758 126.787 28.0593 128.203 25.3918 128.611C24.4214 128.769 23.5134 129.191 22.7678 129.832C22.0223 130.473 21.4682 131.307 21.1665 132.243C20.5007 134.447 19.9559 142.538 19.9559 142.538" fill="#7467F0"/>
<path d="M90.9132 115.1C94.8761 113.119 105.506 110.387 111.45 109.273C117.395 108.159 129.477 108.006 134.303 108.127C139.13 108.248 152.544 108.482 159.615 110.487C163.247 111.521 169.094 114.547 172.528 117.082C173.739 117.961 178.921 122.033 180.079 122.957L189.078 131.359L78.5038 127.869C78.5038 127.869 77.8662 124.015 79.8557 121.795C81.8453 119.575 90.9132 115.1 90.9132 115.1Z" fill="#263238"/>
<path d="M254.946 147.102L260.539 147.021C260.321 145.512 259.583 141.501 257.19 139.253L249.784 139.362C249.477 139.366 249.176 139.452 248.912 139.61C248.649 139.769 248.432 139.994 248.284 140.263C248.136 140.533 248.062 140.837 248.07 141.144C248.077 141.452 248.166 141.751 248.327 142.013L249.675 144.204C250.228 145.103 251.004 145.842 251.928 146.35C252.852 146.858 253.892 147.117 254.946 147.102Z" fill="#FAFAFA"/>
<path d="M254.268 146.763C253.687 144.301 252.953 141.065 250.874 139.346H249.785C249.477 139.35 249.177 139.436 248.913 139.594C248.649 139.752 248.433 139.978 248.284 140.247C248.136 140.517 248.062 140.821 248.07 141.128C248.078 141.435 248.167 141.735 248.328 141.997L249.676 144.188C250.174 145.001 250.858 145.685 251.671 146.183C252.483 146.682 253.403 146.982 254.353 147.058L254.268 146.763Z" fill="#E0E0E0"/>
<g opacity="0.7">
<path opacity="0.7" d="M199.994 172.671C199.401 169.794 199.273 166.84 199.615 163.922C201.06 151.505 209.191 142.57 221.476 142.393C232.166 142.239 240.996 148.918 242.8 161.287C243.327 164.979 243.202 168.736 242.428 172.385L199.994 172.671Z" fill="black"/>
</g>
<g opacity="0.7">
<path opacity="0.7" d="M45.311 171.38C45.311 170.924 45.3634 170.456 45.3715 169.972C45.5894 154.301 56.102 143.446 68.6042 143.264C74.0974 143.191 79.3953 145.3 83.3356 149.128C87.2758 152.956 89.5364 158.191 89.6214 163.684C89.6738 167.171 89.8393 170.452 89.4277 173.345L59.3184 173.547L45.311 171.38Z" fill="black"/>
</g>
<path d="M86.9425 163.72C86.994 167.29 85.9857 170.795 84.0453 173.792C82.1048 176.789 79.3193 179.143 76.0409 180.557C72.7626 181.97 69.1386 182.38 65.6274 181.734C62.1161 181.088 58.8753 179.415 56.3146 176.928C53.754 174.44 51.9886 171.249 51.2417 167.757C50.4948 164.266 50.7999 160.632 52.1184 157.314C53.437 153.996 55.7098 151.144 58.6493 149.118C61.5889 147.092 65.0633 145.983 68.6331 145.932C73.42 145.863 78.0383 147.698 81.4719 151.034C84.9056 154.37 86.8734 158.934 86.9425 163.72Z" fill="#263238"/>
<path d="M86.9425 163.676V163.72C86.9766 166.091 86.5436 168.445 85.668 170.648C84.7924 172.851 83.4915 174.86 81.8395 176.561C80.1875 178.261 78.2167 179.619 76.0397 180.558C73.8627 181.497 71.5222 181.998 69.1517 182.032C66.7812 182.066 64.4272 181.633 62.224 180.757C60.0209 179.882 58.0118 178.581 56.3114 176.929C54.6111 175.277 53.2527 173.306 52.314 171.129C51.3753 168.952 50.8745 166.612 50.8404 164.241C50.8404 164.241 50.8404 164.213 50.8404 164.197L86.9425 163.676Z" fill="#263238"/>
<path d="M81.5668 163.801C81.5993 166.307 80.8881 168.767 79.5232 170.869C78.1583 172.97 76.2009 174.621 73.8984 175.61C71.596 176.6 69.0517 176.885 66.5873 176.43C64.1228 175.974 61.8488 174.798 60.0526 173.05C58.2563 171.302 57.0185 169.061 56.4955 166.61C55.9725 164.159 56.1879 161.608 57.1144 159.279C58.0409 156.951 59.6369 154.949 61.7007 153.527C63.7645 152.105 66.2035 151.327 68.7095 151.291C70.3755 151.267 72.0299 151.572 73.578 152.188C75.1261 152.803 76.5376 153.719 77.7318 154.88C78.926 156.042 79.8793 157.428 80.5374 158.959C81.1954 160.49 81.5452 162.135 81.5668 163.801Z" fill="#FAFAFA"/>
<path d="M68.7174 151.307C70.3833 151.284 72.0374 151.589 73.5853 152.205C75.1332 152.821 76.5445 153.736 77.7385 154.898C78.9326 156.06 79.886 157.445 80.5442 158.976C81.2024 160.506 81.5526 162.151 81.5747 163.817L56.2274 164.181C56.2012 162.515 56.5036 160.86 57.1173 159.312C57.731 157.763 58.644 156.35 59.804 155.155C60.964 153.959 62.3483 153.004 63.8777 152.344C65.4072 151.684 67.0517 151.331 68.7174 151.307Z" fill="#E0E0E0"/>
<path d="M76.611 163.87C76.6332 165.397 76.2021 166.896 75.3723 168.178C74.5424 169.459 73.3511 170.466 71.9489 171.071C70.5468 171.676 68.9968 171.851 67.495 171.575C65.9932 171.298 64.6071 170.583 63.512 169.519C62.4168 168.455 61.6618 167.09 61.3425 165.596C61.0231 164.103 61.1538 162.549 61.7179 161.13C62.282 159.711 63.2543 158.491 64.5117 157.625C65.7691 156.758 67.2552 156.284 68.782 156.263C70.8289 156.234 72.8035 157.019 74.2716 158.445C75.7398 159.872 76.5812 161.823 76.611 163.87Z" fill="#263238"/>
<path d="M220.315 182.491C210.353 182.044 202.64 173.606 203.087 163.645C203.534 153.683 211.972 145.97 221.934 146.418C231.895 146.865 239.608 155.303 239.161 165.264C238.714 175.226 230.276 182.939 220.315 182.491Z" fill="#263238"/>
<path d="M239.159 164.14C239.159 164.14 239.159 164.172 239.159 164.189C239.228 168.976 237.393 173.595 234.056 177.029C230.72 180.463 226.156 182.431 221.368 182.5C216.581 182.569 211.962 180.733 208.528 177.397C205.094 174.061 203.126 169.497 203.057 164.709V164.661L239.159 164.14Z" fill="#263238"/>
<path d="M233.772 164.265C233.808 166.772 233.1 169.234 231.738 171.338C230.375 173.443 228.419 175.096 226.117 176.089C223.814 177.082 221.269 177.37 218.803 176.916C216.338 176.462 214.062 175.288 212.264 173.54C210.465 171.793 209.226 169.552 208.702 167.1C208.178 164.648 208.392 162.096 209.319 159.766C210.245 157.436 211.842 155.433 213.906 154.011C215.971 152.589 218.411 151.811 220.918 151.775C224.279 151.728 227.521 153.017 229.931 155.359C232.341 157.701 233.723 160.905 233.772 164.265Z" fill="#FAFAFA"/>
<path d="M220.931 151.775C224.289 151.731 227.528 153.022 229.936 155.363C232.343 157.705 233.723 160.907 233.772 164.265L208.425 164.632C208.401 162.967 208.705 161.313 209.321 159.765C209.937 158.217 210.851 156.806 212.013 155.612C213.174 154.418 214.56 153.464 216.09 152.806C217.62 152.148 219.265 151.797 220.931 151.775Z" fill="#E0E0E0"/>
<path d="M228.832 164.338C228.857 165.865 228.428 167.365 227.6 168.648C226.772 169.932 225.582 170.94 224.18 171.547C222.778 172.154 221.228 172.331 219.726 172.056C218.223 171.782 216.836 171.068 215.739 170.005C214.643 168.941 213.886 167.577 213.566 166.084C213.245 164.59 213.374 163.036 213.937 161.616C214.5 160.196 215.472 158.975 216.729 158.108C217.986 157.241 219.472 156.766 220.999 156.743C223.045 156.713 225.019 157.496 226.487 158.92C227.956 160.344 228.8 162.292 228.832 164.338Z" fill="#263238"/>
<g opacity="0.4">
<path opacity="0.4" d="M256.036 160.31C256.064 162.328 257.089 163.942 258.32 163.942C259.551 163.942 260.532 162.268 260.503 160.246C260.475 158.224 259.45 156.614 258.215 156.614C256.98 156.614 256.008 158.289 256.036 160.31Z" fill="black"/>
</g>
<path d="M19.9517 142.586C20.0661 142.608 20.1824 142.617 20.2987 142.615L21.2996 142.651C22.1672 142.671 23.4223 142.699 24.9679 142.764C26.5135 142.828 28.3618 142.909 30.4038 143.075C32.6155 143.239 34.8124 143.563 36.9777 144.043C38.0892 144.304 39.171 144.679 40.2061 145.161C41.158 145.637 42.0506 146.224 42.8656 146.908C44.4798 148.163 45.6905 149.556 46.8083 150.649C47.6584 151.537 48.606 152.327 49.6332 153.002C49.9167 153.181 50.212 153.34 50.517 153.478C50.6193 153.535 50.7276 153.579 50.8398 153.611C50.8398 153.587 50.408 153.393 49.6897 152.917C48.6895 152.217 47.7657 151.413 46.9334 150.52C45.8479 149.418 44.6372 148.002 43.0109 146.723C42.1858 146.021 41.2794 145.421 40.3111 144.935C39.2604 144.44 38.1608 144.058 37.0302 143.793C34.851 143.31 32.6387 142.99 30.4118 142.836C28.3618 142.687 26.5135 142.61 24.9638 142.578C23.4142 142.546 22.1389 142.542 21.2874 142.55H20.2866C20.1741 142.552 20.0621 142.565 19.9517 142.586Z" fill="#263238"/>
<g opacity="0.5">
<path opacity="0.5" d="M45.876 171.703C45.8059 171.652 45.7331 171.605 45.6581 171.562C45.4467 171.422 45.2433 171.271 45.0487 171.11C44.3159 170.469 43.7448 169.664 43.382 168.761C42.8234 167.323 42.6226 165.77 42.7969 164.237C43.0065 162.205 43.4119 160.198 44.0076 158.244C44.7046 155.871 45.6799 153.588 46.9131 151.444C48.3344 148.985 50.1489 146.775 52.2845 144.903C54.636 142.825 57.4023 141.27 60.4 140.342C63.6343 139.399 67.0243 139.109 70.3718 139.491C73.7227 139.847 77.002 140.699 80.1016 142.021C82.8872 143.119 85.4073 144.797 87.4947 146.943C89.582 149.09 91.1888 151.656 92.2082 154.471C93.0843 156.785 93.7146 159.184 94.0888 161.63C94.2664 162.752 94.3996 163.825 94.4924 164.858C94.6007 165.814 94.6412 166.775 94.6134 167.736C94.5569 169.528 93.9718 171.061 93.0557 171.937C92.3876 172.651 91.4826 173.099 90.5093 173.196C90.1705 173.205 89.8319 173.174 89.5004 173.103L89.7506 173.176C90.001 173.231 90.2571 173.255 90.5133 173.248C91.5059 173.169 92.4347 172.728 93.1243 172.009C94.0727 171.122 94.6901 169.556 94.7385 167.744C94.7736 166.776 94.7399 165.806 94.6377 164.842C94.5529 163.821 94.4238 162.744 94.2543 161.614C93.8892 159.152 93.2643 156.736 92.3899 154.406C91.8936 153.111 91.2944 151.857 90.5981 150.657C89.8483 149.388 88.9663 148.202 87.9669 147.118C85.7763 144.821 83.1248 143.012 80.1863 141.811C77.0652 140.474 73.7609 139.613 70.384 139.257C66.9971 138.865 63.5661 139.159 60.2951 140.121C57.2639 141.062 54.4683 142.638 52.0948 144.745C49.945 146.638 48.1208 148.871 46.6952 151.356C44.4581 155.322 43.0753 159.713 42.6355 164.245C42.4831 165.793 42.7089 167.355 43.2933 168.797C43.6715 169.709 44.264 170.516 45.0205 171.15C45.2806 171.37 45.5682 171.556 45.876 171.703Z" fill="white"/>
</g>
<path d="M242.42 161.283C242.628 161.065 242.823 160.834 243.005 160.593C243.535 159.972 244.121 159.402 244.756 158.89C246.882 157.225 249.371 156.087 252.02 155.569C254.68 155.07 257.39 154.897 260.092 155.052C261.129 155.088 261.968 155.141 262.549 155.169C262.849 155.201 263.152 155.209 263.453 155.193C263.379 155.168 263.301 155.153 263.223 155.149L262.557 155.068C261.98 155.008 261.141 154.931 260.1 154.87C257.385 154.663 254.656 154.812 251.98 155.314C249.286 155.838 246.763 157.022 244.639 158.761C244.006 159.292 243.432 159.89 242.928 160.544C242.784 160.72 242.649 160.903 242.525 161.093C242.483 161.153 242.448 161.216 242.42 161.283Z" fill="#263238"/>
<path d="M242.533 147.865C242.533 147.937 246.843 147.933 252.158 147.865C257.473 147.796 261.779 147.667 261.779 147.594C261.779 147.522 257.469 147.53 252.154 147.594C246.839 147.659 242.529 147.772 242.533 147.865Z" fill="#263238"/>
<g opacity="0.5">
<path opacity="0.5" d="M193.683 170.807C193.687 170.725 193.687 170.643 193.683 170.561C193.683 170.387 193.683 170.157 193.683 169.838C193.683 169.52 193.683 169.124 193.731 168.66C193.78 168.196 193.788 167.659 193.848 167.046C194.163 163.645 194.899 160.297 196.04 157.078C196.819 154.851 197.779 152.692 198.909 150.621C200.173 148.237 201.716 146.011 203.506 143.991C205.497 141.764 207.966 140.017 210.729 138.882C213.697 137.664 216.868 137.015 220.076 136.969C221.696 136.954 223.316 137.07 224.918 137.316C226.472 137.581 228.003 137.966 229.499 138.466C230.938 138.961 232.335 139.573 233.675 140.294L234.168 140.556L234.644 140.843L235.592 141.408L236.484 142.025L236.928 142.332L237.332 142.667C239.472 144.314 241.336 146.292 242.852 148.527C244.178 150.472 245.252 152.578 246.048 154.794C246.702 156.626 247.171 158.518 247.449 160.444C247.542 161.295 247.646 162.086 247.663 162.821C247.679 163.555 247.699 164.225 247.695 164.838C247.691 165.452 247.63 165.976 247.61 166.453C247.59 166.929 247.525 167.308 247.485 167.623C247.445 167.938 247.42 168.168 247.396 168.341C247.372 168.515 247.396 168.587 247.396 168.587C247.396 168.587 247.396 168.507 247.445 168.345C247.493 168.184 247.509 167.942 247.558 167.631C247.606 167.32 247.679 166.925 247.707 166.461C247.735 165.997 247.82 165.46 247.816 164.846C247.812 164.233 247.856 163.563 247.816 162.829C247.776 162.094 247.707 161.291 247.618 160.436C247.357 158.5 246.897 156.596 246.246 154.753C245.457 152.517 244.385 150.391 243.058 148.426C241.534 146.167 239.66 144.165 237.505 142.497L237.081 142.163L236.633 141.852L235.733 141.222L234.785 140.645L234.309 140.355L233.813 140.092C232.463 139.36 231.055 138.74 229.603 138.24C228.094 137.733 226.548 137.343 224.979 137.074C223.359 136.824 221.722 136.707 220.084 136.723C216.847 136.773 213.649 137.433 210.657 138.668C207.86 139.815 205.359 141.58 203.34 143.829C201.551 145.879 200.011 148.133 198.752 150.544C197.624 152.624 196.671 154.793 195.903 157.03C194.772 160.266 194.059 163.633 193.78 167.05C193.67 168.299 193.637 169.554 193.683 170.807Z" fill="white"/>
</g>
<path d="M52.5229 126.965C52.513 127.052 52.513 127.14 52.5229 127.227C52.5471 127.429 52.5793 127.675 52.6197 127.978C52.7085 128.627 52.8417 129.568 52.9264 130.734C53.0491 132.096 52.9867 133.468 52.7408 134.814C52.4233 136.455 51.6337 137.969 50.4688 139.168C49.2877 140.351 47.8755 141.279 46.3202 141.892C45.0533 142.39 43.7428 142.768 42.4057 143.022C41.2556 143.252 40.3153 143.393 39.6696 143.498L38.923 143.623C38.835 143.634 38.7484 143.654 38.6648 143.684C38.7529 143.699 38.8429 143.699 38.9311 143.684L39.6817 143.607C40.3355 143.531 41.2959 143.418 42.438 143.204C43.8019 142.971 45.139 142.602 46.4292 142.102C48.0241 141.489 49.4721 140.547 50.6786 139.338C51.867 138.102 52.6668 136.544 52.9789 134.858C53.2164 133.492 53.2626 132.1 53.1161 130.722C53.0031 129.547 52.8417 128.607 52.7125 127.961C52.652 127.639 52.5995 127.388 52.5632 127.219C52.561 127.133 52.5475 127.047 52.5229 126.965Z" fill="#263238"/>
<path d="M144.239 136.844C144.166 136.826 144.091 136.819 144.017 136.823C143.802 136.813 143.587 136.824 143.375 136.856C143.199 136.877 143.031 136.935 142.879 137.027C142.728 137.119 142.599 137.242 142.499 137.388C142.364 137.584 142.283 137.811 142.264 138.048C142.246 138.285 142.291 138.523 142.394 138.736C142.528 138.988 142.713 139.208 142.938 139.382C143.162 139.557 143.421 139.682 143.698 139.749C144.314 139.882 144.948 139.913 145.574 139.842L149.82 139.6C150.209 139.595 150.594 139.522 150.958 139.386C151.141 139.315 151.307 139.206 151.446 139.067C151.585 138.928 151.694 138.762 151.765 138.579C151.819 138.391 151.828 138.194 151.79 138.002C151.753 137.811 151.671 137.631 151.551 137.477C151.338 137.185 151.039 136.966 150.695 136.852C150.084 136.689 149.451 136.625 148.819 136.662C148.238 136.662 147.693 136.662 147.205 136.702L144.868 136.803C144.581 136.797 144.294 136.812 144.009 136.848C144.081 136.869 144.155 136.878 144.231 136.876C144.376 136.876 144.59 136.896 144.868 136.9C145.421 136.9 146.22 136.9 147.209 136.9C147.701 136.9 148.242 136.9 148.823 136.9C149.428 136.874 150.034 136.942 150.619 137.102C150.915 137.2 151.172 137.389 151.353 137.643C151.45 137.765 151.516 137.909 151.546 138.062C151.577 138.215 151.57 138.373 151.527 138.522C151.466 138.674 151.375 138.811 151.258 138.925C151.141 139.039 151.002 139.128 150.849 139.184C150.511 139.307 150.155 139.371 149.796 139.374L145.554 139.636C144.951 139.711 144.339 139.69 143.742 139.576C143.489 139.521 143.251 139.414 143.042 139.261C142.834 139.108 142.66 138.913 142.532 138.688C142.437 138.502 142.393 138.294 142.405 138.086C142.416 137.878 142.482 137.676 142.596 137.501C142.681 137.363 142.794 137.243 142.928 137.152C143.063 137.06 143.215 136.997 143.375 136.969C143.928 136.856 144.243 136.872 144.239 136.844Z" fill="#263238"/>
<path d="M87.1478 136.371C87.0742 136.36 86.9994 136.36 86.9258 136.371C86.7114 136.361 86.4964 136.372 86.2842 136.404C86.1089 136.426 85.9402 136.484 85.7893 136.576C85.6383 136.668 85.5085 136.791 85.4084 136.936C85.273 137.132 85.192 137.359 85.1735 137.596C85.1551 137.833 85.1999 138.071 85.3035 138.284C85.4371 138.536 85.6223 138.756 85.8469 138.93C86.0716 139.105 86.3306 139.23 86.607 139.297C87.2259 139.431 87.8626 139.462 88.4916 139.39L92.737 139.148C93.1254 139.142 93.5101 139.071 93.875 138.938C94.0582 138.867 94.2246 138.758 94.3635 138.619C94.5025 138.48 94.611 138.314 94.6822 138.131C94.7386 137.944 94.749 137.746 94.7125 137.554C94.676 137.363 94.5936 137.182 94.4723 137.029C94.258 136.738 93.9593 136.52 93.6168 136.404C93.005 136.243 92.3718 136.179 91.7402 136.214C91.1591 136.214 90.6143 136.234 90.126 136.254L87.7854 136.355C87.4996 136.354 87.214 136.369 86.9299 136.4C87.0019 136.421 87.0768 136.43 87.1518 136.428C87.2971 136.428 87.511 136.448 87.7894 136.456C88.3423 136.456 89.1413 136.456 90.1301 136.456C90.6224 136.456 91.1632 136.456 91.7443 136.456C92.3497 136.43 92.9556 136.498 93.5401 136.658C93.8372 136.756 94.0948 136.947 94.2746 137.203C94.3713 137.324 94.4376 137.467 94.4677 137.62C94.4979 137.772 94.4912 137.929 94.4481 138.079C94.3877 138.23 94.2961 138.367 94.1793 138.481C94.0626 138.595 93.9231 138.684 93.7701 138.74C93.4321 138.863 93.0762 138.928 92.7168 138.934L88.4755 139.192C87.8721 139.269 87.2604 139.248 86.6635 139.132C86.4112 139.077 86.1731 138.97 85.9646 138.818C85.756 138.666 85.5817 138.472 85.4528 138.248C85.36 138.061 85.3171 137.853 85.3284 137.644C85.3397 137.436 85.4048 137.234 85.5174 137.058C85.6036 136.923 85.7171 136.808 85.8506 136.719C85.984 136.631 86.1345 136.572 86.2922 136.545C86.837 136.384 87.1518 136.4 87.1478 136.371Z" fill="#263238"/>
<path d="M78.5443 127.869C78.5443 127.869 78.5443 127.945 78.6008 128.095C78.6573 128.244 78.7017 128.474 78.7824 128.768L79.5048 131.375C80.1465 133.664 81.0827 137.025 82.2772 141.263V141.287H82.3014C84.3286 142.235 86.2007 143.484 87.8544 144.991C88.7901 145.837 89.6552 146.757 90.4412 147.744C91.2767 148.804 92.0321 149.925 92.7011 151.097C94.1385 153.677 95.2243 156.438 95.9295 159.306C96.7421 162.46 97.1623 165.702 97.1805 168.959V169.055H97.2734H137.758L189.978 169.035H190.055V168.963C191.399 158.276 192.206 149.479 192.718 143.325C192.969 140.258 193.122 137.861 193.251 136.23C193.304 135.423 193.344 134.794 193.372 134.37C193.4 133.946 193.417 133.74 193.417 133.74C193.417 133.74 193.392 133.954 193.36 134.374C193.328 134.794 193.275 135.419 193.215 136.23C193.082 137.844 192.884 140.266 192.634 143.321C192.105 149.451 191.253 158.252 189.926 168.963L190.006 168.89H137.786H97.3016L97.3944 168.987C97.3709 165.719 96.9453 162.466 96.1273 159.302C95.4068 156.42 94.3048 153.647 92.8504 151.057C92.1761 149.878 91.4139 148.752 90.5703 147.687C89.7775 146.698 88.9056 145.775 87.9633 144.927C86.2949 143.417 84.4078 142.168 82.366 141.222L82.3983 141.259L79.5734 131.388C79.2465 130.254 78.9963 129.37 78.8228 128.785C78.738 128.494 78.6735 128.272 78.625 128.119C78.5766 127.965 78.5443 127.869 78.5443 127.869Z" fill="#263238"/>
<path d="M136.741 129.915C136.737 129.948 136.737 129.982 136.741 130.015C136.741 130.092 136.761 130.189 136.773 130.31C136.805 130.584 136.854 130.964 136.914 131.44C136.975 131.916 137.056 132.534 137.128 133.232C137.201 133.93 137.302 134.725 137.374 135.609C137.447 136.493 137.54 137.453 137.6 138.49C137.661 139.527 137.722 140.641 137.778 141.807C137.855 144.144 137.875 146.719 137.778 149.414C137.681 152.11 137.487 154.681 137.249 157.005C137.12 158.168 137.003 159.273 136.846 160.302C136.688 161.331 136.563 162.292 136.422 163.168C136.281 164.043 136.136 164.826 136.019 165.52C135.901 166.214 135.784 166.808 135.684 167.292C135.583 167.776 135.522 168.139 135.47 168.41L135.417 168.704C135.412 168.738 135.412 168.772 135.417 168.805C135.433 168.775 135.444 168.742 135.449 168.708C135.471 168.633 135.495 168.536 135.522 168.418C135.583 168.147 135.667 167.776 135.776 167.308C135.885 166.84 136.019 166.235 136.148 165.54C136.277 164.846 136.446 164.068 136.584 163.192C136.721 162.316 136.894 161.36 137.031 160.327C137.169 159.293 137.314 158.192 137.435 157.025C137.681 154.697 137.883 152.126 137.98 149.422C138.077 146.719 138.036 144.144 137.952 141.799C137.891 140.629 137.843 139.519 137.754 138.478C137.665 137.437 137.592 136.46 137.5 135.593C137.407 134.725 137.31 133.918 137.225 133.22C137.14 132.522 137.052 131.92 136.975 131.432C136.898 130.944 136.838 130.576 136.793 130.306L136.741 130.011C136.746 129.979 136.746 129.947 136.741 129.915Z" fill="#263238"/>
<path d="M192.928 128.764C194.219 129.733 196.156 129.975 197.73 129.648C199.304 129.321 200.555 128.591 201.362 127.191L197.811 127.033L192.928 128.764Z" fill="#263238"/>
<path d="M197.819 127.033C197.819 127.033 194.236 129.216 193.195 128.918C192.153 128.619 175.438 115.415 165.369 110.318C166.355 109.952 167.385 109.719 168.432 109.624C168.432 109.624 173.122 111.997 178.973 115.516C183.412 118.195 187.952 121.004 190.071 122.295L197.819 127.033Z" fill="#455A64"/>
<path d="M186.358 129.834L186.475 129.907L186.826 130.112L188.198 130.891L193.372 133.793C196.6 133.676 200.777 133.591 205.551 133.793C207.936 133.898 210.47 134.067 213.11 134.338C215.749 134.608 218.497 134.983 221.31 135.431C226.237 136.198 230.882 137.171 235.136 137.949C238.905 138.636 242.712 139.093 246.536 139.317C249.801 139.503 252.452 139.455 254.276 139.402C255.192 139.374 255.891 139.338 256.379 139.309L256.928 139.273C256.989 139.276 257.051 139.276 257.113 139.273C257.113 139.273 257.049 139.273 256.924 139.273H256.379C255.899 139.273 255.168 139.313 254.276 139.33C252.448 139.358 249.805 139.382 246.544 139.176C242.741 138.933 238.956 138.466 235.208 137.776C230.963 136.969 226.31 136.008 221.378 135.237C218.554 134.79 215.813 134.43 213.166 134.148C210.519 133.865 207.98 133.716 205.591 133.623C200.813 133.438 196.644 133.547 193.4 133.684H193.436L188.23 130.859L186.842 130.108L186.483 129.919C186.445 129.885 186.403 129.856 186.358 129.834Z" fill="#263238"/>
<path d="M182.553 130.25C157.177 129.116 105.99 128.171 80.6144 127.021C80.6144 127.021 79.779 124.233 82.1681 122.489C83.0357 121.856 88.3061 117.868 94.4604 115.524C102.008 112.707 109.885 110.866 117.899 110.048C122.419 109.68 130.688 109.345 130.688 109.345C130.688 109.345 145.825 109.951 150.058 110.33C155.382 110.772 160.58 112.187 165.393 114.503C170.66 117.142 179.865 124.862 179.865 124.862L186.322 130.262L182.553 130.25Z" fill="#455A64"/>
<path d="M135.853 108.615L140.752 129.555L131.87 129.273L130.102 108.615H135.853Z" fill="#263238"/>
<path d="M97.4592 113.684L98.3228 127.873H97.0879L96.2525 114.127L97.4592 113.684Z" fill="#263238"/>
<path d="M181.592 125.447C181.189 125.968 178.949 131.036 178.949 131.036L187.521 130.476L181.592 125.447Z" fill="#263238"/>
<path d="M173.553 130.532L180.099 130.714C180.958 130.714 181.636 129.172 181.608 127.296C181.584 125.617 181.003 124.2 180.236 123.954L174.033 121.989L173.553 130.532Z" fill="#7467F0"/>
<path d="M133.073 108.377C133.017 108.377 133.711 113.155 134.619 119.035C135.527 124.915 136.318 129.672 136.374 129.66C136.431 129.648 135.741 124.882 134.829 119.002C133.917 113.123 133.134 108.365 133.073 108.377Z" fill="#455A64"/>
<path d="M181.338 125.136C181.558 125.902 181.895 126.629 182.338 127.291C182.722 127.99 183.213 128.624 183.795 129.168C183.844 129.128 183.19 128.296 182.516 127.183C181.842 126.069 181.394 125.112 181.338 125.136Z" fill="#455A64"/>
<path d="M145.119 112.424C145.145 112.484 145.177 112.541 145.216 112.594L145.518 113.066C145.805 113.502 146.192 114.083 146.66 114.785C147.633 116.234 148.969 118.236 150.426 120.463C151.882 122.691 153.178 124.717 154.114 126.186L155.232 127.921C155.353 128.111 155.458 128.264 155.543 128.389C155.575 128.446 155.614 128.499 155.66 128.547C155.66 128.547 155.639 128.482 155.579 128.369L155.3 127.881C155.054 127.457 154.695 126.852 154.243 126.109C153.335 124.616 152.056 122.574 150.611 120.346C149.166 118.119 147.786 116.129 146.798 114.696C146.297 113.986 145.886 113.409 145.587 113.018C145.45 112.84 145.341 112.691 145.248 112.566C145.155 112.441 145.127 112.42 145.119 112.424Z" fill="#EBEBEB"/>
<path d="M148.844 115.58C149.451 116.611 150.118 117.605 150.841 118.559C151.505 119.554 152.229 120.508 153.008 121.416C152.4 120.385 151.733 119.391 151.011 118.437C150.346 117.443 149.622 116.489 148.844 115.58Z" fill="#EBEBEB"/>
<path d="M20.0285 141.468C20.0285 141.468 22.1351 141.602 23.7251 140.92C24.3283 140.665 24.8741 140.292 25.33 139.823C25.786 139.353 26.1426 138.796 26.3788 138.186C26.6149 137.575 26.7257 136.924 26.7045 136.269C26.6833 135.615 26.5306 134.972 26.2554 134.378L26.2312 134.329C25.8668 133.573 25.3006 132.931 24.595 132.475C23.8893 132.02 23.0717 131.768 22.2319 131.747H21.3522C21.0262 132.402 20.8315 133.115 20.7791 133.845C20.541 135.758 20.1819 138.692 20.0285 141.468Z" fill="#F5F5F5"/>
<path d="M113.246 113.102C113.197 113.135 115.134 116.27 117.572 120.108C120.009 123.946 122.011 127.029 122.076 126.997C122.14 126.965 120.191 123.833 117.749 119.995C115.308 116.157 113.294 113.07 113.246 113.102Z" fill="#EBEBEB"/>
<path d="M113.916 117.061C114.336 117.903 114.819 118.713 115.36 119.483C115.84 120.295 116.379 121.071 116.975 121.803C116.552 120.962 116.067 120.152 115.526 119.382C115.047 118.569 114.509 117.794 113.916 117.061Z" fill="#EBEBEB"/>
<path d="M175.051 123.203C176.645 123.958 178.349 124.455 180.099 124.676C180.099 124.616 178.969 124.346 177.581 123.938C176.193 123.53 175.071 123.147 175.051 123.203Z" fill="#EBEBEB"/>
<path d="M139.921 132.07C139.921 132.13 150.571 132.175 163.703 132.175C176.834 132.175 187.488 132.13 187.488 132.07C187.488 132.009 176.842 131.965 163.703 131.965C150.563 131.965 139.921 132.013 139.921 132.07Z" fill="#EBEBEB"/>
<path d="M143.416 136.299C144.564 136.405 145.718 136.44 146.871 136.404C148.025 136.44 149.18 136.405 150.329 136.299C149.179 136.195 148.025 136.16 146.871 136.194C145.718 136.16 144.565 136.195 143.416 136.299Z" fill="#EBEBEB"/>
<path d="M220.745 141.093C220.834 141.102 220.923 141.102 221.011 141.093C221.185 141.093 221.439 141.093 221.766 141.093C222.689 141.094 223.61 141.15 224.526 141.263C227.557 141.623 230.475 142.633 233.08 144.224C235.686 145.815 237.917 147.948 239.623 150.48C240.142 151.242 240.614 152.036 241.036 152.857C241.193 153.147 241.294 153.377 241.375 153.531C241.408 153.613 241.451 153.69 241.504 153.761C241.48 153.676 241.449 153.594 241.411 153.515C241.342 153.357 241.254 153.111 241.108 152.82C240.714 151.982 240.259 151.173 239.748 150.399C238.061 147.821 235.821 145.65 233.191 144.045C230.561 142.439 227.607 141.439 224.542 141.117C223.619 141.014 222.69 140.979 221.762 141.012C221.435 141.012 221.181 141.049 221.007 141.061C220.919 141.061 220.831 141.072 220.745 141.093Z" fill="#EBEBEB"/>
<path d="M99.1052 130.952C99.1052 131.008 106.155 131.057 114.844 131.057C123.532 131.057 130.583 131.008 130.583 130.952C130.583 130.895 123.536 130.847 114.844 130.847C106.151 130.847 99.1052 130.891 99.1052 130.952Z" fill="#EBEBEB"/>
<path d="M85.2954 135.681C85.6741 135.714 86.0548 135.714 86.4334 135.681C87.1356 135.681 88.1042 135.645 89.1736 135.637C90.243 135.629 91.2116 135.637 91.9137 135.637C92.2929 135.664 92.6737 135.657 93.0518 135.617C92.6789 135.536 92.2991 135.493 91.9178 135.488C91.2156 135.443 90.2471 135.407 89.1736 135.411C88.1001 135.415 87.1276 135.463 86.4254 135.52C86.0441 135.534 85.6654 135.588 85.2954 135.681Z" fill="#EBEBEB"/>
<path d="M9.5959 159.164C9.07244 159.426 8.60715 159.791 8.22787 160.237C7.84859 160.683 7.56311 161.2 7.38846 161.759C7.04867 162.881 6.96862 164.065 7.1544 165.222C7.45303 167.461 8.76861 169.701 10.177 171.469C12.0334 169.786 12.4168 166.9 12.5176 165.415C12.675 163.087 11.5491 158.773 9.5959 159.156" fill="#8378F3" fill-opacity="0.2"/>
<path d="M8.05022 175.222C8.16715 174.578 8.11151 173.915 7.88894 173.3C7.66636 172.684 7.2848 172.139 6.78307 171.719C6.2779 171.311 5.69688 171.006 5.07353 170.823C4.45018 170.64 3.79682 170.583 3.15107 170.654C2.84879 170.654 2.55039 170.722 2.27701 170.851C2.00364 170.98 1.76196 171.167 1.56912 171.4C1.42378 171.644 1.34707 171.923 1.34707 172.207C1.34707 172.491 1.42378 172.77 1.56912 173.014C1.86377 173.498 2.28155 173.895 2.77978 174.164C4.43436 175.161 6.22213 175.823 8.06234 175.23" fill="#8378F3" fill-opacity="0.2"/>
<path d="M10.6045 182.058C10.5947 181.903 10.5704 181.749 10.5319 181.598C10.4633 181.275 10.3785 180.855 10.2776 180.355C10.0411 178.972 9.58184 177.636 8.91763 176.4C8.22714 175.166 7.22174 174.137 6.00395 173.418C5.63394 173.207 5.2396 173.041 4.82961 172.926C4.71859 172.891 4.60532 172.864 4.49061 172.845C4.41394 172.845 4.37359 172.845 4.37359 172.845C4.92024 173.019 5.44762 173.249 5.94747 173.531C7.12367 174.264 8.0954 175.283 8.77236 176.493C9.42398 177.717 9.89174 179.031 10.1606 180.391C10.2857 180.912 10.3866 181.336 10.4633 181.622C10.4988 181.771 10.546 181.917 10.6045 182.058Z" fill="#263238"/>
<path d="M10.1654 162.534C10.1569 162.601 10.1569 162.669 10.1654 162.736C10.1654 162.885 10.1654 163.075 10.1412 163.313C10.1412 163.817 10.1089 164.544 10.0968 165.444C10.0726 167.244 10.0726 169.729 10.1371 172.474C10.2017 175.218 10.3147 177.7 10.4196 179.5C10.4761 180.395 10.5246 181.114 10.5649 181.622C10.5649 181.86 10.6012 182.05 10.6174 182.199C10.6174 182.268 10.6269 182.335 10.6456 182.401C10.65 182.334 10.65 182.266 10.6456 182.199C10.6456 182.05 10.6456 181.856 10.6456 181.618C10.6214 181.098 10.5931 180.375 10.5528 179.491C10.4761 177.696 10.3793 175.214 10.3147 172.47C10.2501 169.725 10.234 167.223 10.23 165.444C10.23 164.56 10.23 163.829 10.23 163.313C10.23 163.075 10.23 162.885 10.23 162.736C10.214 162.667 10.1924 162.599 10.1654 162.534Z" fill="#263238"/>
<path d="M11.3435 176.517C11.5449 175.151 12.0691 173.853 12.8727 172.73C13.6763 171.607 14.7361 170.692 15.9642 170.06C16.5897 169.746 17.4089 169.536 17.9376 169.992C18.4662 170.448 18.3653 171.299 18.1232 171.957C17.5943 173.323 16.6727 174.501 15.4747 175.344C14.2767 176.186 12.856 176.655 11.3919 176.691" fill="#8378F3" fill-opacity="0.2"/>
<path d="M15.6979 172.215C15.5579 172.263 15.4227 172.324 15.2943 172.397C15.1409 172.473 14.9914 172.556 14.8464 172.647C14.681 172.756 14.4751 172.865 14.2774 173.018C14.0513 173.177 13.8344 173.348 13.6277 173.531C13.3847 173.733 13.1543 173.95 12.9376 174.181C11.9248 175.233 11.1873 176.52 10.7907 177.926C10.7071 178.23 10.6398 178.538 10.5889 178.85C10.5397 179.117 10.5073 179.386 10.492 179.657C10.4719 179.882 10.4652 180.109 10.4719 180.335C10.4703 180.506 10.4783 180.677 10.4961 180.847C10.4992 180.994 10.5181 181.14 10.5526 181.283C10.5889 181.283 10.5122 180.658 10.605 179.669C10.6291 179.398 10.6681 179.129 10.7221 178.862C10.7773 178.556 10.8487 178.253 10.936 177.954C11.1439 177.27 11.4253 176.611 11.7754 175.989C12.1368 175.373 12.5629 174.798 13.0465 174.273C13.2576 174.043 13.4812 173.825 13.7165 173.62C13.9175 173.437 14.1276 173.265 14.346 173.103C15.1491 172.518 15.714 172.248 15.6979 172.215Z" fill="#263238"/>
</svg>
