<svg width="257" height="220" viewBox="0 0 257 220" fill="none" xmlns="http://www.w3.org/2000/svg">
<g filter="url(#filter0_d)">
<path opacity="0.47" d="M235.926 130.043C238.477 116.234 236.554 100.167 229.394 87.8526C221.96 75.0964 210.585 65.8047 205.344 51.3857C202.354 43.1413 201.183 34.2367 197.307 26.3646C178.986 -10.8369 103.845 -9.86906 99.5899 36.9468C99.3009 40.1582 99.4205 43.4589 98.3642 46.5016C97.6888 48.4 96.5852 50.1188 95.1384 51.5257C93.6915 52.9326 91.94 53.9901 90.0185 54.6169C83.8303 56.6023 76.7302 54.8601 70.2928 55.9968C64.4679 57.0438 58.8312 58.9457 53.5665 61.6403C43.0693 67.0541 34.1909 75.13 27.8269 85.0532C15.1713 104.694 14.0702 130.028 28.4547 149.083C36.9648 160.375 49.9143 167.487 63.0383 172.818C88.1451 183.003 115.32 187.848 142.429 187.997C164.353 188.121 186.958 184.969 205.677 173.637C213.526 168.914 220.281 162.586 225.495 155.071C230.709 147.557 234.264 139.026 235.926 130.043Z" fill="#8378F3"/>
<path d="M206.828 120.879C232.441 148.61 202.198 175.386 148.969 176.109C43.1429 169.452 19.2624 79.9902 27.2602 59.9322C35.258 39.8742 59.0727 39.3267 94.3579 80.1876C129.643 121.048 174.812 86.2153 206.828 120.879Z" stroke="white" stroke-width="1.5"/>
<path d="M154.07 37.7199C154.523 40.7802 154.058 43.9062 152.734 46.7022C151.41 49.4981 149.286 51.8381 146.63 53.4259C143.975 55.0136 140.909 55.7777 137.819 55.6213C134.729 55.4648 131.755 54.395 129.274 52.5472C126.793 50.6994 124.916 48.1569 123.88 45.2415C122.845 42.3261 122.699 39.1691 123.459 36.1703C124.219 33.1715 125.853 30.4658 128.152 28.3959C130.451 26.326 133.313 24.985 136.375 24.5427C138.402 24.246 140.468 24.3515 142.454 24.8531C144.44 25.3548 146.308 26.2427 147.951 27.4664C149.595 28.69 150.981 30.2253 152.03 31.9846C153.08 33.7439 153.773 35.6928 154.07 37.7199Z" fill="#F5F5F5"/>
<path d="M150.393 38.2558C150.737 40.587 150.381 42.9678 149.371 45.0969C148.361 47.2259 146.743 49.0075 144.72 50.216C142.697 51.4245 140.361 52.0057 138.007 51.886C135.654 51.7663 133.389 50.951 131.499 49.5434C129.609 48.1358 128.179 46.1991 127.391 43.9786C126.602 41.758 126.49 39.3534 127.069 37.0691C127.647 34.7848 128.891 32.7235 130.641 31.1462C132.392 29.5689 134.571 28.5464 136.903 28.2082C140.024 27.7557 143.197 28.5594 145.726 30.4429C148.254 32.3265 149.933 35.1362 150.393 38.2558Z" fill="#EBEBEB"/>
<path d="M150.338 37.8873C150.267 37.8873 150.14 37.3887 149.82 36.5142C149.372 35.2865 148.737 34.1354 147.937 33.1017C147.389 32.3979 146.765 31.7565 146.077 31.189C145.281 30.5441 144.405 30.0038 143.472 29.5814C142.969 29.3514 142.451 29.1586 141.92 29.0046C140.794 28.6774 139.625 28.5218 138.452 28.5431C137.224 28.5668 136.007 28.7828 134.846 29.1832C134.283 29.3789 133.736 29.6165 133.208 29.894C132.699 30.1609 132.212 30.4669 131.75 30.8094C131.303 31.135 130.883 31.4945 130.492 31.8849C129.118 33.2292 128.096 34.8904 127.515 36.7226C127.119 37.968 126.918 39.2673 126.919 40.5741C126.919 41.5082 126.979 42.0292 126.919 42.0403C126.86 42.0515 126.689 41.5491 126.577 40.5965C126.434 39.237 126.545 37.8628 126.905 36.5439C127.147 35.6348 127.494 34.7569 127.939 33.9279C128.468 32.975 129.124 32.0986 129.889 31.3229C130.302 30.8966 130.747 30.5034 131.221 30.147C131.713 29.7695 132.235 29.4322 132.781 29.1385C133.346 28.8317 133.934 28.5703 134.541 28.357C135.166 28.143 135.807 27.9751 136.457 27.8547C137.11 27.7433 137.771 27.6811 138.433 27.6686C139.076 27.658 139.718 27.7003 140.353 27.7951C140.966 27.8819 141.571 28.0188 142.162 28.2045C142.73 28.3644 143.283 28.5698 143.818 28.8185C145.673 29.6991 147.269 31.0421 148.455 32.7184C149.241 33.8338 149.814 35.0855 150.144 36.41C150.382 37.344 150.39 37.8799 150.338 37.8873Z" fill="#E0E0E0"/>
<path d="M140.967 46.7999L141.295 48.8504L139.464 49.1406L139.147 47.1497C137.32 47.3284 135.489 47.0418 134.358 46.4055L135.009 44.0127C136.174 44.5849 137.469 44.8415 138.764 44.7569L138.273 41.7055C136.167 41.538 133.789 41.2217 133.372 38.6093C133.063 36.6705 134.202 34.7801 137.037 33.9912L136.714 31.9593L138.541 31.6653L138.861 33.66C140.18 33.5233 141.513 33.7019 142.75 34.181L142.195 36.5775C141.256 36.2148 140.254 36.0428 139.248 36.0714L139.746 39.1824C141.849 39.3313 144.19 39.6513 144.603 42.2302C144.908 44.128 143.78 45.9961 140.967 46.7999ZM137.864 39.0149L137.447 36.41C136.513 36.7822 136.215 37.3776 136.312 37.9804C136.408 38.5833 136.996 38.8884 137.864 39.0149ZM141.711 42.9149C141.611 42.2748 141.023 42.0143 140.193 41.8655L140.599 44.3885C141.462 44.0424 141.786 43.5028 141.693 42.9149H141.711Z" fill="#E0E0E0"/>
<path d="M235.619 105.005C235.619 105.005 232.154 103.003 228.57 111.216C224.987 119.429 223.733 124.114 223.733 124.114C223.733 124.114 222.758 125.848 221.548 124.828C220.339 123.809 218.571 120.802 216.662 121.479C214.675 122.179 214.147 124.475 214.731 127.765C215.315 131.054 216.331 138.318 216.42 138.973C216.51 139.628 216.197 140.596 215.259 140.03C214.321 139.464 208.795 134.013 206.362 136.789C203.928 139.565 207.065 148.47 207.392 149.441C207.72 150.413 207.545 150.859 207.087 151.134C206.63 151.41 204.944 149.4 203.31 147.912C201.676 146.423 199.518 144.987 198.249 146.706C196.98 148.425 196.95 155.265 204.084 165.901L207.712 170.619L213.667 169.931C226.285 167.698 231.183 162.927 231.529 160.821C231.875 158.715 229.356 158.157 227.153 158.011C224.95 157.866 222.315 158.045 222.211 157.524C222.106 157.003 222.289 156.579 223.219 156.132C224.149 155.686 232.738 151.771 233.051 148.09C233.363 144.41 225.608 144.217 224.544 143.934C223.48 143.651 223.975 142.747 224.499 142.363C225.024 141.98 230.971 137.667 233.747 135.806C236.523 133.946 237.81 131.97 236.936 130.053C236.095 128.193 232.712 129.022 231.138 128.859C229.564 128.695 230.133 126.79 230.133 126.79C230.133 126.79 232.634 122.629 236.065 114.353C239.496 106.077 235.552 104.964 235.552 104.964" fill="#EBEBEB"/>
<path d="M207.932 169.384C210.477 163.314 214.061 154.964 218.05 145.746C222.039 136.528 225.645 128.193 228.22 122.138L231.268 114.967L232.098 113.017L232.317 112.515C232.37 112.399 232.399 112.343 232.399 112.343C232.383 112.404 232.363 112.464 232.34 112.522L232.135 113.032C231.953 113.49 231.685 114.148 231.342 114.997C230.65 116.701 229.631 119.161 228.365 122.194C225.809 128.263 222.225 136.636 218.243 145.828C214.262 155.02 210.648 163.389 208.073 169.44" fill="#E0E0E0"/>
<path d="M218.947 125.763C219.022 125.887 219.082 126.019 219.126 126.157C219.226 126.414 219.364 126.79 219.532 127.273C219.859 128.207 220.276 129.506 220.711 130.954L221.828 134.656C221.962 135.096 222.073 135.468 222.166 135.773C222.218 135.907 222.253 136.047 222.27 136.19C222.195 136.067 222.135 135.936 222.092 135.799C221.988 135.538 221.85 135.163 221.69 134.683C221.37 133.745 220.972 132.45 220.536 130.995L219.42 127.303L219.078 126.187C219.014 126.052 218.97 125.91 218.947 125.763Z" fill="#E0E0E0"/>
<path d="M222.802 136.264C222.802 136.212 225.429 135.23 228.708 134.068C231.986 132.907 234.662 132.011 234.662 132.066C234.662 132.122 232.035 133.101 228.756 134.262C225.478 135.423 222.821 136.301 222.802 136.264Z" fill="#E0E0E0"/>
<path d="M216.041 150.119C216.184 150.085 216.33 150.068 216.476 150.07L217.671 149.999C218.676 149.94 220.067 149.851 221.597 149.698C223.126 149.545 224.507 149.371 225.504 149.229L226.688 149.069C226.832 149.038 226.979 149.026 227.127 149.032C226.991 149.089 226.848 149.128 226.703 149.147C226.427 149.207 226.025 149.285 225.527 149.374C224.533 149.549 223.152 149.746 221.616 149.903C220.079 150.059 218.687 150.119 217.675 150.141C217.169 150.141 216.763 150.141 216.48 150.141C216.333 150.153 216.186 150.146 216.041 150.119Z" fill="#E0E0E0"/>
<path d="M210.462 141.407C210.462 141.407 210.567 141.511 210.719 141.723C210.872 141.935 211.091 142.24 211.356 142.628C211.88 143.394 212.598 144.466 213.38 145.653C214.161 146.84 214.868 147.923 215.36 148.712C215.609 149.106 215.806 149.43 215.94 149.653C216.018 149.769 216.082 149.894 216.13 150.025C216.03 149.932 215.944 149.826 215.873 149.709C215.721 149.497 215.501 149.188 215.237 148.805C214.712 148.035 213.994 146.967 213.212 145.776C212.431 144.585 211.724 143.506 211.233 142.717C210.983 142.322 210.786 142.002 210.652 141.775C210.575 141.66 210.511 141.537 210.462 141.407Z" fill="#E0E0E0"/>
<path d="M202.938 152.895C203.057 153.02 203.165 153.155 203.259 153.3C203.474 153.609 203.75 153.996 204.077 154.458C204.758 155.44 205.689 156.806 206.704 158.317C207.72 159.827 208.632 161.208 209.283 162.209L210.046 163.404C210.146 163.546 210.232 163.698 210.303 163.858C210.181 163.732 210.073 163.595 209.979 163.448L209.164 162.291C208.483 161.309 207.553 159.947 206.533 158.432C205.514 156.917 204.606 155.54 203.954 154.539C203.649 154.063 203.396 153.661 203.192 153.345C203.09 153.205 203.005 153.054 202.938 152.895Z" fill="#E0E0E0"/>
<path d="M210.198 163.545C210.38 163.501 210.566 163.475 210.753 163.467L212.241 163.325C213.514 163.203 215.274 163.031 217.209 162.786C219.144 162.54 220.893 162.28 222.159 162.079L223.647 161.844C223.829 161.806 224.015 161.786 224.202 161.785C224.026 161.847 223.846 161.893 223.662 161.923C223.312 162.001 222.806 162.105 222.173 162.22C220.916 162.458 219.167 162.745 217.228 162.987C215.289 163.229 213.506 163.385 212.245 163.467C211.605 163.508 211.088 163.538 210.73 163.549C210.553 163.564 210.375 163.563 210.198 163.545Z" fill="#E0E0E0"/>
<path d="M103.404 130.183L32.4796 108.109C31.6042 107.836 30.8729 107.227 30.4465 106.415C30.0201 105.604 29.9335 104.656 30.2059 103.781L43.8445 59.977C43.9781 59.5418 44.1965 59.1373 44.4871 58.7868C44.7777 58.4363 45.1347 58.1467 45.5376 57.9347C45.9406 57.7227 46.3814 57.5924 46.8349 57.5514C47.2883 57.5105 47.7454 57.5595 48.1798 57.6959L119.108 79.7744C119.983 80.0468 120.713 80.6555 121.139 81.4664C121.564 82.2773 121.65 83.2242 121.378 84.0986L107.721 127.913C107.449 128.787 106.842 129.516 106.032 129.942C105.223 130.368 104.278 130.455 103.404 130.183Z" fill="#E0E0E0"/>
<path d="M107.323 88.9736C106.993 90.0318 106.357 90.9684 105.495 91.665C104.633 92.3617 103.584 92.787 102.48 92.8873C101.376 92.9876 100.267 92.7584 99.2935 92.2286C98.32 91.6988 97.5254 90.8922 97.0103 89.9108C96.4951 88.9294 96.2825 87.8173 96.3994 86.7151C96.5163 85.6129 96.9573 84.5701 97.6668 83.7186C98.3763 82.8671 99.3224 82.245 100.385 81.9312C101.448 81.6173 102.581 81.6256 103.639 81.9552C104.342 82.1736 104.995 82.5285 105.561 82.9996C106.127 83.4707 106.594 84.0487 106.936 84.7006C107.278 85.3524 107.489 86.0653 107.555 86.7986C107.621 87.5318 107.542 88.2709 107.323 88.9736Z" fill="white"/>
<path d="M107.721 95.1063C107.377 95.0612 107.037 94.9865 106.705 94.883C105.291 94.4351 104.103 93.4589 103.39 92.1578C102.677 90.8566 102.494 89.3306 102.877 87.8973C103.261 86.464 104.182 85.2339 105.45 84.4628C106.718 83.6918 108.234 83.4392 109.683 83.7577C111.132 84.0762 112.402 84.9412 113.23 86.1727C114.058 87.4043 114.378 88.9075 114.126 90.3695C113.873 91.8315 113.066 93.1398 111.873 94.0221C110.68 94.9044 109.193 95.2927 107.721 95.1063ZM109.109 83.9795C108.094 83.8523 107.064 84.0172 106.139 84.455C105.214 84.8928 104.434 85.5853 103.889 86.4512C103.344 87.3171 103.058 88.3205 103.063 89.3435C103.068 90.3666 103.366 91.3668 103.92 92.2269C104.474 93.087 105.261 93.7712 106.191 94.1992C107.12 94.6272 108.152 94.7812 109.166 94.6432C110.179 94.5052 111.133 94.0809 111.914 93.42C112.695 92.7592 113.271 91.8892 113.575 90.9124C113.997 89.5509 113.863 88.0773 113.2 86.8151C112.537 85.553 111.4 84.6054 110.04 84.1805C109.729 84.0872 109.412 84.0199 109.091 83.9795H109.109Z" fill="white"/>
<path d="M41.6974 91.0613L40.3652 95.3631L39.9224 95.2254L41.1392 91.318L40.127 91.0017L40.2498 90.6073L41.6974 91.0613Z" fill="white"/>
<path d="M44.9054 96.3492L44.7826 96.7436L41.7646 95.8022L41.8651 95.4896L44.1984 94.295C44.831 93.9638 45.0134 93.7033 45.1064 93.4093C45.2627 92.9107 45.0059 92.4939 44.3621 92.2929C44.1468 92.2115 43.9159 92.1796 43.6866 92.1995C43.4572 92.2195 43.2353 92.2909 43.0373 92.4083L42.8066 92.0362C43.0646 91.888 43.3521 91.7985 43.6486 91.7741C43.9451 91.7496 44.2434 91.7908 44.5221 91.8948C45.3967 92.1664 45.8134 92.7842 45.5902 93.5024C45.4599 93.9154 45.218 94.2466 44.4738 94.6188L42.561 95.6012L44.9054 96.3492Z" fill="white"/>
<path d="M49.6685 97.019L48.8052 96.7548L48.4554 97.8712L48.0125 97.7298L48.3623 96.6134L45.936 95.8692L46.0328 95.5491L49.2033 93.4094L49.6946 93.5619L46.6282 95.6533L48.4889 96.2376L48.7977 95.2402L49.2257 95.3742L48.9168 96.3715L49.7764 96.6395L49.6685 97.019Z" fill="white"/>
<path d="M56.2623 99.0732L55.4026 98.8052L55.0491 99.9216L54.6063 99.7839L54.9598 98.6675L52.5298 97.9233L52.6303 97.6033L55.7971 95.4598L56.2883 95.6123L53.2257 97.7074L55.0863 98.288L55.3952 97.2944L55.8269 97.4284L55.5143 98.4219L56.3776 98.6899L56.2623 99.0732Z" fill="white"/>
<path d="M60.0656 100.108C59.8386 100.852 59.1501 101.254 58.097 100.926C57.525 100.769 57.0349 100.399 56.7275 99.8919L57.0513 99.6091C57.3052 100.053 57.7236 100.379 58.2161 100.517C58.9603 100.748 59.4478 100.517 59.6116 99.9887C59.7753 99.4602 59.5446 98.9839 58.4505 98.6416L57.5351 98.3587L58.4282 96.2674L60.7838 97.0116L60.661 97.4061L58.6924 96.7921L58.1193 98.1206L58.6738 98.2918C59.9688 98.6788 60.3037 99.3486 60.0656 100.108Z" fill="white"/>
<path d="M64.3228 101.414C64.0735 102.221 63.2808 102.53 62.4621 102.281C61.3197 101.909 60.9438 100.938 61.3681 99.5793C61.8221 98.1168 62.8566 97.5996 64.0288 97.9643C64.3876 98.0597 64.7141 98.25 64.974 98.515L64.6875 98.8164C64.4787 98.592 64.2102 98.4319 63.9134 98.355C62.9868 98.0647 62.2016 98.4778 61.8407 99.6463C61.8033 99.7624 61.7723 99.8804 61.7476 99.9998C61.9458 99.8005 62.1978 99.6633 62.4728 99.6051C62.7478 99.547 63.0338 99.5703 63.2957 99.6723C64.1293 99.9403 64.5535 100.629 64.3228 101.414ZM63.8837 101.284C64.0586 100.718 63.7534 100.227 63.091 100.018C62.4286 99.81 61.8593 100.082 61.6918 100.614C61.543 101.09 61.7997 101.66 62.5403 101.89C62.6674 101.947 62.8052 101.976 62.9444 101.976C63.0836 101.976 63.2212 101.946 63.3482 101.889C63.4751 101.831 63.5884 101.748 63.6807 101.643C63.773 101.539 63.8422 101.417 63.8837 101.284Z" fill="white"/>
<path d="M70.199 103.297C69.972 104.015 69.2799 104.413 68.2416 104.082C67.6677 103.925 67.1753 103.555 66.8647 103.048L67.1885 102.765C67.4454 103.213 67.8697 103.541 68.3682 103.676C69.0789 103.9 69.5776 103.676 69.7413 103.155C69.9051 102.634 69.6446 102.188 68.8482 101.939L68.5393 101.842L68.6398 101.518L70.2995 100.402L68.0965 99.717L68.2193 99.3225L70.988 100.186L70.8875 100.498L69.1943 101.652C70.1023 101.98 70.4112 102.608 70.199 103.297Z" fill="white"/>
<path d="M74.5265 104.592C74.2771 105.396 73.4845 105.708 72.6472 105.455C71.5047 105.083 71.1289 104.112 71.5531 102.754C72.0071 101.291 73.0417 100.778 74.2139 101.142C74.5729 101.237 74.8995 101.428 75.1591 101.693L74.8725 101.994C74.6641 101.769 74.3956 101.607 74.0985 101.529C73.1682 101.243 72.3867 101.652 72.0257 102.821C71.9879 102.943 71.9569 103.067 71.9327 103.193C72.1299 102.993 72.3811 102.855 72.6554 102.797C72.9298 102.738 73.2153 102.76 73.477 102.861C74.3329 103.115 74.7721 103.803 74.5265 104.592ZM74.0873 104.465C74.2622 103.903 73.9571 103.409 73.2947 103.204C72.6323 102.999 72.0629 103.263 71.8955 103.799C71.7466 104.272 71.9997 104.841 72.7439 105.076C72.8713 105.132 73.0093 105.161 73.1487 105.161C73.2882 105.16 73.4259 105.13 73.5529 105.073C73.6798 105.015 73.7931 104.931 73.8852 104.826C73.9774 104.722 74.0462 104.599 74.0873 104.465Z" fill="white"/>
<path d="M79.4387 102.806L79.3382 103.118L76.2979 106.549L75.8179 106.397L78.7949 103.048L76.5845 102.359L76.3314 103.163L75.896 103.025L76.2681 101.827L79.4387 102.806Z" fill="white"/>
<path d="M85.5788 104.718L85.4821 105.035L82.4381 108.462L81.958 108.313L84.9351 104.964L82.7023 104.276L82.4529 105.083L82.0138 104.945L82.386 103.747L85.5788 104.718Z" fill="white"/>
<path d="M88.8459 109.143C88.6077 109.906 87.8151 110.178 86.788 109.858C85.7609 109.538 85.2772 108.868 85.5153 108.105C85.5871 107.859 85.7414 107.645 85.9521 107.5C86.1628 107.354 86.4172 107.285 86.6727 107.305C86.4937 107.178 86.3606 106.997 86.2935 106.788C86.2264 106.579 86.2289 106.355 86.3005 106.147C86.5164 105.448 87.2495 105.199 88.1612 105.481C89.0729 105.764 89.5418 106.389 89.326 107.089C89.2657 107.304 89.1366 107.493 88.9584 107.627C88.7803 107.762 88.563 107.834 88.3398 107.833C88.5614 107.961 88.7325 108.16 88.8246 108.399C88.9167 108.637 88.9242 108.9 88.8459 109.143ZM88.3956 108.994C88.5594 108.466 88.2058 107.993 87.443 107.755C86.6801 107.517 86.1293 107.71 85.9544 108.239C85.7795 108.767 86.1331 109.247 86.8959 109.482C87.6588 109.716 88.2282 109.53 88.3956 108.994ZM87.5546 107.405C88.2244 107.614 88.7157 107.435 88.8608 106.97C89.0059 106.505 88.6822 106.058 88.0347 105.853C87.3871 105.649 86.8811 105.816 86.7322 106.296C86.5833 106.776 86.881 107.197 87.5546 107.405Z" fill="white"/>
<path d="M93.334 109.471C92.88 110.933 91.8455 111.447 90.6732 111.082C90.3139 110.988 89.9871 110.797 89.728 110.531L90.0146 110.23C90.2217 110.456 90.4909 110.617 90.7886 110.691C91.7152 110.981 92.5004 110.572 92.8614 109.404C92.8949 109.303 92.9246 109.18 92.9544 109.032C92.7563 109.231 92.5042 109.368 92.2292 109.426C91.9542 109.484 91.6683 109.461 91.4063 109.359C90.5542 109.095 90.115 108.403 90.3607 107.617C90.6063 106.832 91.4026 106.501 92.2213 106.754C93.3824 107.108 93.7582 108.094 93.334 109.471ZM92.9916 108.425C93.1405 107.952 92.8837 107.379 92.1432 107.149C92.0159 107.092 91.8783 107.064 91.7393 107.064C91.6002 107.065 91.4628 107.095 91.3361 107.152C91.2093 107.209 91.096 107.292 91.0036 107.396C90.9112 107.5 90.8418 107.623 90.7998 107.755C90.6211 108.321 90.9263 108.816 91.5924 109.02C92.2585 109.225 92.8353 108.946 92.9916 108.41V108.425Z" fill="white"/>
<path d="M98.3582 108.697L97.0185 113.002L96.5757 112.864L97.7926 108.953L96.7766 108.637L96.8994 108.243L98.3582 108.697Z" fill="white"/>
<path d="M101.566 113.985L101.443 114.379L98.4175 113.437L98.5142 113.125L100.847 111.93C101.484 111.603 101.666 111.342 101.759 111.045C101.912 110.55 101.659 110.133 101.015 109.928C100.8 109.847 100.569 109.814 100.34 109.833C100.111 109.853 99.8886 109.923 99.6902 110.04L99.4632 109.668C99.7214 109.52 100.009 109.431 100.306 109.408C100.602 109.384 100.9 109.426 101.179 109.53C102.049 109.802 102.466 110.416 102.243 111.134C102.113 111.547 101.871 111.878 101.127 112.25L99.2176 113.233L101.566 113.985Z" fill="white"/>
<path d="M105.689 114.346C105.466 115.064 104.77 115.462 103.728 115.131C103.156 114.971 102.666 114.602 102.355 114.096L102.679 113.813C102.937 114.259 103.359 114.586 103.855 114.725C104.569 114.948 105.068 114.725 105.232 114.204C105.395 113.683 105.135 113.237 104.338 112.987L104.03 112.891L104.13 112.567L105.79 111.45L103.587 110.766L103.71 110.371L106.478 111.231L106.381 111.547L104.685 112.697C105.593 113.028 105.901 113.657 105.689 114.346Z" fill="white"/>
<path d="M71.2658 108.483L70.6841 110.352L105.153 121.082L105.735 119.213L71.2658 108.483Z" fill="white"/>
<path d="M86.8987 117.444L86.3169 119.313L103.997 124.816L104.579 122.947L86.8987 117.444Z" fill="white"/>
<g opacity="0.5">
<path opacity="0.5" d="M56.2943 79.6811L45.3542 76.2757C44.3808 75.9727 43.3462 76.5161 43.0432 77.4894L40.777 84.7699C40.474 85.7432 41.0175 86.7778 41.9908 87.0808L52.931 90.4862C53.9043 90.7892 54.939 90.2457 55.2419 89.2724L57.5081 81.992C57.8111 81.0187 57.2677 79.984 56.2943 79.6811Z" fill="#EBEBEB"/>
</g>
<path d="M41.1577 83.5404L41.3736 82.8483L48.8162 85.1666C49.0227 85.2369 49.2411 85.2651 49.4587 85.2495C49.6762 85.234 49.8885 85.175 50.0829 85.0762C50.2773 84.9773 50.4499 84.8405 50.5906 84.6738C50.7313 84.5072 50.8372 84.314 50.902 84.1058C50.9669 83.8976 50.9894 83.6785 50.9682 83.4614C50.947 83.2443 50.8826 83.0337 50.7787 82.8419C50.6748 82.6501 50.5336 82.4811 50.3634 82.3448C50.1931 82.2085 49.9973 82.1076 49.7874 82.0482L42.3448 79.7298L42.5606 79.0376L50.0033 81.356C50.3079 81.4405 50.5924 81.5853 50.8399 81.7819C51.0874 81.9784 51.293 82.2227 51.4443 82.5002C51.5955 82.7778 51.6895 83.0829 51.7206 83.3974C51.7517 83.712 51.7193 84.0296 51.6253 84.3313C51.5312 84.6331 51.3775 84.9129 51.1733 85.1541C50.969 85.3953 50.7184 85.5931 50.4362 85.7355C50.1541 85.878 49.8462 85.9623 49.5308 85.9835C49.2154 86.0047 48.899 85.9623 48.6003 85.8588L41.1577 83.5404Z" fill="#E0E0E0"/>
<path d="M51.0878 84.2964L50.8701 84.9858L55.9573 86.5923L56.175 85.9029L51.0878 84.2964Z" fill="#E0E0E0"/>
<path d="M85.2678 78.9452L48.0698 67.3664L47.0766 70.5572L84.2746 82.1359L85.2678 78.9452Z" fill="white"/>
<path d="M59.6154 150.959C59.9013 152.893 59.607 154.869 58.7698 156.636C57.9326 158.402 56.5901 159.881 54.9122 160.884C53.2342 161.887 51.2964 162.371 49.3438 162.272C47.3913 162.174 45.5119 161.498 43.9434 160.331C42.375 159.164 41.188 157.558 40.5328 155.716C39.8776 153.874 39.7836 151.879 40.2626 149.983C40.7417 148.088 41.7723 146.377 43.224 145.068C44.6758 143.758 46.4833 142.909 48.4179 142.627C49.7003 142.439 51.0071 142.506 52.2638 142.822C53.5206 143.139 54.7026 143.701 55.7424 144.474C56.7822 145.248 57.6594 146.219 58.3239 147.332C58.9884 148.444 59.4273 149.677 59.6154 150.959Z" fill="#F5F5F5"/>
<path d="M57.29 151.298C57.508 152.773 57.2836 154.279 56.6452 155.626C56.0069 156.972 54.9832 158.1 53.7039 158.865C52.4245 159.629 50.9471 159.997 49.4584 159.922C47.9698 159.847 46.537 159.331 45.3414 158.441C44.1458 157.551 43.2412 156.327 42.742 154.922C42.2429 153.518 42.1717 151.997 42.5374 150.552C42.9031 149.107 43.6893 147.803 44.7965 146.805C45.9036 145.807 47.282 145.16 48.7571 144.946C50.7307 144.658 52.7378 145.166 54.3376 146.357C55.9375 147.548 56.9993 149.325 57.29 151.298Z" fill="#EBEBEB"/>
<path d="M57.252 151.064C57.1129 150.787 57.0032 150.496 56.9246 150.197C56.6407 149.42 56.239 148.692 55.7337 148.038C54.7717 146.788 53.4373 145.876 51.9231 145.433C51.5751 145.329 51.2192 145.253 50.8588 145.206C50.4889 145.156 50.1157 145.134 49.7424 145.139C49.3546 145.151 48.968 145.188 48.5851 145.251C48.2067 145.323 47.8337 145.422 47.4687 145.545C47.1128 145.668 46.767 145.819 46.4342 145.995C45.8037 146.33 45.2247 146.754 44.7149 147.253C44.2522 147.706 43.8506 148.218 43.5204 148.775C43.2327 149.263 42.9994 149.781 42.8245 150.319C42.5764 151.107 42.4509 151.928 42.4524 152.753C42.4877 153.062 42.4877 153.374 42.4524 153.684C42.3186 153.396 42.2452 153.085 42.2365 152.768C42.1491 151.908 42.2197 151.039 42.4449 150.204C42.6039 149.625 42.8287 149.065 43.1148 148.537C43.4502 147.931 43.8657 147.372 44.3502 146.877C44.6105 146.607 44.8917 146.358 45.1912 146.133C45.503 145.896 45.8327 145.683 46.1774 145.497C46.5363 145.304 46.9095 145.14 47.2938 145.005C47.6899 144.87 48.0954 144.763 48.5069 144.685C48.9202 144.615 49.3381 144.575 49.7573 144.566C50.1632 144.561 50.5689 144.589 50.9704 144.648C51.3588 144.702 51.7422 144.788 52.1166 144.905C52.475 145.015 52.8245 145.152 53.1623 145.314C54.3354 145.871 55.3453 146.721 56.0947 147.782C56.5948 148.486 56.9606 149.277 57.1739 150.115C57.2686 150.422 57.2952 150.745 57.252 151.064Z" fill="#E0E0E0"/>
<path d="M51.3242 156.702L51.5326 157.997L50.3753 158.183L50.1744 156.921C49.1426 157.055 48.094 156.895 47.1489 156.46L47.5583 154.945C48.2965 155.302 49.1145 155.461 49.9325 155.406L49.6236 153.475C48.2876 153.371 46.788 153.174 46.5237 151.518C46.3265 150.293 47.0484 149.099 48.8421 148.596L48.6374 147.313L49.7911 147.127L49.9957 148.388C50.8303 148.302 51.6733 148.416 52.4555 148.719L52.1057 150.234C51.5128 150.005 50.8803 149.896 50.2451 149.914L50.5614 151.882C51.8936 151.975 53.371 152.18 53.6314 153.81C53.8175 155.012 53.1067 156.192 51.3242 156.702ZM49.3519 151.778L49.0877 150.133C48.496 150.372 48.3062 150.747 48.3695 151.127C48.4328 151.507 48.8161 151.696 49.3519 151.778ZM51.7857 154.245C51.7224 153.84 51.3503 153.676 50.8256 153.579L51.0824 155.176C51.6406 154.956 51.8452 154.614 51.7857 154.245Z" fill="#E0E0E0"/>
<path d="M207.24 155.075C206.519 156.102 205.116 155.764 204.468 155.135C203.821 154.506 203.542 153.594 203.292 152.723C202.719 150.74 202.146 148.656 202.57 146.632C202.673 146.019 202.942 145.446 203.348 144.976C203.554 144.745 203.817 144.571 204.111 144.474C204.405 144.376 204.719 144.356 205.023 144.417C205.73 144.603 206.169 145.299 206.485 145.958C207.421 147.902 207.912 150.03 207.921 152.187C207.921 153.192 207.806 154.245 207.24 155.075Z" fill="#8378F3" fill-opacity="0.2"/>
<path d="M204.539 160.293C203.329 159.724 201.968 159.558 200.657 159.82C199.942 159.883 199.268 160.184 198.745 160.676C198.265 161.204 198.175 162.135 198.722 162.589C199.078 162.828 199.505 162.936 199.932 162.894C200.955 162.894 202.094 162.7 202.909 163.318C203.378 163.671 203.687 164.256 204.248 164.434C204.528 164.498 204.82 164.469 205.082 164.352C205.344 164.236 205.56 164.037 205.7 163.787C205.969 163.273 206.027 162.676 205.863 162.12C205.799 161.733 205.646 161.368 205.416 161.05C205.186 160.733 204.886 160.474 204.539 160.293Z" fill="#8378F3" fill-opacity="0.2"/>
<path d="M209.22 156.553C208.85 156.068 208.604 155.501 208.503 154.9C208.402 154.298 208.448 153.682 208.639 153.103C209.032 151.941 209.739 150.911 210.682 150.126C211.75 149.176 212.992 148.442 214.34 147.968C214.862 147.757 215.423 147.662 215.985 147.688C216.266 147.705 216.538 147.789 216.779 147.934C217.019 148.079 217.221 148.281 217.366 148.522C217.738 149.266 217.384 150.148 216.994 150.874C216.291 152.157 215.487 153.381 214.59 154.536C213.871 155.462 213.045 156.396 211.947 156.798C210.85 157.2 209.715 157.17 209.127 156.426" fill="#8378F3" fill-opacity="0.2"/>
<path d="M207.289 170.615C207.254 170.461 207.233 170.304 207.226 170.147C207.192 169.808 207.151 169.38 207.099 168.87C207.035 168.245 206.939 167.624 206.812 167.009C206.644 166.256 206.416 165.517 206.131 164.799C205.856 164.082 205.481 163.408 205.015 162.797C204.38 161.949 203.436 161.387 202.388 161.234C202.23 161.23 202.072 161.207 201.919 161.167C202.077 161.152 202.237 161.152 202.395 161.167C202.829 161.201 203.254 161.312 203.649 161.494C204.231 161.775 204.74 162.185 205.138 162.693C205.625 163.312 206.019 163.999 206.306 164.732C206.598 165.461 206.824 166.215 206.984 166.983C207.104 167.611 207.187 168.244 207.233 168.881C207.274 169.421 207.289 169.86 207.296 170.165C207.311 170.315 207.309 170.466 207.289 170.615Z" fill="#263238"/>
<path d="M207.203 169.633C207.195 169.561 207.195 169.489 207.203 169.417C207.203 169.253 207.203 169.045 207.203 168.796C207.203 168.256 207.203 167.475 207.174 166.511C207.125 164.583 206.962 161.926 206.642 159.001C206.321 156.076 205.897 153.445 205.499 151.559C205.406 151.086 205.313 150.662 205.227 150.286C205.142 149.91 205.071 149.59 205.004 149.33C204.937 149.069 204.896 148.887 204.859 148.727C204.838 148.657 204.825 148.584 204.822 148.511C204.853 148.576 204.878 148.645 204.896 148.716L205.079 149.311C205.157 149.571 205.239 149.891 205.332 150.264C205.425 150.636 205.533 151.056 205.633 151.529C206.164 153.987 206.564 156.471 206.831 158.971C207.155 161.904 207.296 164.553 207.311 166.5C207.311 167.467 207.311 168.249 207.278 168.788C207.278 169.041 207.248 169.246 207.241 169.41C207.235 169.485 207.222 169.56 207.203 169.633Z" fill="#263238"/>
<path d="M207.188 164.486C207.172 164.271 207.172 164.054 207.188 163.839C207.214 163.422 207.27 162.819 207.389 162.082C207.53 161.218 207.72 160.362 207.958 159.518C208.243 158.485 208.602 157.472 209.03 156.489C209.773 154.678 210.84 153.017 212.178 151.588C212.412 151.343 212.66 151.113 212.922 150.9C213.038 150.807 213.138 150.71 213.239 150.636L213.529 150.435C213.701 150.304 213.883 150.188 214.072 150.085C213.445 150.583 212.847 151.117 212.282 151.685C210.991 153.126 209.954 154.775 209.216 156.564C208.791 157.54 208.43 158.543 208.137 159.567C207.858 160.508 207.672 161.375 207.53 162.105C207.389 162.834 207.318 163.433 207.27 163.846C207.26 164.062 207.233 164.276 207.188 164.486Z" fill="#263238"/>
<path d="M126.328 134.969L68.7292 74.0436C68.4384 73.7348 68.2817 73.3233 68.2936 72.8993C68.3055 72.4752 68.4848 72.0732 68.7924 71.7811L106.605 36.0415C106.757 35.8971 106.937 35.7841 107.133 35.7091C107.33 35.6341 107.539 35.5986 107.749 35.6044C107.959 35.6103 108.166 35.6575 108.358 35.7434C108.55 35.8292 108.723 35.952 108.867 36.1048L166.462 97.0339C166.753 97.3427 166.909 97.7542 166.898 98.1782C166.886 98.6023 166.706 99.0044 166.399 99.2965L128.594 135.021C128.442 135.167 128.263 135.282 128.067 135.358C127.87 135.435 127.661 135.472 127.45 135.467C127.239 135.462 127.032 135.416 126.839 135.33C126.646 135.245 126.473 135.122 126.328 134.969Z" fill="#7467F0"/>
<g opacity="0.3">
<path opacity="0.3" d="M126.328 134.969L68.7292 74.0436C68.4384 73.7348 68.2817 73.3233 68.2936 72.8993C68.3055 72.4752 68.4848 72.0732 68.7924 71.7811L106.605 36.0415C106.757 35.8971 106.937 35.7841 107.133 35.7091C107.33 35.6341 107.539 35.5986 107.749 35.6044C107.959 35.6103 108.166 35.6575 108.358 35.7434C108.55 35.8292 108.723 35.952 108.867 36.1048L166.462 97.0339C166.753 97.3427 166.909 97.7542 166.898 98.1782C166.886 98.6023 166.706 99.0044 166.399 99.2965L128.594 135.021C128.442 135.167 128.263 135.282 128.067 135.358C127.87 135.435 127.661 135.472 127.45 135.467C127.239 135.462 127.032 135.416 126.839 135.33C126.646 135.245 126.473 135.122 126.328 134.969Z" fill="black"/>
</g>
<path d="M166.038 96.5873L109.281 36.5513C109.081 36.3396 108.842 36.1693 108.577 36.0501C108.311 35.931 108.025 35.8654 107.734 35.8571C107.444 35.8488 107.154 35.898 106.882 36.0018C106.611 36.1056 106.362 36.262 106.151 36.462L95.4112 46.6175C95.305 46.7167 95.2249 46.8407 95.1782 46.9783C95.1314 47.116 95.1195 47.263 95.1433 47.4064C96.2187 53.4126 100.513 58.7825 105.634 62.3401C111.818 66.6382 119.149 68.9045 126.101 71.7736C133.052 74.6427 140.06 78.4236 144.239 84.694C148.179 90.6146 149.11 97.9568 151.116 104.789C151.661 106.645 152.343 108.459 153.155 110.215C153.214 110.342 153.303 110.454 153.413 110.541C153.524 110.627 153.654 110.687 153.792 110.713C153.93 110.74 154.072 110.734 154.207 110.695C154.342 110.656 154.466 110.586 154.569 110.49L165.952 99.7281C166.166 99.5283 166.337 99.2882 166.457 99.0217C166.577 98.7552 166.642 98.4676 166.65 98.1756C166.658 97.8835 166.608 97.5927 166.503 97.3201C166.398 97.0475 166.24 96.7984 166.038 96.5873Z" fill="#7467F0"/>
<path d="M108.444 54.0229C107.93 54.5104 107.245 54.3951 106.508 53.6024L105.057 52.0655L108.034 49.2597L109.404 50.711C110.107 51.4552 110.148 52.1288 109.698 52.5716C109.565 52.7027 109.399 52.7933 109.217 52.8328C109.035 52.8724 108.845 52.8592 108.671 52.7949C108.775 52.9955 108.81 53.2255 108.769 53.4481C108.728 53.6707 108.613 53.8731 108.444 54.0229ZM108.153 50.4319L107.454 51.0943L108.094 51.7902C108.41 52.1251 108.7 52.1958 108.935 51.9762C109.169 51.7567 109.11 51.4664 108.793 51.1315L108.153 50.4319ZM107.859 53.2638C108.109 53.0294 108.049 52.7242 107.71 52.367L106.966 51.5669L106.222 52.259L106.966 53.0628C107.316 53.4201 107.606 53.5057 107.859 53.2787V53.2638Z" fill="white"/>
<path d="M110.609 56.6651L109.303 55.2845L108.417 55.6231L107.755 54.9198L111.975 53.4312L112.615 54.1122L110.903 58.2466L110.218 57.5247L110.609 56.6651ZM110.925 55.9543L111.618 54.4099L110.036 55.0128L110.925 55.9543Z" fill="white"/>
<path d="M116.734 58.4885L113.757 61.2944L113.233 60.7213L113.638 57.5396L111.833 59.2328L111.193 58.5518L114.17 55.7459L114.71 56.3153L114.301 59.4933L116.106 57.7889L116.734 58.4885Z" fill="white"/>
<path d="M116.619 61.9605H115.827L115.082 62.6712L114.42 61.9828L117.397 59.1732L118.041 59.8579L116.653 61.1678H119.284L120.006 61.9121L117.52 61.9344L117.11 64.8147L116.366 64.0146L116.619 61.9605Z" fill="white"/>
<path d="M95.5682 65.1422L95.0695 64.5952L94.3253 65.2725L94.061 64.9934L94.7793 64.3161L93.3242 62.7792L93.5252 62.5857L96.6995 62.3215L96.9934 62.634L93.9159 62.9057L95.0323 64.0891L95.6612 63.4899L95.918 63.7653L95.2891 64.3607L95.8026 64.9041L95.5682 65.1422Z" fill="white"/>
<path d="M97.5283 67.0811C97.0706 67.509 96.4119 67.5127 95.7868 66.8541C95.4349 66.5052 95.2287 66.0356 95.21 65.5404L95.5598 65.466C95.5645 65.8956 95.7383 66.3061 96.0435 66.6084C96.4715 67.0624 96.9143 67.1108 97.253 66.7908C97.5916 66.4708 97.5767 66.0465 97.1004 65.5442L96.9143 65.3506L97.1227 65.1534L98.7824 65.0157L97.4651 63.6202L97.7144 63.3858L99.3704 65.1385L99.1732 65.3246L97.4725 65.4697C97.9935 66.0837 97.9637 66.6754 97.5283 67.0811Z" fill="white"/>
<path d="M99.6311 69.2803C99.166 69.7194 98.5147 69.738 97.8709 69.0719C97.5187 68.7251 97.3135 68.256 97.2979 67.762L97.6477 67.6876C97.6552 68.1075 97.8261 68.5079 98.124 68.804C98.5594 69.2691 99.0171 69.3026 99.3483 68.9863C99.6795 68.67 99.7204 68.242 99.058 67.5387L98.5073 66.9582L99.9958 65.8083L101.406 67.2968L101.157 67.5313L99.9921 66.3032L99.032 67.0289L99.3632 67.401C100.141 68.1899 100.111 68.8077 99.6311 69.2803Z" fill="white"/>
<path d="M101.912 71.6545C101.794 71.765 101.654 71.8497 101.501 71.903C101.348 71.9563 101.186 71.9772 101.024 71.9642C100.863 71.9513 100.706 71.9048 100.563 71.8278C100.421 71.7507 100.296 71.6448 100.197 71.5168C99.5121 70.7912 99.6423 69.9241 100.502 69.1091C101.429 68.2346 102.389 68.283 103.088 69.0235C103.313 69.239 103.473 69.5119 103.553 69.8124L103.219 69.9129C103.163 69.6634 103.033 69.4365 102.846 69.2617C102.292 68.6737 101.559 68.6514 100.818 69.351C100.755 69.4106 100.681 69.4887 100.606 69.5743C100.83 69.5093 101.069 69.5116 101.292 69.5811C101.515 69.6506 101.713 69.7841 101.86 69.965C102.374 70.5046 102.411 71.1856 101.912 71.6545ZM101.644 71.3866C102.017 71.0479 101.983 70.5679 101.585 70.1474C101.514 70.0525 101.424 69.9733 101.321 69.9146C101.218 69.8559 101.104 69.8189 100.986 69.806C100.868 69.7931 100.749 69.8045 100.635 69.8395C100.522 69.8746 100.417 69.9325 100.327 70.0097C100.026 70.2925 99.9773 70.8098 100.424 71.2786C100.493 71.3717 100.581 71.4492 100.682 71.5058C100.783 71.5624 100.894 71.597 101.01 71.6072C101.125 71.6174 101.241 71.603 101.351 71.565C101.46 71.5269 101.56 71.4661 101.644 71.3866Z" fill="white"/>
<path d="M106.668 78.3157L106.91 76.8569L105.421 77.0132L105.127 76.7006L106.947 76.5146L107.211 74.8028L107.509 75.1154L107.286 76.4885L108.67 76.3434L108.957 76.6485L107.234 76.8197L106.955 78.632L106.668 78.3157Z" fill="white"/>
<path d="M108.633 80.3958L108.875 78.9334L107.387 79.0897L107.089 78.7771L108.909 78.5947L109.177 76.8829L109.471 77.1918L109.251 78.565L110.632 78.4235L110.922 78.7287L109.195 78.8999L108.916 80.7122L108.633 80.3958Z" fill="white"/>
<path d="M110.598 82.4724L110.84 81.0136L109.352 81.1699L109.058 80.8573L110.874 80.675L111.142 78.9594L111.436 79.272L111.216 80.6452L112.6 80.5038L112.887 80.8052L111.16 80.9764L110.881 82.7887L110.598 82.4724Z" fill="white"/>
<path d="M112.559 84.5377L112.801 83.0789L111.313 83.2352L111.019 82.9226L112.835 82.7366L113.102 81.0248L113.396 81.3374L113.177 82.7105L114.561 82.5654L114.848 82.8705L113.121 83.0417L112.846 84.854L112.559 84.5377Z" fill="white"/>
<path d="M119.351 91.731L119.593 90.2723L118.104 90.4286L117.81 90.116L119.626 89.9337L119.894 88.2181L120.188 88.5307L119.968 89.9039L121.353 89.7587L121.639 90.0639L119.913 90.2351L119.634 92.0474L119.351 91.731Z" fill="white"/>
<path d="M121.316 93.8112L121.557 92.3487L120.069 92.505L119.775 92.1962L121.591 92.0101L121.859 90.2983L122.153 90.6109L121.933 91.984L123.318 91.8389L123.604 92.1441L121.877 92.3152L121.598 94.1275L121.316 93.8112Z" fill="white"/>
<path d="M123.281 95.8914L123.526 94.429L122.038 94.5852L121.744 94.2727L123.56 94.0903L123.828 92.3785L124.122 92.6874L123.902 94.0605L125.286 93.9191L125.573 94.2206L123.846 94.3917L123.571 96.204L123.281 95.8914Z" fill="white"/>
<path d="M125.249 97.968L125.491 96.5092L124.002 96.6655L123.708 96.3529L125.524 96.1706L125.792 94.455L126.09 94.7676L125.867 96.1408L127.251 95.9957L127.538 96.3008L125.811 96.472L125.536 98.2843L125.249 97.968Z" fill="white"/>
<path d="M134.068 101.838L131.344 104.417L131.076 104.134L133.555 101.793L132.948 101.153L133.197 100.915L134.068 101.838Z" fill="white"/>
<path d="M134.444 106.121C133.99 106.553 133.328 106.553 132.703 105.894C132.351 105.545 132.145 105.076 132.126 104.581L132.476 104.506C132.483 104.937 132.656 105.347 132.96 105.652C133.388 106.103 133.834 106.155 134.173 105.835C134.511 105.515 134.496 105.091 134.016 104.584L133.834 104.391L134.039 104.197L135.698 104.056L134.381 102.664L134.63 102.426L136.286 104.179L136.089 104.369L134.392 104.514C134.913 105.135 134.887 105.716 134.444 106.121Z" fill="white"/>
<path d="M136.941 108.901L136.424 108.354L135.709 109.031L135.441 108.752L136.16 108.075L134.705 106.538L134.909 106.345L138.08 106.084L138.374 106.393L135.296 106.665L136.413 107.848L137.042 107.253L137.302 107.524L136.669 108.12L137.187 108.667L136.941 108.901Z" fill="white"/>
<path d="M138.459 111.447L138.21 111.681L136.401 109.768L136.602 109.582L138.783 109.664C139.378 109.686 139.617 109.571 139.803 109.396C140.119 109.095 140.104 108.689 139.71 108.28C139.586 108.133 139.432 108.016 139.257 107.937C139.083 107.859 138.893 107.821 138.701 107.826V107.454C138.949 107.451 139.194 107.503 139.419 107.606C139.644 107.709 139.844 107.86 140.004 108.049C140.525 108.603 140.577 109.217 140.119 109.649C139.858 109.895 139.55 110.021 138.846 110.021L137.056 109.958L138.459 111.447Z" fill="white"/>
<path d="M85.6356 67.4197C85.7838 67.2962 85.965 67.219 86.1567 67.1975C86.3484 67.176 86.5422 67.2112 86.7141 67.2987C86.886 67.3863 87.0285 67.5223 87.1238 67.69C87.2192 67.8576 87.2633 68.0496 87.2507 68.2421L86.8785 68.2197C86.8894 68.1343 86.881 68.0475 86.854 67.9657C86.8269 67.8839 86.7819 67.8093 86.7222 67.7471C86.6704 67.6924 86.6084 67.6484 86.5396 67.6177C86.4707 67.5869 86.3966 67.57 86.3212 67.568C86.1691 67.5638 86.0215 67.6202 85.911 67.7248C85.8005 67.8294 85.736 67.9737 85.7318 68.1258C85.7276 68.278 85.784 68.4255 85.8887 68.5361C85.9474 68.5994 86.0199 68.6484 86.1005 68.6794C86.1811 68.7103 86.2678 68.7224 86.3538 68.7147V69.0868C86.2137 69.093 86.0739 69.0675 85.945 69.0121C85.8161 68.9566 85.7014 68.8728 85.6096 68.7668C85.5185 68.679 85.4466 68.5733 85.3983 68.4564C85.35 68.3396 85.3263 68.214 85.3288 68.0875C85.3312 67.9611 85.3597 67.8365 85.4125 67.7216C85.4653 67.6067 85.5413 67.5039 85.6356 67.4197Z" fill="white"/>
<path d="M87.4181 70.0246L86.845 69.4217L86.4729 69.5706L86.1826 69.2617L88.0433 68.6105L88.3224 68.9082L87.5781 70.7205L87.2544 70.3967L87.4181 70.0246ZM87.5558 69.7157L87.8572 69.0384L87.165 69.3027L87.5558 69.7157Z" fill="white"/>
<path d="M88.4595 71.6917L88.5823 71.0963L88.333 70.8358L87.9609 71.1782L87.6743 70.8767L88.9768 69.6487L89.5089 70.2106C89.8364 70.5567 89.8624 70.9549 89.5685 71.2191C89.4848 71.3064 89.3759 71.3652 89.2571 71.3873C89.1382 71.4093 89.0154 71.3934 88.9061 71.3419L88.7647 72.0266L88.4595 71.6917ZM89.2484 70.4116L89.014 70.166L88.56 70.5939L88.7944 70.8395C88.9656 71.0219 89.1405 71.033 89.2819 70.9028C89.4233 70.7725 89.4196 70.5939 89.2484 70.3967V70.4116Z" fill="white"/>
<path d="M88.999 72.0043L89.3228 71.8927C89.3541 72.1021 89.4489 72.297 89.5944 72.4509C89.7619 72.6295 89.8884 72.6444 89.9666 72.5699C90.2085 72.3392 89.3265 71.7438 89.8103 71.2861C90.0335 71.0777 90.3834 71.0814 90.7332 71.4498C90.8872 71.6047 90.9954 71.7992 91.0457 72.0117L90.7294 72.1345C90.6908 71.964 90.6087 71.8064 90.4913 71.6768C90.3201 71.4982 90.1898 71.4945 90.1191 71.5689C89.881 71.7959 90.7592 72.3988 90.2829 72.849C90.0633 73.0537 89.7098 73.05 89.3563 72.6779C89.1725 72.4941 89.048 72.2595 88.999 72.0043Z" fill="white"/>
<path d="M93.0184 73.9059L91.7159 75.1376L91.4331 74.8362L91.9653 74.3301L91.4071 73.7384L90.8749 74.2445L90.5884 73.9431L91.8908 72.715L92.1737 73.0127L91.6601 73.5002L92.2183 74.0919L92.7319 73.6044L93.0184 73.9059Z" fill="white"/>
<path d="M92.583 74.7507C92.718 74.6074 92.8928 74.5079 93.0849 74.4652C93.2771 74.4225 93.4776 74.4385 93.6605 74.511C93.8435 74.5836 94.0004 74.7095 94.1109 74.8723C94.2215 75.0351 94.2806 75.2274 94.2806 75.4242C94.2806 75.621 94.2215 75.8133 94.1109 75.9761C94.0004 76.1389 93.8435 76.2648 93.6605 76.3374C93.4776 76.41 93.2771 76.4259 93.0849 76.3832C92.8928 76.3405 92.718 76.2411 92.583 76.0978C92.4918 76.0109 92.4192 75.9064 92.3696 75.7906C92.32 75.6748 92.2944 75.5502 92.2944 75.4242C92.2944 75.2983 92.32 75.1736 92.3696 75.0578C92.4192 74.942 92.4918 74.8375 92.583 74.7507ZM93.6399 75.8671C93.6974 75.8185 93.7443 75.7586 93.7775 75.691C93.8106 75.6234 93.8294 75.5496 93.8325 75.4744C93.8357 75.3991 93.8232 75.3241 93.7958 75.254C93.7684 75.1838 93.7267 75.1201 93.6734 75.067C93.5973 74.9822 93.4976 74.9221 93.3871 74.8942C93.2767 74.8663 93.1604 74.872 93.0532 74.9105C92.946 74.9491 92.8527 75.0187 92.7852 75.1105C92.7177 75.2022 92.6792 75.3121 92.6744 75.4259C92.6696 75.5397 92.6989 75.6524 92.7585 75.7495C92.818 75.8466 92.9052 75.9238 93.0088 75.9711C93.1124 76.0185 93.2278 76.0338 93.3402 76.0153C93.4526 75.9968 93.5569 75.9452 93.6399 75.8671Z" fill="white"/>
<path d="M94.7976 75.7889L95.0804 76.0903L94.0235 77.095L94.6413 77.7463L94.3957 77.977L93.4951 77.0243L94.7976 75.7889Z" fill="white"/>
<path d="M95.8578 76.9127L96.416 77.5044C96.5085 77.5871 96.5828 77.6882 96.6343 77.8011C96.6857 77.914 96.7132 78.0364 96.7149 78.1605C96.7166 78.2845 96.6926 78.4076 96.6443 78.5219C96.596 78.6362 96.5245 78.7393 96.4343 78.8245C96.3442 78.9098 96.2373 78.9754 96.1204 79.0172C96.0036 79.0591 95.8794 79.0762 95.7556 79.0675C95.6318 79.0589 95.5111 79.0246 95.4013 78.967C95.2914 78.9093 95.1947 78.8294 95.1173 78.7324L94.5591 78.1408L95.8578 76.9127ZM95.348 78.4831C95.3917 78.5523 95.4501 78.6109 95.519 78.655C95.5879 78.6991 95.6657 78.7275 95.7468 78.7382C95.8279 78.7489 95.9104 78.7416 95.9883 78.7169C96.0663 78.6922 96.1379 78.6507 96.1981 78.5953C96.2582 78.5398 96.3055 78.4718 96.3365 78.3961C96.3674 78.3204 96.3814 78.2388 96.3773 78.1571C96.3732 78.0754 96.3513 77.9956 96.313 77.9233C96.2746 77.851 96.2209 77.7881 96.1555 77.7389L95.895 77.4635L95.0912 78.2115L95.348 78.4831Z" fill="white"/>
<path d="M97.2053 80.4443L96.9634 80.675L96.0107 79.6665L97.3132 78.4385L98.2398 79.4209L98.0016 79.6479L97.3541 78.9669L97.0713 79.2311L97.6407 79.8377L97.4062 80.0573L96.8369 79.4544L96.5354 79.7372L97.2053 80.4443Z" fill="white"/>
<path d="M97.9751 81.7542L98.0979 81.1625L97.8486 80.902L97.4765 81.2444L97.1899 80.943L98.4924 79.7112L99.0245 80.2768C99.352 80.6229 99.3781 81.0211 99.0841 81.2853C99.0005 81.3726 98.8915 81.4314 98.7727 81.4535C98.6538 81.4755 98.531 81.4596 98.4217 81.4081L98.2803 82.0928L97.9751 81.7542ZM98.7641 80.4741L98.5296 80.2285L98.0793 80.6601L98.31 80.9057C98.485 81.0881 98.6561 81.0992 98.7975 80.9653C98.939 80.8313 98.9352 80.6601 98.7641 80.4741Z" fill="white"/>
<path d="M80.4291 72.0787L81.1213 72.0341C81.0878 72.1592 81.0852 72.2907 81.1137 72.4171C81.1422 72.5435 81.201 72.6611 81.285 72.7597C81.5046 72.9904 81.7614 72.983 82.0293 72.7225L83.2201 71.6061L82.3866 70.7242L82.8517 70.285L84.2323 71.7438L82.6061 73.277C81.9847 73.8649 81.3892 73.8389 80.831 73.2509C80.6778 73.1 80.5618 72.9156 80.492 72.7122C80.4223 72.5087 80.4008 72.2919 80.4291 72.0787Z" fill="white"/>
<path d="M82.4161 74.1664C82.5079 74.0796 82.6304 74.0327 82.7567 74.0362C82.883 74.0397 83.0028 74.0932 83.0896 74.185C83.1765 74.2768 83.2233 74.3993 83.2198 74.5256C83.2163 74.652 83.1628 74.7717 83.071 74.8586C83.0256 74.9016 82.9721 74.9352 82.9137 74.9575C82.8552 74.9799 82.7929 74.9905 82.7304 74.9888C82.6678 74.987 82.6063 74.973 82.5491 74.9475C82.492 74.9219 82.4405 74.8854 82.3975 74.84C82.3545 74.7945 82.3208 74.741 82.2985 74.6826C82.2762 74.6241 82.2655 74.5619 82.2673 74.4993C82.269 74.4368 82.283 74.3752 82.3086 74.3181C82.3341 74.2609 82.3706 74.2094 82.4161 74.1664Z" fill="white"/>
<path d="M89.0923 76.8643L85.8101 78.4124L85.2222 77.7909L86.3981 75.6363L84.1653 76.6708L83.5811 76.0531L85.3077 72.8602L85.8771 73.4593L84.6491 75.6921L86.9712 74.6167L87.4773 75.1525L86.2418 77.4039L88.5713 76.3099L89.0923 76.8643Z" fill="white"/>
<path d="M89.3274 77.1137C89.3714 77.0727 89.4234 77.0413 89.4802 77.0216C89.5369 77.0018 89.5972 76.9942 89.6571 76.9991C89.717 77.004 89.7752 77.0214 89.828 77.0501C89.8808 77.0788 89.9271 77.1182 89.9638 77.1658C90.0091 77.2038 90.0461 77.2507 90.0724 77.3037C90.0987 77.3567 90.1137 77.4146 90.1165 77.4737C90.1193 77.5328 90.1098 77.5918 90.0887 77.6471C90.0675 77.7023 90.0351 77.7526 89.9935 77.7947C89.9496 77.8377 89.8971 77.871 89.8394 77.8925C89.7817 77.9139 89.7202 77.923 89.6588 77.9191C89.5974 77.9153 89.5375 77.8986 89.483 77.8701C89.4285 77.8416 89.3805 77.8019 89.3423 77.7537C89.2971 77.714 89.2607 77.6653 89.2353 77.6108C89.2099 77.5563 89.196 77.4971 89.1946 77.437C89.1932 77.3768 89.2043 77.3171 89.2271 77.2614C89.25 77.2058 89.2841 77.1555 89.3274 77.1137ZM88.8101 77.7277L89.3386 78.2859L87.4109 80.1056L86.8862 79.5474L88.8101 77.7277Z" fill="white"/>
<path d="M90.5584 78.1147L91.0868 78.6729L88.4298 81.1885L87.9014 80.6303L90.5584 78.1147Z" fill="white"/>
<path d="M91.575 79.1902L92.1034 79.7484L89.4464 82.2602L88.918 81.702L91.575 79.1902Z" fill="white"/>
<path d="M92.3782 80.34C92.423 80.3 92.4754 80.2694 92.5324 80.2503C92.5893 80.2312 92.6495 80.2238 92.7094 80.2287C92.7693 80.2335 92.8275 80.2505 92.8806 80.2786C92.9337 80.3067 92.9806 80.3454 93.0183 80.3921C93.063 80.431 93.0993 80.4786 93.125 80.5321C93.1507 80.5855 93.1652 80.6436 93.1677 80.7028C93.1701 80.7621 93.1604 80.8212 93.1392 80.8765C93.118 80.9319 93.0857 80.9823 93.0443 81.0248C92.9511 81.0988 92.8338 81.1356 92.715 81.128C92.5963 81.1204 92.4846 81.0689 92.4016 80.9836C92.3186 80.8983 92.2703 80.7853 92.266 80.6663C92.2616 80.5474 92.3016 80.4311 92.3782 80.34ZM91.8609 80.9578L92.3894 81.516L90.4654 83.3357L89.937 82.7775L91.8609 80.9578Z" fill="white"/>
<path d="M93.6618 84.5377L92.5454 85.5759L92.0505 85.055L92.2924 84.828C92.1379 84.8511 91.98 84.8321 91.8353 84.7732C91.6906 84.7143 91.5644 84.6175 91.47 84.493C91.042 84.0428 91.0383 83.5367 91.3732 83.2241C91.7081 82.9115 92.1733 82.9189 92.7278 83.5032L93.1483 83.9497C93.3902 83.7227 93.3939 83.4474 93.1074 83.1459C92.9189 82.9497 92.6723 82.8192 92.404 82.7738L92.605 82.2082C92.9975 82.3046 93.3525 82.5158 93.6246 82.8147C94.1977 83.3692 94.2461 83.9683 93.6618 84.5377ZM92.6459 84.4447L92.8431 84.2586L92.471 83.8865C92.2254 83.6223 92.0505 83.6334 91.9203 83.7525C91.79 83.8716 91.8012 84.0911 91.9872 84.2884C92.0682 84.3783 92.1756 84.4402 92.2941 84.4649C92.4125 84.4897 92.5357 84.4761 92.6459 84.4261V84.4447Z" fill="white"/>
<path d="M97.2201 88.259L96.1037 89.301L95.579 88.7428L96.5949 87.7827C96.9038 87.4887 96.915 87.2133 96.7029 86.99C96.4908 86.7667 96.1409 86.7146 95.7949 87.0384L94.831 87.9538L94.3026 87.3956L95.3185 86.4355C95.6311 86.1378 95.646 85.8699 95.4264 85.6392C95.2069 85.4085 94.8683 85.3675 94.5222 85.695L93.5807 86.6179L93.0522 86.0597L94.9762 84.24L95.4823 84.7721L95.259 84.9842C95.415 84.9822 95.5695 85.0145 95.7116 85.0788C95.8537 85.1431 95.98 85.2378 96.0814 85.3564C96.2052 85.4743 96.2964 85.6224 96.3459 85.7861C96.3955 85.9498 96.4018 86.1235 96.3642 86.2904C96.5461 86.2774 96.7285 86.3062 96.8975 86.3746C97.0665 86.4429 97.2176 86.5491 97.3392 86.6849C97.7597 87.1426 97.8044 87.7157 97.2201 88.259Z" fill="white"/>
<path d="M96.5908 89.4573L97.1676 89.2638C97.2368 89.5808 97.3912 89.8729 97.6142 90.1086C97.8561 90.3653 98.0161 90.3988 98.124 90.2983C98.4366 90.0006 97.0076 89.141 97.7854 88.4116C98.1575 88.0693 98.7194 88.1549 99.2516 88.7168C99.499 88.9696 99.6816 89.2786 99.7837 89.6173L99.2106 89.8071C99.1508 89.5472 99.0223 89.3082 98.8385 89.115C98.6041 88.8656 98.4217 88.8321 98.3212 88.9252C97.9938 89.2378 99.4116 90.1011 98.6524 90.8156C98.2803 91.1542 97.7258 91.0649 97.1639 90.4881C96.8847 90.2016 96.6869 89.8457 96.5908 89.4573Z" fill="white"/>
<path d="M118.825 110.978C119.651 110.196 120.552 110.211 121.136 110.825C121.721 111.439 121.683 112.343 120.853 113.125C120.024 113.906 119.13 113.895 118.542 113.277C117.955 112.66 117.999 111.759 118.825 110.978ZM120.314 112.541C120.883 112.005 120.932 111.58 120.656 111.29C120.381 111 119.96 111.026 119.391 111.566C118.822 112.105 118.773 112.526 119.045 112.812C119.317 113.099 119.733 113.08 120.303 112.541H120.314Z" fill="white"/>
<path d="M122.607 115.912C122.097 116.396 121.379 116.284 120.876 115.752C120.225 115.06 120.251 114.219 121.058 113.456C121.926 112.637 122.919 112.712 123.615 113.456C123.854 113.694 124.024 113.992 124.106 114.319L123.477 114.505C123.431 114.282 123.319 114.078 123.157 113.917C123.073 113.816 122.967 113.734 122.848 113.677C122.728 113.62 122.598 113.589 122.466 113.587C122.333 113.586 122.202 113.613 122.081 113.666C121.961 113.72 121.853 113.799 121.766 113.899C122.078 113.924 122.368 114.071 122.573 114.308C122.683 114.41 122.771 114.533 122.832 114.669C122.893 114.806 122.927 114.953 122.93 115.103C122.933 115.253 122.906 115.401 122.85 115.54C122.795 115.679 122.712 115.806 122.607 115.912ZM122.048 115.376C122.102 115.325 122.144 115.263 122.172 115.195C122.2 115.126 122.213 115.053 122.21 114.979C122.207 114.905 122.189 114.832 122.156 114.766C122.123 114.7 122.076 114.642 122.019 114.595C121.974 114.536 121.917 114.487 121.853 114.451C121.788 114.415 121.717 114.392 121.643 114.385C121.569 114.378 121.495 114.386 121.424 114.408C121.354 114.431 121.289 114.468 121.233 114.517C121.18 114.57 121.139 114.633 121.112 114.703C121.086 114.773 121.074 114.848 121.078 114.923C121.082 114.998 121.102 115.071 121.137 115.137C121.171 115.204 121.219 115.263 121.278 115.309C121.322 115.369 121.378 115.418 121.443 115.454C121.507 115.49 121.578 115.512 121.652 115.518C121.725 115.524 121.799 115.515 121.869 115.491C121.939 115.466 122.002 115.427 122.056 115.376H122.048Z" fill="white"/>
<path d="M125.956 114.978L126.428 115.473L121.937 117.483L121.468 116.984L125.956 114.978Z" fill="white"/>
<path d="M125.621 119.73L125.148 120.177L123.351 118.283L123.723 117.929L125.55 118.033C125.674 118.057 125.802 118.054 125.925 118.024C126.048 117.994 126.162 117.937 126.261 117.858C126.458 117.672 126.443 117.427 126.19 117.162C126.1 117.057 125.984 116.976 125.854 116.927C125.724 116.878 125.584 116.861 125.446 116.88L125.32 116.199C125.582 116.168 125.847 116.203 126.092 116.3C126.338 116.396 126.556 116.552 126.726 116.753C127.255 117.315 127.318 117.955 126.864 118.387C126.622 118.618 126.336 118.759 125.677 118.714L124.59 118.651L125.621 119.73Z" fill="white"/>
<path d="M128.036 122.175L127.664 121.769L127.139 122.264L126.603 121.699L127.131 121.204L125.855 119.853L126.246 119.481L128.951 119.161L129.528 119.767L126.983 120.095L127.619 120.768L128.088 120.326L128.605 120.873L128.136 121.315L128.508 121.725L128.036 122.175Z" fill="white"/>
<path d="M139.791 91.1802C141.206 89.007 140.651 86.1193 138.753 84.3554C138.176 83.8108 137.507 83.3724 136.777 83.0603C134.965 82.3161 132.565 82.8557 131.612 84.5749C130.834 85.9779 131.147 87.7306 131.694 89.2377C132.263 90.8193 133.182 92.4343 134.749 93.0483C136.316 93.6624 138.069 93.1004 139.192 91.932C139.417 91.7026 139.618 91.4507 139.791 91.1802Z" fill="#7467F0"/>
<path d="M174.307 92.0771H79.1413C75.557 92.0771 72.6514 94.9827 72.6514 98.567V164.073C72.6514 167.658 75.557 170.563 79.1413 170.563H174.307C177.891 170.563 180.797 167.658 180.797 164.073V98.567C180.797 94.9827 177.891 92.0771 174.307 92.0771Z" fill="#7467F0"/>
<path d="M180.796 98.5671C180.796 98.5671 180.796 98.489 180.796 98.3327C180.789 98.0995 180.767 97.867 180.729 97.6368C180.598 96.7308 180.273 95.8638 179.776 95.0951C179.412 94.5297 178.965 94.0218 178.451 93.588C177.823 93.0734 177.106 92.6797 176.334 92.4269C176.126 92.3562 175.906 92.3153 175.686 92.252C175.467 92.1888 175.232 92.1813 174.998 92.1441L174.28 92.1106H170.268L131.466 92.1404H104.673H89.7427H79.9519C79.2912 92.1139 78.6295 92.1513 77.9759 92.252C76.6599 92.4936 75.4539 93.1448 74.53 94.1127C74.0634 94.5948 73.6777 95.1489 73.3875 95.7538C73.0884 96.3584 72.8922 97.0086 72.807 97.6777C72.7428 98.3579 72.7217 99.0415 72.7437 99.7244V110.215C72.7437 115.886 72.7437 121.67 72.7437 127.567V164.036C72.746 165.593 73.3118 167.096 74.3365 168.267C75.3472 169.432 76.7486 170.188 78.2773 170.392C79.0396 170.458 79.805 170.479 80.5697 170.455H139.426H170.183H173.763C174.347 170.473 174.931 170.435 175.508 170.34C176.075 170.231 176.624 170.046 177.142 169.789C177.398 169.663 177.647 169.522 177.886 169.365C178.119 169.201 178.342 169.025 178.556 168.837C179.189 168.279 179.705 167.601 180.074 166.842C180.443 166.083 180.656 165.258 180.703 164.416C180.74 159.95 180.703 155.656 180.725 151.562C180.725 135.189 180.751 121.926 180.759 112.764C180.759 108.183 180.759 104.629 180.777 102.214C180.777 101.012 180.777 100.093 180.777 99.4714C180.777 98.8499 180.777 98.5373 180.777 98.5373C180.777 98.5373 180.777 98.8537 180.777 99.4714C180.777 100.089 180.777 101.012 180.777 102.214C180.777 104.629 180.777 108.168 180.796 112.764C180.796 121.926 180.796 135.181 180.826 151.562C180.826 155.656 180.852 159.946 180.826 164.423C180.763 165.571 180.398 166.681 179.769 167.642C179.455 168.125 179.08 168.566 178.652 168.952C178.434 169.145 178.204 169.325 177.964 169.492C177.725 169.651 177.476 169.797 177.22 169.927C176.691 170.192 176.129 170.382 175.549 170.493C174.963 170.592 174.368 170.632 173.774 170.612H170.194H139.437H105.447H80.5548C79.7814 170.636 79.0072 170.613 78.2364 170.545C76.6614 170.338 75.2168 169.561 74.1765 168.36C73.126 167.157 72.5446 165.615 72.5391 164.018C72.5391 151.518 72.5391 139.319 72.5391 127.549V110.215C72.5391 107.382 72.5391 104.578 72.5391 101.805V99.7319C72.5168 99.0402 72.5392 98.3479 72.6061 97.6591C72.694 96.9716 72.8966 96.3037 73.2052 95.6831C73.5026 95.0597 73.8998 94.489 74.3811 93.9936C74.8577 93.5036 75.4045 93.0872 76.0036 92.7581C76.6059 92.4384 77.2534 92.2125 77.9238 92.0883L78.4262 92.0102L78.9286 91.9841C79.2672 91.9655 79.5984 91.9841 79.9296 91.9841H104.65H131.444L170.246 92.0176H174.239L174.965 92.0548C175.199 92.0957 175.433 92.1218 175.657 92.1702C175.88 92.2185 176.1 92.2744 176.308 92.3488C177.086 92.6048 177.809 93.0036 178.44 93.5247C178.957 93.9626 179.405 94.4756 179.769 95.0467C180.264 95.8219 180.584 96.6956 180.707 97.607C180.745 97.8383 180.764 98.0722 180.766 98.3066C180.796 98.489 180.796 98.5671 180.796 98.5671Z" fill="#263238"/>
<path d="M177.008 96.9149C177.747 96.7859 178.502 96.7859 179.241 96.9149C178.502 97.0438 177.747 97.0438 177.008 96.9149Z" fill="#263238"/>
<path d="M167.898 96.9148C169.414 96.7858 170.937 96.7858 172.453 96.9148C170.937 97.0438 169.414 97.0438 167.898 96.9148Z" fill="#263238"/>
<path d="M158.792 96.9148C160.306 96.7858 161.829 96.7858 163.343 96.9148C161.829 97.0439 160.306 97.0439 158.792 96.9148Z" fill="#263238"/>
<path d="M149.682 96.9148C151.198 96.7858 152.721 96.7858 154.237 96.9148C152.721 97.0438 151.198 97.0438 149.682 96.9148Z" fill="#263238"/>
<path d="M140.576 96.9148C142.09 96.7858 143.613 96.7858 145.127 96.9148C143.613 97.0439 142.09 97.0439 140.576 96.9148Z" fill="#263238"/>
<path d="M131.467 96.9148C132.982 96.7858 134.506 96.7858 136.022 96.9148C134.506 97.0438 132.982 97.0438 131.467 96.9148Z" fill="#263238"/>
<path d="M122.36 96.9148C123.875 96.7858 125.397 96.7858 126.912 96.9148C125.397 97.0439 123.875 97.0439 122.36 96.9148Z" fill="#263238"/>
<path d="M113.25 96.9148C114.766 96.7858 116.29 96.7858 117.805 96.9148C116.29 97.0438 114.766 97.0438 113.25 96.9148Z" fill="#263238"/>
<path d="M104.141 96.9148C105.657 96.7858 107.18 96.7858 108.696 96.9148C107.18 97.0438 105.657 97.0438 104.141 96.9148Z" fill="#263238"/>
<path d="M95.0347 96.9148C95.7861 96.8198 96.5441 96.7874 97.3009 96.818C98.0615 96.7868 98.8233 96.8191 99.5784 96.9148C98.8235 97.0127 98.0615 97.0451 97.3009 97.0116C96.5441 97.0444 95.7859 97.0121 95.0347 96.9148Z" fill="#263238"/>
<path d="M85.9248 96.9148C86.6799 96.8191 87.4417 96.7868 88.2022 96.818C88.9628 96.7868 89.7246 96.8191 90.4797 96.9148C89.7248 97.0127 88.9628 97.0451 88.2022 97.0116C87.4417 97.0451 86.6797 97.0127 85.9248 96.9148Z" fill="#263238"/>
<path d="M79.1409 99.1476C79.0428 98.4076 79.0105 97.6604 79.0441 96.9148L79.1409 96.818H80.008L80.7187 96.8404C80.9391 96.8323 81.1595 96.8548 81.3737 96.9073C81.1599 96.9624 80.9393 96.9862 80.7187 96.978L80.008 96.9966H79.5912H79.1409L79.2376 96.8999C79.2699 97.6505 79.2375 98.4025 79.1409 99.1476Z" fill="#263238"/>
<path d="M79.1408 107.495C79.0429 106.803 79.0105 106.104 79.044 105.407C79.0106 104.711 79.043 104.013 79.1408 103.323C79.2363 104.013 79.2687 104.711 79.2376 105.407C79.2688 106.104 79.2364 106.803 79.1408 107.495Z" fill="#263238"/>
<path d="M79.1412 115.841C79.0122 114.454 79.0122 113.057 79.1412 111.67C79.2702 113.057 79.2702 114.454 79.1412 115.841Z" fill="#263238"/>
<path d="M79.1412 124.188C79.0122 122.8 79.0122 121.402 79.1412 120.013C79.2702 121.402 79.2702 122.8 79.1412 124.188Z" fill="#263238"/>
<path d="M79.1412 132.543C79.0122 131.154 79.0122 129.756 79.1412 128.367C79.2702 129.756 79.2702 131.154 79.1412 132.543Z" fill="#263238"/>
<path d="M79.1412 140.878C79.0122 139.491 79.0122 138.094 79.1412 136.707C79.2702 138.094 79.2702 139.491 79.1412 140.878Z" fill="#263238"/>
<path d="M79.1412 149.225C79.0122 147.838 79.0122 146.441 79.1412 145.054C79.2702 146.441 79.2702 147.838 79.1412 149.225Z" fill="#263238"/>
<path d="M79.1412 157.572C79.0122 156.185 79.0122 154.788 79.1412 153.401C79.2702 154.788 79.2702 156.185 79.1412 157.572Z" fill="#263238"/>
<path d="M81.3735 163.98C80.6333 164.076 79.8863 164.108 79.1407 164.077C78.9472 163.884 79.0849 164.021 79.0439 163.977V163.534C79.0439 163.389 79.0439 163.251 79.0439 163.113C79.0439 162.868 79.0439 162.633 79.0439 162.403C79.0332 162.183 79.0571 161.963 79.1146 161.751C79.1673 161.964 79.1899 162.183 79.1816 162.403C79.1816 162.633 79.1816 162.868 79.2039 163.113C79.2039 163.251 79.2039 163.389 79.2039 163.534C79.2039 163.605 79.2039 163.679 79.2039 163.753V163.977C79.1593 163.936 79.3007 164.077 79.1072 163.884C79.864 163.848 80.6224 163.881 81.3735 163.98Z" fill="#263238"/>
<path d="M90.3499 163.98C89.6096 164.075 88.8627 164.108 88.1171 164.077C87.3714 164.108 86.6245 164.075 85.8843 163.98C86.6243 163.883 87.3714 163.851 88.1171 163.884C88.8627 163.851 89.6098 163.883 90.3499 163.98Z" fill="#263238"/>
<path d="M99.3254 163.98C98.5852 164.075 97.8383 164.108 97.0927 164.077C96.347 164.108 95.6001 164.075 94.8599 163.98C95.5999 163.883 96.347 163.851 97.0927 163.884C97.8383 163.851 98.5854 163.883 99.3254 163.98Z" fill="#263238"/>
<path d="M108.301 163.98C106.808 164.109 105.307 164.109 103.813 163.98C105.307 163.851 106.808 163.851 108.301 163.98Z" fill="#263238"/>
<path d="M117.277 163.98C115.784 164.109 114.282 164.109 112.789 163.98C114.282 163.851 115.784 163.851 117.277 163.98Z" fill="#263238"/>
<path d="M126.253 163.98C124.759 164.109 123.258 164.109 121.765 163.98C123.258 163.851 124.759 163.851 126.253 163.98Z" fill="#263238"/>
<path d="M135.229 163.98C133.735 164.109 132.234 164.109 130.741 163.98C132.234 163.851 133.735 163.851 135.229 163.98Z" fill="#263238"/>
<path d="M144.19 163.98C142.696 164.109 141.195 164.109 139.702 163.98C141.195 163.851 142.696 163.851 144.19 163.98Z" fill="#263238"/>
<path d="M153.18 163.98C151.687 164.109 150.186 164.109 148.692 163.98C150.186 163.851 151.687 163.851 153.18 163.98Z" fill="#263238"/>
<path d="M162.156 163.98C160.663 164.109 159.162 164.109 157.668 163.98C159.162 163.851 160.663 163.851 162.156 163.98Z" fill="#263238"/>
<path d="M171.136 163.98C169.643 164.109 168.141 164.109 166.648 163.98C168.141 163.851 169.643 163.851 171.136 163.98Z" fill="#263238"/>
<path d="M177.856 163.98C177.118 164.109 176.362 164.109 175.624 163.98C176.362 163.851 177.118 163.851 177.856 163.98Z" fill="#263238"/>
<g opacity="0.3">
<path opacity="0.3" d="M109.953 135.609C109.953 135.609 109.976 139.33 108.837 141.563C107.698 143.796 107.348 144.682 104.967 145.545C102.585 146.408 72.6211 149.702 72.6211 149.702V139.591L109.953 135.609Z" fill="black"/>
</g>
<g opacity="0.3">
<path opacity="0.3" d="M109.429 121.58C109.429 121.58 109.771 117.78 100.241 116.37C89.3415 114.759 72.6514 112.779 72.6514 112.779V119.965L109.429 121.58Z" fill="black"/>
</g>
<path d="M104.643 118.13H73.6411C70.7001 118.13 68.3159 120.514 68.3159 123.455V137.336C68.3159 140.277 70.7001 142.661 73.6411 142.661H104.643C107.584 142.661 109.969 140.277 109.969 137.336V123.455C109.969 120.514 107.584 118.13 104.643 118.13Z" fill="#7467F0"/>
<path d="M73.6407 142.661C73.6407 142.661 73.5328 142.661 73.3244 142.661C73.0122 142.649 72.7019 142.607 72.3978 142.534C71.9005 142.422 71.4226 142.237 70.98 141.984C70.3737 141.641 69.8412 141.182 69.4133 140.633C68.8712 139.944 68.507 139.133 68.3528 138.27C68.2752 137.778 68.2453 137.279 68.2634 136.781C68.2634 136.268 68.2634 135.732 68.2634 135.177C68.2634 132.963 68.2634 130.444 68.2634 127.657C68.2634 126.261 68.2634 124.806 68.2634 123.28C68.2885 122.476 68.4933 121.688 68.8629 120.973C69.2326 120.258 69.7576 119.635 70.3995 119.15C71.0742 118.631 71.8646 118.284 72.703 118.137C73.1283 118.067 73.5595 118.037 73.9905 118.048H80.6889H104.669C105.477 118.046 106.275 118.226 107.004 118.574C107.733 118.922 108.375 119.429 108.882 120.058C109.553 120.881 109.965 121.884 110.065 122.942C110.106 123.466 110.091 123.976 110.095 124.486C110.095 125.506 110.095 126.517 110.095 127.519V133.425C110.095 134.388 110.095 135.345 110.095 136.286C110.095 136.763 110.113 137.224 110.095 137.7C110.081 137.936 110.053 138.171 110.009 138.404C109.959 138.632 109.896 138.859 109.823 139.081C109.52 139.952 109 140.732 108.312 141.346C107.623 141.96 106.79 142.388 105.89 142.59C105.675 142.64 105.457 142.678 105.238 142.706C105.019 142.724 104.799 142.732 104.58 142.739H100.803H91.6854L78.4822 142.706L74.8911 142.687H73.9608H73.6407C73.6407 142.687 73.7487 142.687 73.9608 142.687H74.8911L78.4822 142.668L91.6854 142.639H100.803H103.3C104.148 142.616 105.015 142.709 105.849 142.49C106.712 142.284 107.508 141.862 108.164 141.265C108.82 140.667 109.314 139.914 109.6 139.074C109.92 138.214 109.875 137.28 109.875 136.335V133.473C109.875 131.545 109.875 129.573 109.875 127.567V124.534C109.875 124.025 109.875 123.507 109.849 123.009C109.749 121.989 109.352 121.021 108.707 120.225C108.382 119.831 108.007 119.482 107.59 119.187C107.158 118.902 106.688 118.678 106.195 118.521C105.695 118.375 105.178 118.298 104.658 118.29H80.6777H73.9794C73.5571 118.279 73.1347 118.308 72.7179 118.376C71.906 118.516 71.14 118.851 70.4851 119.351C69.8608 119.821 69.3496 120.425 68.989 121.118C68.6284 121.812 68.4275 122.577 68.4011 123.358C68.3825 124.873 68.4011 126.336 68.4011 127.731C68.4011 130.518 68.4011 133.038 68.4011 135.252C68.4011 135.806 68.4011 136.342 68.4011 136.856C68.3824 137.347 68.4098 137.839 68.483 138.326C68.6616 139.34 69.1308 140.281 69.8336 141.034C70.5364 141.787 71.4427 142.32 72.4425 142.568C72.7439 142.643 73.0516 142.691 73.3616 142.709L73.6407 142.661Z" fill="#263238"/>
<path d="M97.4202 140.235C102.344 140.235 106.336 136.243 106.336 131.318C106.336 126.394 102.344 122.402 97.4202 122.402C92.4959 122.402 88.5039 126.394 88.5039 131.318C88.5039 136.243 92.4959 140.235 97.4202 140.235Z" fill="#263238"/>
<path d="M99.7051 138.605C100.459 138.325 101.175 137.95 101.834 137.488C102.535 136.974 103.144 136.345 103.635 135.628C104.246 134.757 104.651 133.759 104.818 132.708C104.985 131.658 104.91 130.583 104.599 129.566C104.355 128.731 103.97 127.944 103.46 127.24C102.979 126.596 102.416 126.018 101.785 125.521C101.785 125.521 101.841 125.543 101.93 125.602C102.068 125.688 102.201 125.781 102.329 125.882C102.797 126.251 103.215 126.68 103.572 127.158C104.106 127.867 104.512 128.664 104.77 129.514C105.101 130.555 105.184 131.659 105.012 132.738C104.84 133.817 104.418 134.841 103.78 135.728C103.274 136.453 102.644 137.083 101.919 137.589C101.433 137.933 100.902 138.21 100.341 138.411C100.191 138.469 100.037 138.517 99.88 138.556C99.8254 138.584 99.766 138.6 99.7051 138.605Z" fill="#FAFAFA"/>
<path d="M237.007 74.1701C237.309 77.4172 236.64 80.6809 235.086 83.5476C233.531 86.4143 231.161 88.7552 228.275 90.2737C225.389 91.7922 222.117 92.42 218.874 92.0776C215.631 91.7352 212.562 90.438 210.057 88.3503C207.552 86.2626 205.723 83.4783 204.801 80.3502C203.879 77.222 203.907 73.8907 204.88 70.7781C205.853 67.6656 207.728 64.912 210.268 62.866C212.807 60.8199 215.897 59.5736 219.145 59.2849C223.487 58.894 227.806 60.2419 231.155 63.0327C234.504 65.8234 236.609 69.829 237.007 74.1701Z" fill="#7467F0"/>
<g opacity="0.3">
<path opacity="0.3" d="M233.062 74.118C232.988 74.118 232.887 73.5858 232.601 72.6294C232.199 71.3107 231.597 70.0617 230.815 68.9267C230.275 68.152 229.651 67.4394 228.954 66.8019C228.157 66.0701 227.269 65.4447 226.312 64.9412C225.797 64.6696 225.262 64.437 224.712 64.2453C224.14 64.0442 223.554 63.8863 222.959 63.7727C222.345 63.6549 221.723 63.584 221.098 63.5606C220.452 63.5386 219.805 63.5647 219.163 63.6387C218.523 63.7183 217.888 63.8427 217.265 64.0109C216.662 64.1844 216.072 64.4034 215.501 64.6658C214.42 65.1624 213.417 65.8144 212.524 66.6009C211.714 67.3136 210.998 68.1278 210.396 69.0235C209.873 69.8093 209.439 70.6504 209.101 71.5317C208.61 72.819 208.324 74.175 208.252 75.5507C208.196 76.5331 208.23 77.0839 208.152 77.095C208.074 77.1062 207.94 76.5629 207.876 75.5507C207.806 74.1116 208.002 72.6719 208.457 71.3047C209.133 69.2482 210.331 67.4021 211.933 65.946C212.877 65.0808 213.946 64.362 215.103 63.8136C215.716 63.5241 216.35 63.2839 217.001 63.0954C217.672 62.9036 218.356 62.7631 219.048 62.6749C219.741 62.596 220.438 62.5687 221.135 62.5931C221.813 62.6233 222.487 62.7054 223.152 62.8387C224.407 63.0943 225.616 63.5358 226.74 64.1486C228.642 65.1826 230.246 66.6899 231.395 68.5248C232.164 69.7438 232.699 71.0954 232.973 72.5104C233.129 73.5598 233.129 74.118 233.062 74.118Z" fill="black"/>
</g>
<g opacity="0.3">
<path opacity="0.3" d="M222.68 82.9673L222.907 85.1406L220.965 85.3452L220.745 83.2278C218.81 83.3097 216.905 82.9003 215.751 82.1784L216.57 79.6963C217.765 80.3582 219.111 80.698 220.477 80.6824L220.139 77.4412C217.932 77.1397 215.45 76.6746 215.159 73.8947C214.944 71.8369 216.257 69.9167 219.286 69.2468L219.063 67.0922L221.006 66.8912L221.225 69.0049C222.622 68.9394 224.014 69.2046 225.289 69.779L224.571 72.2574C223.603 71.8229 222.558 71.5851 221.497 71.5578L221.839 74.8586C224.046 75.1377 226.491 75.6028 226.774 78.3492C226.986 80.381 225.687 82.2826 222.68 82.9673ZM219.848 74.5869L219.558 71.8294C218.557 72.1681 218.207 72.7746 218.274 73.4147C218.341 74.0548 218.963 74.4046 219.848 74.5869ZM223.674 78.9185C223.603 78.2375 223 77.9287 222.137 77.724L222.416 80.4033C223.365 80.0907 223.737 79.54 223.674 78.9185Z" fill="black"/>
</g>
<path d="M208.1 76.7862C208.113 76.8186 208.121 76.8523 208.126 76.8867C208.126 76.9648 208.156 77.0616 208.178 77.1806C208.201 77.2997 208.223 77.4746 208.253 77.657C208.283 77.8753 208.326 78.0915 208.383 78.3045C208.918 80.624 210.094 82.7465 211.777 84.4298L212.365 84.9656C212.465 85.0512 212.558 85.148 212.666 85.2336L212.998 85.4792C213.221 85.6429 213.44 85.8253 213.679 85.9778L214.423 86.4281C215.488 87.03 216.635 87.475 217.828 87.7492C220.409 88.3396 223.112 88.0906 225.542 87.0384C226.665 86.5514 227.712 85.9046 228.649 85.1182L229.297 84.5414C229.505 84.3479 229.669 84.1283 229.874 83.9274C229.967 83.8269 230.063 83.7264 230.153 83.626C230.242 83.5255 230.32 83.4101 230.406 83.3059C230.566 83.0901 230.726 82.8817 230.886 82.6733C231.428 81.8744 231.881 81.0183 232.237 80.1205C232.751 78.8136 233.044 77.4302 233.104 76.027C233.118 75.8077 233.118 75.5877 233.104 75.3684C233.104 75.1823 233.104 75.0186 233.104 74.8846C233.104 74.7506 233.104 74.665 233.104 74.5869C233.101 74.5522 233.101 74.5174 233.104 74.4827C233.108 74.5161 233.108 74.5498 233.104 74.5832C233.104 74.6613 233.104 74.7618 233.126 74.8809C233.148 75 233.126 75.1786 233.152 75.3684C233.169 75.5888 233.169 75.8103 233.152 76.0308C233.121 77.4456 232.846 78.8445 232.337 80.1651C231.99 81.0824 231.538 81.9565 230.99 82.7701L230.525 83.4213C230.439 83.5292 230.361 83.6446 230.272 83.7488L229.989 84.0576C229.799 84.2623 229.617 84.4819 229.405 84.6791L228.754 85.2708C227.804 86.0719 226.744 86.7312 225.605 87.2282C223.145 88.2977 220.406 88.5507 217.791 87.9501C216.58 87.6693 215.416 87.213 214.337 86.5956L213.593 86.1379C213.351 85.9816 213.132 85.7955 212.905 85.6318L212.573 85.3787C212.465 85.2931 212.369 85.1926 212.264 85.1033L211.662 84.5377C210.978 83.8384 210.375 83.0645 209.864 82.2305C209.124 81.0237 208.597 79.698 208.309 78.3119C208.256 78.0979 208.218 77.8802 208.197 77.6607C208.175 77.4746 208.156 77.3109 208.138 77.1769C208.119 77.043 208.115 76.9574 208.104 76.8792C208.1 76.8484 208.099 76.8173 208.1 76.7862Z" fill="#263238"/>
<path d="M213.779 122.737C212.96 124.445 211.652 125.871 210.022 126.836C208.392 127.8 206.512 128.259 204.621 128.155C202.729 128.05 200.911 127.387 199.397 126.248C197.883 125.11 196.741 123.548 196.115 121.76C195.489 119.973 195.408 118.039 195.882 116.205C196.355 114.371 197.362 112.719 198.775 111.457C200.189 110.196 201.944 109.382 203.82 109.119C205.696 108.857 207.608 109.156 209.313 109.98C210.444 110.525 211.457 111.286 212.293 112.222C213.13 113.158 213.774 114.249 214.188 115.434C214.603 116.618 214.78 117.873 214.71 119.126C214.64 120.379 214.323 121.606 213.779 122.737Z" fill="#7467F0"/>
<g opacity="0.3">
<path opacity="0.3" d="M211.84 121.542C211.878 121.244 211.948 120.951 212.048 120.668C212.24 119.891 212.312 119.089 212.26 118.29C212.22 117.743 212.122 117.201 211.966 116.675C211.783 116.075 211.524 115.501 211.196 114.967C211.018 114.679 210.821 114.404 210.604 114.144C209.898 113.3 209.007 112.631 207.999 112.187C207.656 112.037 207.301 111.912 206.939 111.815C206.586 111.722 206.226 111.656 205.863 111.618C205.514 111.578 205.162 111.565 204.81 111.581C204.472 111.594 204.135 111.632 203.802 111.696C203.185 111.808 202.586 112.001 202.019 112.269C201.524 112.506 201.056 112.795 200.624 113.132C199.997 113.631 199.451 114.223 199.005 114.889C198.86 115.153 198.689 115.402 198.495 115.633C198.54 115.329 198.651 115.038 198.819 114.781C199.212 114.035 199.742 113.369 200.382 112.82C200.821 112.438 201.304 112.11 201.822 111.845C202.418 111.539 203.053 111.315 203.709 111.179C204.443 111.027 205.195 110.987 205.941 111.06C206.333 111.099 206.722 111.168 207.103 111.268C207.494 111.373 207.877 111.508 208.249 111.67C208.619 111.836 208.976 112.03 209.317 112.25C209.645 112.466 209.956 112.708 210.247 112.972C210.53 113.227 210.792 113.504 211.029 113.802C211.257 114.083 211.464 114.382 211.646 114.695C211.988 115.277 212.25 115.903 212.424 116.556C212.572 117.117 212.653 117.695 212.666 118.275C212.687 119.113 212.552 119.947 212.268 120.735C212.182 121.031 212.037 121.306 211.84 121.542Z" fill="black"/>
</g>
<g opacity="0.3">
<path opacity="0.3" d="M204.025 122.867L203.493 124.017L202.462 123.541L202.983 122.424C202.083 121.97 201.327 121.273 200.803 120.411L201.953 119.418C202.352 120.105 202.922 120.677 203.609 121.077L204.409 119.358C203.393 118.551 202.295 117.576 202.98 116.106C203.486 115.015 204.71 114.446 206.422 115.015L206.954 113.873L207.981 114.353L207.46 115.469C208.177 115.852 208.793 116.399 209.258 117.066L208.141 118.093C207.787 117.588 207.337 117.158 206.816 116.828L206.005 118.577C207.021 119.373 208.1 120.337 207.427 121.788C206.947 122.867 205.733 123.414 204.025 122.867ZM205.108 117.84L205.789 116.381C205.186 116.251 204.829 116.448 204.673 116.787C204.517 117.125 204.725 117.479 205.108 117.832V117.84ZM205.73 121.144C205.893 120.772 205.689 120.448 205.317 120.087L204.658 121.509C205.22 121.628 205.592 121.464 205.73 121.137V121.144Z" fill="black"/>
</g>
<path d="M198.593 115.425C198.593 115.425 198.481 115.726 198.299 116.273C198.052 117.047 197.936 117.857 197.956 118.67C197.971 119.228 198.047 119.784 198.183 120.326C198.345 120.952 198.584 121.555 198.894 122.123C199.247 122.737 199.685 123.297 200.196 123.786C201.301 124.846 202.716 125.524 204.234 125.722C204.935 125.813 205.646 125.803 206.344 125.692C207.534 125.501 208.657 125.017 209.611 124.281C210.256 123.787 210.816 123.189 211.267 122.514C211.576 122.03 211.721 121.74 211.74 121.751C211.718 121.825 211.686 121.896 211.647 121.963C211.552 122.165 211.447 122.361 211.331 122.551C210.897 123.254 210.344 123.876 209.697 124.389C208.736 125.163 207.591 125.676 206.374 125.878C205.658 125.998 204.928 126.012 204.208 125.919C203.435 125.811 202.683 125.589 201.975 125.26C201.276 124.916 200.633 124.47 200.066 123.935C199.544 123.432 199.098 122.855 198.741 122.223C198.417 121.65 198.167 121.037 197.997 120.4C197.866 119.845 197.797 119.277 197.792 118.707C197.783 117.882 197.921 117.061 198.198 116.284C198.271 116.074 198.358 115.869 198.459 115.67C198.493 115.583 198.538 115.501 198.593 115.425Z" fill="#263238"/>
<path d="M55.7866 121.379C56.2399 124.439 55.7751 127.564 54.451 130.36C53.1268 133.155 51.0029 135.495 48.3481 137.083C45.6933 138.671 42.6271 139.435 39.5377 139.279C36.4483 139.123 33.4746 138.054 30.9933 136.207C28.5119 134.36 26.6345 131.818 25.5986 128.903C24.5628 125.988 24.4152 122.832 25.1744 119.833C25.9337 116.834 27.5657 114.128 29.8639 112.058C32.162 109.987 35.0229 108.645 38.0843 108.202C40.1118 107.904 42.1781 108.009 44.1651 108.511C46.1521 109.012 48.0209 109.9 49.6648 111.123C51.3086 112.347 52.6953 113.883 53.7457 115.642C54.7961 117.402 55.4896 119.351 55.7866 121.379Z" fill="#7467F0"/>
<g opacity="0.3">
<path opacity="0.3" d="M52.0503 121.535C51.9796 121.535 51.8531 121.04 51.5331 120.166C51.0875 118.936 50.4522 117.783 49.6501 116.749C49.1008 116.046 48.4769 115.405 47.7894 114.837C46.9944 114.19 46.1188 113.65 45.1845 113.229C44.6826 112.999 44.1638 112.807 43.6327 112.656C43.0813 112.488 42.5177 112.364 41.947 112.284C41.3575 112.204 40.7629 112.169 40.1682 112.18C39.5556 112.195 38.945 112.255 38.341 112.358C37.7375 112.468 37.143 112.622 36.5622 112.82C35.9998 113.016 35.4525 113.254 34.9248 113.53C34.4155 113.799 33.9278 114.106 33.4661 114.45C33.0203 114.776 32.5987 115.134 32.2045 115.521C30.8342 116.868 29.8124 118.529 29.2275 120.359C28.8303 121.605 28.6307 122.906 28.6358 124.214C28.6358 125.145 28.6916 125.666 28.6358 125.677C28.58 125.688 28.4051 125.186 28.2972 124.233C28.1504 122.874 28.2615 121.499 28.6246 120.18C28.871 119.263 29.2258 118.379 29.6815 117.546C30.2117 116.588 30.8675 115.706 31.6315 114.922C32.0449 114.497 32.4902 114.104 32.9637 113.746C33.4564 113.37 33.9777 113.033 34.5229 112.738C35.088 112.432 35.6766 112.172 36.2831 111.96C37.534 111.518 38.849 111.284 40.1756 111.268C40.818 111.261 41.4599 111.303 42.0958 111.394C42.71 111.482 43.3161 111.618 43.9081 111.804C44.4752 111.977 45.0287 112.192 45.5641 112.448C47.4187 113.328 49.0155 114.671 50.2008 116.348C50.9915 117.464 51.5693 118.717 51.9052 120.043C52.0987 121.007 52.1024 121.528 52.0503 121.535Z" fill="black"/>
</g>
<g opacity="0.3">
<path opacity="0.3" d="M42.6799 130.451L43.0073 132.498L41.1802 132.792L40.8601 130.797C39.033 130.976 37.2058 130.689 36.0745 130.053L36.722 127.66C37.8873 128.232 39.1818 128.488 40.4768 128.405L39.9894 125.353C37.8794 125.186 35.5052 124.869 35.0847 122.257C34.7758 120.318 35.9182 118.428 38.7539 117.639L38.4264 115.607L40.2573 115.317L40.5736 117.308C41.894 117.173 43.2276 117.351 44.4661 117.829L43.9116 120.225C42.9711 119.863 41.9679 119.692 40.9606 119.723L41.4593 122.83C43.5655 122.979 45.9025 123.299 46.3156 125.878C46.6207 127.776 45.4932 129.644 42.6799 130.451ZM39.5577 122.663L39.1409 120.058C38.2068 120.43 37.9091 121.025 38.0059 121.628C38.1026 122.231 38.7129 122.536 39.5577 122.663ZM43.4092 126.566C43.305 125.926 42.7208 125.662 41.8909 125.513L42.2928 128.036C43.1748 127.705 43.5023 127.15 43.4092 126.566Z" fill="black"/>
</g>
<path d="M28.5504 125.361C28.5616 125.391 28.5703 125.422 28.5765 125.454C28.5951 125.524 28.6174 125.617 28.6434 125.729L28.7402 126.175C28.7801 126.381 28.8323 126.583 28.8965 126.782C29.2662 128.06 29.846 129.267 30.612 130.355C31.1404 131.102 31.7508 131.789 32.4317 132.401L33.016 132.878C33.1165 132.956 33.2132 133.041 33.3174 133.116L33.6449 133.332C33.8644 133.473 34.0803 133.633 34.3147 133.767L35.0367 134.139C36.0774 134.653 37.1865 135.015 38.33 135.215C39.5618 135.409 40.8155 135.423 42.0513 135.255C43.2824 135.057 44.4781 134.681 45.6015 134.139C46.6374 133.618 47.5935 132.951 48.4408 132.159L49.0214 131.575C49.2112 131.382 49.3674 131.166 49.5386 130.969L49.788 130.667C49.8698 130.563 49.9368 130.455 50.0075 130.351C50.1526 130.139 50.2903 129.93 50.4317 129.726C50.9026 128.941 51.2869 128.107 51.5779 127.24C51.9966 125.976 52.2016 124.652 52.1845 123.321C52.1918 123.112 52.1831 122.903 52.1584 122.696C52.1584 122.521 52.1324 122.369 52.1249 122.238C52.1175 122.108 52.1249 122.034 52.1063 121.956C52.1014 121.923 52.1014 121.891 52.1063 121.859C52.1177 121.89 52.124 121.922 52.1249 121.956C52.1249 122.03 52.1473 122.123 52.1622 122.235C52.177 122.346 52.1957 122.517 52.218 122.692C52.2464 122.901 52.2601 123.111 52.2589 123.321C52.3071 124.663 52.1208 126.003 51.7082 127.281C51.4249 128.165 51.0416 129.014 50.5657 129.811L50.1452 130.444C50.0708 130.552 50.0038 130.663 49.9219 130.768L49.6726 131.073C49.5014 131.277 49.3414 131.497 49.1516 131.694C48.9618 131.891 48.7795 132.089 48.5636 132.286C47.7064 133.096 46.7362 133.778 45.6833 134.31C43.4038 135.455 40.8171 135.837 38.304 135.401C37.1395 135.192 36.0114 134.816 34.9548 134.284L34.2105 133.886C33.9724 133.752 33.7565 133.588 33.5333 133.443L33.2021 133.224C33.0979 133.146 33.0011 133.056 32.8969 132.978L32.3089 132.494C31.6245 131.868 31.0128 131.166 30.4855 130.403C29.7215 129.298 29.1549 128.069 28.8109 126.771C28.7471 126.57 28.6998 126.365 28.6695 126.157C28.6397 125.982 28.6137 125.833 28.5876 125.703L28.543 125.424C28.5436 125.403 28.5461 125.381 28.5504 125.361Z" fill="#263238"/>
<path d="M252.283 170.575C252.283 170.63 196.72 170.675 128.195 170.675C59.6711 170.675 4.09326 170.63 4.09326 170.575C4.09326 170.519 59.6451 170.478 128.195 170.478C196.746 170.478 252.283 170.522 252.283 170.575Z" fill="#263238"/>
<path d="M200.806 21.2419C200.88 21.2328 200.955 21.2328 201.029 21.2419L201.684 21.2605C201.83 21.2605 201.99 21.2605 202.168 21.2605L202.745 21.3424L203.422 21.4391L204.167 21.6289C205.466 21.9604 206.702 22.5036 207.825 23.2365C209.493 24.2899 210.898 25.7124 211.931 27.3944C212.963 29.0764 213.595 30.973 213.779 32.938C213.83 33.5257 213.843 34.1162 213.816 34.7056C213.794 35.0033 213.816 35.3085 213.756 35.6099C213.697 35.9113 213.663 36.2127 213.619 36.5216C213.388 37.7738 212.975 38.9851 212.391 40.1164C211.767 41.3033 210.975 42.3938 210.039 43.3539C209.042 44.3332 207.899 45.1528 206.652 45.784C205.362 46.4467 203.965 46.8763 202.525 47.0529C202.156 47.109 201.783 47.1401 201.409 47.146C201.037 47.1666 200.665 47.1666 200.293 47.146C199.542 47.1158 198.795 47.0224 198.06 46.8669C196.479 46.5274 194.974 45.8964 193.624 45.0062H193.758L189.237 46.8222L188.969 46.9301L189.047 46.651C189.501 44.9913 189.947 43.38 190.375 41.8133L190.398 41.9324C189.172 40.3063 188.346 38.4145 187.986 36.41C187.814 35.4777 187.756 34.5281 187.811 33.5818C187.819 33.1252 187.862 32.67 187.938 32.2198C187.971 32.0002 188.009 31.7806 188.042 31.5611C188.076 31.3415 188.146 31.1331 188.198 30.921C188.955 27.9501 190.742 25.3442 193.241 23.5677C194.168 22.9173 195.18 22.3965 196.248 22.0196C196.482 21.934 196.705 21.8522 196.925 21.7778L197.565 21.614L198.153 21.4689C198.339 21.4317 198.525 21.4131 198.693 21.387C199.035 21.3424 199.336 21.2828 199.597 21.2717L200.263 21.2493H200.669C200.714 21.2438 200.76 21.2438 200.806 21.2493C200.761 21.2585 200.715 21.2647 200.669 21.2679L200.263 21.2977L199.604 21.3424C199.344 21.3647 199.046 21.4279 198.707 21.48C196.255 21.9032 193.978 23.0294 192.153 24.7219C190.329 26.4143 189.035 28.6002 188.429 31.0141C188.381 31.2224 188.314 31.4308 188.277 31.643C188.239 31.8551 188.213 32.0746 188.18 32.2942C188.104 32.7343 188.064 33.1799 188.061 33.6264C188.009 34.5545 188.07 35.4854 188.243 36.3988C188.601 38.3613 189.416 40.2122 190.621 41.8022L190.662 41.858V41.9212C190.238 43.4842 189.799 45.0992 189.345 46.7589L189.155 46.5915L193.672 44.7718L193.743 44.742L193.806 44.7829C195.127 45.6565 196.598 46.2762 198.145 46.6101C198.862 46.7624 199.59 46.8545 200.322 46.8855C200.686 46.8985 201.05 46.8911 201.413 46.8631C201.773 46.8596 202.132 46.8297 202.488 46.7738C203.897 46.6045 205.264 46.1861 206.526 45.5383C207.746 44.9219 208.865 44.1211 209.842 43.1642C210.759 42.2276 211.536 41.1635 212.149 40.0048C212.725 38.8976 213.135 37.7113 213.366 36.4844C213.41 36.183 213.459 35.8853 213.503 35.5913C213.548 35.2973 213.541 34.9996 213.563 34.7056C213.593 34.1264 213.585 33.5458 213.537 32.9677C213.364 31.0371 212.754 29.1711 211.754 27.5109C210.753 25.8507 209.388 24.44 207.761 23.3854C206.659 22.6539 205.445 22.106 204.167 21.7629L203.422 21.5656L202.756 21.454L202.183 21.361C202.008 21.3424 201.844 21.3386 201.703 21.3238L201.026 21.2754C200.952 21.2682 200.879 21.257 200.806 21.2419Z" fill="#263238"/>
<path d="M205.053 37.2771C205.002 37.2816 204.951 37.2816 204.9 37.2771H204.461L202.831 37.3031L197.372 37.3515H197.327V37.3068C197.283 37.0203 197.238 36.7114 197.193 36.4025C196.821 33.7567 196.479 31.3937 196.259 29.853L196.289 29.8791H194.838H194.466H194.332C194.376 29.8742 194.421 29.8742 194.466 29.8791H194.838L196.289 29.8344H196.319V29.8605C196.549 31.4048 196.899 33.7641 197.294 36.4063L197.424 37.3105L197.372 37.2659H202.831L204.476 37.2771H204.919C204.963 37.2729 205.008 37.2729 205.053 37.2771Z" fill="#7467F0"/>
<path d="M197.487 37.4258H197.305L197.275 37.2398V37.1951L197.167 36.4509L196.218 29.946H194.447C194.291 29.946 194.265 29.946 194.265 29.8939V29.8753C194.265 29.8753 194.265 29.8753 194.432 29.8492H194.804L196.17 29.8306V29.7934L196.207 29.8269H196.334V29.8939C196.332 29.9137 196.332 29.9336 196.334 29.9534L196.371 29.9869H196.337C196.568 31.5313 196.911 33.8497 197.298 36.4397L197.417 37.2621H202.79H204.859C205.034 37.2621 205.056 37.2621 205.056 37.3179C205.056 37.3737 205.056 37.37 204.859 37.3737H204.42L202.794 37.3961L197.446 37.4444L197.487 37.4258ZM197.487 37.3142H198.939H197.487ZM196.989 34.6721L197.361 37.2174L197.242 36.4099C197.156 35.8182 197.071 35.2377 196.989 34.6721Z" fill="#7467F0"/>
<path d="M197.141 35.7289H197.294H197.733L199.374 35.7029L205.042 35.6508L204.993 35.6917C205.157 34.7391 205.332 33.7045 205.514 32.6365C205.607 32.0895 205.7 31.5499 205.786 31.0326L205.838 31.0922L199.158 31.1145H196.661H196.523H196.661H197.193L199.169 31.0885L205.849 31.0326H205.909V31.0922C205.823 31.6057 205.73 32.1453 205.637 32.6961C205.455 33.7641 205.265 34.7949 205.112 35.7513V35.7922H205.071H199.404H197.763H197.324H197.171L197.141 35.7289Z" fill="#7467F0"/>
<path d="M199.374 35.7885H197.178C197.137 35.7885 197.093 35.7885 197.093 35.7364C197.093 35.6843 197.137 35.688 197.178 35.6843H197.729L199.374 35.662L204.956 35.6099L205.462 32.6328C205.551 32.123 205.637 31.6243 205.719 31.1443L199.154 31.1666H196.505C196.456 31.1666 196.412 31.1666 196.412 31.1145C196.412 31.0624 196.456 31.0661 196.505 31.0624H197.174L199.154 31.0326L205.752 30.9768H205.964L205.934 31.1554L205.19 35.621L205.16 35.7996H204.978L199.374 35.7885ZM204.956 35.6768H204.13H204.956ZM205.827 31.1182C205.745 31.602 205.659 32.1081 205.57 32.6068L205.067 35.5838L205.812 31.1182H205.827ZM205.748 31.0178H204.115H205.748Z" fill="#7467F0"/>
<path d="M199.303 39.3907C199.303 39.3907 199.303 39.3237 199.258 39.2084C199.212 39.0476 199.112 38.9073 198.976 38.8102C198.877 38.7405 198.762 38.6959 198.642 38.6804C198.522 38.6648 198.401 38.6787 198.287 38.7209C198.15 38.7731 198.032 38.8659 197.949 38.9869C197.866 39.1079 197.821 39.2514 197.822 39.3982C197.825 39.5451 197.872 39.6878 197.956 39.8084C198.04 39.9289 198.158 40.0218 198.295 40.0754C198.409 40.116 198.531 40.1281 198.651 40.1106C198.771 40.0931 198.885 40.0465 198.983 39.975C199.117 39.8745 199.215 39.7336 199.262 39.5731C199.296 39.4614 199.296 39.3907 199.303 39.3907C199.32 39.4541 199.32 39.5209 199.303 39.5842C199.268 39.7603 199.171 39.9184 199.031 40.0308C198.939 40.1047 198.832 40.1575 198.717 40.1857C198.602 40.2138 198.483 40.2165 198.367 40.1936C198.251 40.1707 198.142 40.1227 198.046 40.0531C197.951 39.9835 197.871 39.8938 197.814 39.7904C197.757 39.687 197.723 39.5724 197.715 39.4545C197.707 39.3366 197.724 39.2183 197.766 39.108C197.809 38.9976 197.874 38.8978 197.959 38.8155C198.044 38.7332 198.146 38.6704 198.257 38.6316C198.385 38.5846 198.522 38.5712 198.657 38.5927C198.791 38.6142 198.917 38.6699 199.024 38.7544C199.165 38.8657 199.263 39.022 199.303 39.1972C199.322 39.3237 199.311 39.3907 199.303 39.3907Z" fill="#7467F0"/>
<path d="M198.521 40.2541C198.428 40.254 198.334 40.2377 198.246 40.2057C198.078 40.1486 197.932 40.0405 197.828 39.8964C197.724 39.7524 197.667 39.5796 197.666 39.4019C197.664 39.241 197.708 39.083 197.792 38.9458C197.876 38.8087 197.997 38.6981 198.141 38.6266C198.285 38.5551 198.447 38.5257 198.607 38.5417C198.767 38.5577 198.919 38.6186 199.046 38.7172C199.198 38.8345 199.302 39.0022 199.34 39.1898C199.353 39.2562 199.353 39.3244 199.34 39.3907C199.351 39.4573 199.351 39.5252 199.34 39.5917C199.303 39.7799 199.2 39.9488 199.05 40.068C198.899 40.1873 198.713 40.2528 198.521 40.2541ZM198.361 38.6465L198.265 38.6763C198.116 38.7294 197.987 38.8274 197.896 38.9566C197.805 39.0858 197.756 39.2401 197.756 39.3982C197.756 39.5563 197.805 39.7105 197.896 39.8398C197.987 39.969 198.116 40.0669 198.265 40.1201L198.361 40.1462L198.268 40.1164C198.121 40.0625 197.993 39.9645 197.903 39.8357C197.813 39.7069 197.765 39.5535 197.765 39.3963C197.765 39.2392 197.813 39.0858 197.903 38.957C197.993 38.8282 198.121 38.7302 198.268 38.6763L198.361 38.6465ZM198.54 38.7209C198.457 38.7201 198.375 38.7353 198.298 38.7656C198.17 38.8145 198.06 38.9012 197.982 39.0142C197.904 39.1272 197.863 39.2611 197.863 39.3982C197.864 39.5237 197.9 39.6464 197.967 39.7527C198.034 39.8591 198.128 39.9449 198.241 40.0007C198.353 40.0566 198.479 40.0802 198.604 40.0691C198.729 40.058 198.849 40.0126 198.949 39.9378C199.074 39.8445 199.167 39.7143 199.214 39.5657C199.228 39.5207 199.238 39.4747 199.243 39.428C199.243 39.428 199.243 39.4056 199.243 39.3945C199.241 39.3847 199.241 39.3745 199.243 39.3647C199.236 39.3179 199.225 39.2718 199.21 39.227C199.165 39.0773 199.072 38.9465 198.946 38.8549C198.829 38.7689 198.689 38.722 198.544 38.7209H198.54Z" fill="#7467F0"/>
<path d="M204.245 39.361C204.245 39.361 204.245 39.294 204.2 39.1786C204.153 39.0193 204.053 38.8804 203.917 38.7842C203.808 38.7107 203.68 38.6678 203.548 38.6599C203.416 38.6521 203.284 38.6795 203.167 38.7393C203.049 38.7992 202.949 38.8894 202.878 39.0006C202.806 39.1118 202.766 39.2401 202.76 39.3722C202.764 39.5189 202.812 39.6611 202.896 39.781C202.981 39.9008 203.099 39.9929 203.236 40.0457C203.351 40.0863 203.473 40.0984 203.593 40.0809C203.713 40.0634 203.827 40.0168 203.925 39.9452C204.058 39.8461 204.156 39.7064 204.204 39.5471C204.237 39.4317 204.237 39.361 204.245 39.361C204.26 39.4246 204.26 39.4909 204.245 39.5545C204.212 39.7327 204.116 39.8927 203.973 40.0048C203.853 40.0981 203.71 40.1559 203.559 40.1716C203.408 40.1873 203.255 40.1603 203.119 40.0936C202.982 40.0269 202.867 39.9232 202.787 39.7943C202.706 39.6655 202.664 39.5166 202.664 39.3647C202.664 39.2128 202.706 39.0639 202.787 38.9351C202.867 38.8062 202.982 38.7026 203.119 38.6359C203.255 38.5692 203.408 38.5421 203.559 38.5578C203.71 38.5735 203.853 38.6313 203.973 38.7246C204.115 38.8367 204.214 38.9945 204.252 39.1712C204.266 39.234 204.264 39.2994 204.245 39.361Z" fill="#7467F0"/>
<path d="M203.467 40.2243C203.372 40.2253 203.278 40.2102 203.188 40.1797C203.068 40.1406 202.959 40.0757 202.867 39.9896C202.775 39.9035 202.703 39.7982 202.657 39.6813C202.61 39.5644 202.589 39.4387 202.597 39.3131C202.604 39.1874 202.639 39.0649 202.698 38.9541C202.758 38.8434 202.842 38.7471 202.943 38.6721C203.044 38.5971 203.16 38.5453 203.284 38.5202C203.407 38.4951 203.534 38.4974 203.657 38.5269C203.779 38.5565 203.893 38.6125 203.992 38.6911C204.142 38.8097 204.246 38.9768 204.286 39.1637C204.298 39.2301 204.298 39.2983 204.286 39.3647C204.297 39.4312 204.297 39.4991 204.286 39.5656C204.246 39.754 204.143 39.9229 203.993 40.0437C203.843 40.1644 203.656 40.2296 203.463 40.228L203.467 40.2243ZM203.299 38.6204L203.21 38.6465C203.061 38.6997 202.932 38.7976 202.841 38.9268C202.75 39.0561 202.701 39.2103 202.701 39.3684C202.701 39.5265 202.75 39.6808 202.841 39.81C202.932 39.9393 203.061 40.0372 203.21 40.0903L203.318 40.1201L203.214 40.0903C203.067 40.0355 202.94 39.937 202.85 39.808C202.76 39.6789 202.712 39.5255 202.712 39.3684C202.712 39.2113 202.76 39.0579 202.85 38.9289C202.94 38.7998 203.067 38.7013 203.214 38.6465L203.299 38.6204ZM203.486 38.6911C203.403 38.69 203.321 38.7051 203.244 38.7358C203.153 38.7704 203.071 38.8242 203.003 38.8933C202.935 38.9625 202.882 39.0455 202.849 39.1366C202.816 39.2278 202.803 39.3251 202.81 39.4218C202.818 39.5185 202.846 39.6125 202.894 39.6973C202.941 39.7821 203.005 39.8558 203.084 39.9134C203.162 39.971 203.251 40.0112 203.346 40.0311C203.441 40.0511 203.539 40.0505 203.634 40.0292C203.729 40.008 203.818 39.9666 203.895 39.908C204.02 39.8147 204.112 39.6845 204.159 39.5359C204.171 39.4905 204.181 39.4445 204.189 39.3982C204.187 39.3871 204.187 39.3758 204.189 39.3647C204.187 39.3549 204.187 39.3447 204.189 39.3349C204.189 39.3051 204.189 39.2568 204.155 39.1972C204.111 39.0475 204.018 38.9167 203.891 38.8251C203.773 38.7388 203.631 38.6919 203.486 38.6911Z" fill="#7467F0"/>
</g>
<defs>
<filter id="filter0_d" x="0.0932617" y="0" width="256.189" height="196" filterUnits="userSpaceOnUse" color-interpolation-filters="sRGB">
<feFlood flood-opacity="0" result="BackgroundImageFix"/>
<feColorMatrix in="SourceAlpha" type="matrix" values="0 0 0 0 0 0 0 0 0 0 0 0 0 0 0 0 0 0 127 0"/>
<feOffset dy="4"/>
<feGaussianBlur stdDeviation="2"/>
<feColorMatrix type="matrix" values="0 0 0 0 0 0 0 0 0 0 0 0 0 0 0 0 0 0 0.25 0"/>
<feBlend mode="normal" in2="BackgroundImageFix" result="effect1_dropShadow"/>
<feBlend mode="normal" in="SourceGraphic" in2="effect1_dropShadow" result="shape"/>
</filter>
</defs>
</svg>
